<svg width="85" height="85" viewBox="0 0 85 85" fill="none" xmlns="http://www.w3.org/2000/svg">
<g id="academic-certificate">
<path id="Vector" d="M78.2679 5.6816C77.0794 4.63523 75.5825 3.88736 73.9099 3.63434C72.8356 3.46753 71.654 3.61519 70.5673 4.05337C67.1986 3.66654 60.2154 3.1586 54.3676 2.88807C48.7091 2.62388 41.9559 2.39242 34.4409 2.54247C32.5625 2.58557 30.6369 2.64224 28.6703 2.7444C26.71 2.82741 24.7091 2.91122 22.6714 2.99662C20.6022 3.1339 18.4476 3.33983 16.2686 4.05976C14.0729 4.71185 11.9318 6.38478 10.761 8.46636C9.56373 10.5447 9.00183 12.762 8.59956 14.8707C8.21086 17.0122 7.91395 18.9812 7.58192 21.0428C6.9833 25.1246 6.69597 29.085 6.55869 32.8475C6.2921 40.3709 6.53155 47.1384 6.88433 52.8005C7.2427 58.4634 7.7176 63.0264 8.1055 66.172C8.25835 67.3971 8.39883 68.4004 8.52294 69.1762C7.74195 69.2417 6.94739 69.3406 6.10414 69.5529C5.16352 69.7988 3.88328 70.4237 3.3988 71.7063C2.9259 72.9483 3.21283 74.021 3.45587 74.9373C3.93995 76.7195 5.07293 78.5305 6.53554 79.6408C7.9778 80.8085 9.6635 81.5436 11.3436 81.9418C13.0221 82.3497 14.6847 82.4598 16.2738 82.4974C19.4405 82.5277 22.412 82.4575 25.2817 82.4064C36.1951 82.1559 48.7951 81.6458 59.7076 81.2004C59.8254 81.1948 59.9084 81.1892 60.0181 81.1836C60.5209 81.2387 61.0242 81.2586 61.5158 81.2115C64.0308 80.9952 66.2744 79.8156 67.9984 78.1522C69.7711 76.453 70.7465 74.195 71.296 72.0152C72.3591 67.5544 71.7889 63.1972 71.2992 59.1195C70.2365 50.8849 68.4825 43.1349 67.4313 35.7041C67.1141 33.4158 66.8236 31.1578 66.5937 28.9342C66.9776 29.0172 67.4262 29.1074 68.0128 29.2095C69.6825 29.4673 72.1428 29.8935 75.4113 29.8273C76.2306 29.7898 77.101 29.7419 78.0456 29.4186C79.086 29.0994 79.8043 28.1568 80.2565 27.2485C81.1763 25.3568 81.478 23.1763 81.6724 20.884C81.7622 19.7347 81.8029 18.5438 81.8348 17.3338C81.8771 16.115 81.8723 14.8157 81.7306 13.4907C81.4385 10.8768 80.6511 7.88291 78.2679 5.6816ZM52.9429 80.5986C52.986 80.0183 52.7936 79.1978 52.4728 78.315C51.9715 76.9885 51.3454 75.8799 50.6961 75.9381C50.062 75.986 49.6693 77.4722 50.2854 79.1268C50.5065 79.7254 50.8142 80.2178 51.1403 80.589C49.3783 80.5818 47.4261 80.5866 45.2902 80.6002C45.1936 80.1755 45.0476 79.707 44.7439 78.7508C44.3101 77.3748 43.4309 76.366 42.7996 76.4929C42.1682 76.6198 42.0589 78.0181 42.5749 79.6096C42.6819 79.9568 42.871 80.304 43.1013 80.6161C41.7133 80.6273 40.2535 80.6401 38.735 80.6544C38.7629 80.1692 38.6356 79.5665 38.4121 78.9464C38.0234 77.9319 37.4835 77.0492 36.8318 77.0572C36.1957 77.0548 35.6916 78.3246 36.2256 79.7597C36.3573 80.1149 36.5313 80.4198 36.7244 80.6728C35.1114 80.6871 33.4173 80.7015 31.6753 80.7159C31.5029 80.1484 31.2052 79.4556 30.9219 78.7077C30.3161 77.2232 29.8986 75.8591 29.2442 75.8041C28.6172 75.721 27.9428 77.5145 28.7513 79.5618C28.9289 80.0143 29.1548 80.399 29.3978 80.7334C28.2992 80.7406 27.1634 80.747 26.0196 80.7526C25.9231 80.3328 25.7491 79.8667 25.5304 79.3894C25.0243 78.3454 24.4269 77.4347 23.776 77.4826C23.1415 77.5153 22.7217 78.9041 23.4204 80.3847C23.4839 80.5187 23.5573 80.6369 23.63 80.7566C22.5912 80.7574 21.5532 80.7558 20.4813 80.751C20.2773 80.3192 19.9792 79.8347 19.6875 79.3151C19.0374 78.2552 18.5278 77.2184 17.8725 77.1976C17.5576 77.2056 17.2599 77.5568 17.1617 78.1825C17.0604 78.8003 17.1973 79.6815 17.6761 80.4972C17.7232 80.577 17.7803 80.6425 17.8314 80.7167C16.6916 80.6986 16.5312 80.7222 15.4098 80.652C15.2414 79.988 14.7992 79.0781 14.3327 78.0804C13.5465 76.4705 12.8976 75.0466 12.2439 75.1033C11.613 75.1376 11.2478 77.0452 12.2284 79.0861C12.4686 79.5913 12.7547 80.0263 13.0552 80.3894C11.1245 80.059 9.2736 79.4101 7.7619 78.145C6.56627 77.1705 5.80603 75.9493 5.37143 74.3794C5.16272 73.653 5.06854 72.8868 5.27526 72.463C5.42172 72.0432 5.91338 71.7263 6.66085 71.5276C8.12147 71.154 10.0287 71.1899 11.8361 71.0942C19.9269 70.8291 32.9625 71.2166 44.2203 71.3959C46.2508 71.3736 48.4218 71.0703 50.2687 71.3951C50.7117 71.4685 51.1866 71.5938 51.531 71.751C51.8833 71.8779 52.1364 72.1086 52.393 72.3632C53.4146 73.5118 53.5503 75.8703 54.8417 78.0548C55.5784 79.2872 56.7205 80.1572 57.9984 80.6768C56.6252 80.6401 54.9287 80.6121 52.9429 80.5986ZM69.032 59.4044C69.5157 63.4423 69.9878 67.5943 69.044 71.4549C68.5559 73.3609 67.7394 75.1919 66.3698 76.4865C65.0117 77.8058 63.18 78.7373 61.3351 78.8857C59.5149 79.0533 57.6839 78.2783 56.8259 76.8337C56.3598 76.0946 56.0673 75.1368 55.7368 74.1128C55.4048 73.0991 55.0388 71.9091 54.1417 70.838C53.6688 70.3287 53.0862 69.8658 52.4405 69.6192C51.8179 69.351 51.2576 69.2185 50.6634 69.1155C49.4921 68.9144 48.3595 68.9192 47.2836 68.9591C46.2057 68.9982 45.1721 69.0868 44.1896 69.0996C43.1683 69.0868 42.1511 69.074 41.1382 69.0613C32.8841 68.9304 24.9736 68.7947 17.3848 68.8521C15.4868 68.8729 13.61 68.9152 11.7571 68.9934C10.8611 69.0557 9.98475 69.0708 9.09082 69.1259C9.01159 61.7084 7.22899 38.285 9.84188 21.3844C10.6097 17.4368 10.8476 13.0406 12.7687 9.65401C14.6308 6.18205 18.8865 5.54432 22.8214 5.27774C24.8499 5.17238 26.8425 5.07022 28.7936 4.96886C30.7367 4.84514 32.6423 4.76293 34.5024 4.6911C41.9448 4.42452 48.6692 4.48438 54.3197 4.53706C59.9742 4.59851 64.5504 4.648 67.7135 4.68312C68.3508 4.68312 68.9143 4.67833 69.4343 4.67194C69.2647 4.79007 69.0803 4.88186 68.9231 5.02074C67.5327 6.2475 66.8387 7.8446 66.1691 9.37705C65.5505 10.955 65.0896 12.612 64.7587 14.3152C63.512 21.1745 64.3305 28.5056 65.3027 36.0018C66.3127 43.5491 68.0212 51.3144 69.032 59.4044ZM80.3706 20.801C80.2509 23.0183 79.9975 25.1142 79.2564 26.7632C78.8717 27.5805 78.378 28.2486 77.6884 28.4728C76.9625 28.7586 76.1256 28.8567 75.3566 28.9214C72.1679 29.1273 69.7263 28.8564 66.5622 28.6237C66.4161 27.1726 66.3008 25.7376 66.2297 24.3232C66.8204 24.6393 67.6309 24.9083 68.6258 25.0033C69.7284 25.0959 70.8095 24.8309 71.4604 24.3927C72.1217 23.9609 72.3392 23.4628 72.1804 23.1971C72.0139 22.9113 71.5498 22.8594 70.9731 22.8171C70.4104 22.7804 69.6454 22.7317 68.7978 22.6775C67.8149 22.5905 66.8539 22.5497 66.1675 22.6447C66.1491 21.8649 66.1519 21.0939 66.1675 20.3277C66.7737 20.5975 67.5818 20.801 68.5172 20.8186C70.6132 20.8649 72.1692 19.9781 72.0215 19.3603C71.8786 18.7234 70.345 18.5319 68.5655 18.4864C67.686 18.472 66.8663 18.4967 66.2405 18.6013C66.2816 17.9013 66.3375 17.2077 66.4157 16.5221C66.7533 16.7089 67.1803 16.8493 67.6644 16.9012C68.9714 17.0425 70.013 16.4678 69.9786 15.8285C69.9459 15.182 69.0177 14.7039 67.9138 14.5818C67.4581 14.5339 67.0351 14.5682 66.6643 14.6496C66.8247 13.7685 67.0299 12.9113 67.2649 12.0716C67.5223 12.3055 67.8412 12.5162 68.281 12.6207C69.5393 12.9161 70.511 12.2177 70.3865 11.5927C70.272 10.9518 69.5628 10.5392 68.8177 10.35C68.4877 10.2774 68.1485 10.2582 67.8344 10.2909C67.8612 10.2175 67.8791 10.1393 67.9062 10.0667C68.0886 9.62527 68.2806 9.19347 68.4805 8.77205C68.8964 9.15915 69.5732 9.51273 70.4304 9.64603C72.0578 9.90383 73.3337 9.21901 73.2467 8.58847C73.1661 7.94197 72.0594 7.54928 70.792 7.34176C70.2684 7.26354 69.7791 7.238 69.3445 7.25875C69.58 6.92752 69.831 6.61943 70.1171 6.36722C71.0713 5.50601 72.3847 5.17877 73.6813 5.34638C74.9747 5.51798 76.2154 6.09984 77.1832 6.92353C79.1083 8.61322 79.95 11.2447 80.2569 13.6631C80.5494 16.1063 80.432 18.5742 80.3706 20.801Z" fill="#50BD77"/>
<path id="Vector_2" d="M55.68 47.9302C55.0387 47.0889 54.4142 46.3275 53.8219 45.6523C51.9231 43.4941 50.4218 42.2138 49.7761 41.889C50.8596 40.7867 51.7679 39.6111 52.4623 38.413C54.7765 34.554 54.8579 30.6175 54.152 28.2733C53.4424 25.8948 52.4982 24.8692 52.3972 24.937C52.2216 25.0224 52.8757 26.2053 53.2652 28.4688C53.6447 30.6989 53.3231 34.1437 51.0595 37.5454C49.9645 39.2383 48.4312 40.8969 46.4825 42.2194C45.5191 42.8915 44.4432 43.4669 43.2847 43.8692C42.1486 44.3066 40.8915 44.5061 39.5653 44.5867C33.795 44.9612 28.0586 42.1407 25.6639 36.9021C24.4603 34.2076 24.1115 31.1283 24.7257 28.3914C25.2728 25.6202 26.735 23.1883 28.6039 21.3829C32.3864 17.6906 37.6514 16.8964 41.5048 17.713C45.4653 18.5901 48.2472 20.7004 49.8938 22.2744C51.5691 23.8803 52.2252 25.0384 52.3972 24.937C52.507 24.8891 52.1199 23.5554 50.5611 21.6582C49.0226 19.8033 46.2375 17.3099 41.8915 16.1095C39.7234 15.5093 37.1968 15.4486 34.6028 15.9666C32.0224 16.5229 29.3159 17.7337 27.1289 19.8193C24.9232 21.8586 23.1689 24.6736 22.4909 27.9125C21.7498 31.1299 22.1149 34.6753 23.5464 37.8799C24.0473 38.9789 24.6938 39.9878 25.4344 40.908C24.756 41.6623 23.6522 43.2243 22.3763 45.4886C21.4259 47.187 20.9158 48.2988 20.1698 49.8825C19.912 50.41 19.578 51.0015 19.3765 51.8132C19.2819 52.2187 19.2264 52.7103 19.3438 53.2451C19.4563 53.783 19.7692 54.2875 20.1379 54.6442C20.956 55.452 22.1229 55.5525 22.9191 55.4687C23.7523 55.3953 24.5042 55.1678 25.104 55.0481C25.6615 54.9316 26.2011 54.9699 26.419 55.1128C26.6077 55.2069 26.846 55.5725 27.0308 56.2166C27.2435 56.8296 27.3337 57.5822 27.9083 58.4945C28.5041 59.5441 30.221 59.952 31.2103 59.2336C32.1613 58.6007 32.473 57.8432 32.781 57.1712C33.0684 56.4473 33.1913 55.891 33.3757 55.3067C33.9937 53.181 33.7069 54.1909 34.7062 50.5904C35.1424 48.959 35.4684 47.6117 35.6799 46.5813C37.0456 46.7808 38.4084 46.8431 39.7202 46.7306C39.9656 46.717 40.2082 46.6867 40.4517 46.6595C40.4337 47.4018 40.838 49.3349 41.941 51.9832C42.2914 52.8173 42.716 53.716 43.2221 54.6554C43.7465 55.5494 44.2078 56.6795 45.476 57.6453C46.6597 58.5108 48.2997 58.5516 49.3379 57.7163C49.7777 57.3763 50.0686 56.9014 50.2306 56.4656C50.5503 55.5749 50.52 54.835 50.5655 54.2053C50.5938 53.5763 50.6561 53.0128 50.8161 52.6521C50.9785 52.2546 51.2658 52.0159 51.3983 52.0024C51.5368 51.9465 51.8708 52.0295 52.3769 52.3352C52.8917 52.6193 53.4045 53.0463 54.3339 53.3145C54.9026 53.4638 55.5332 53.4103 56.0268 53.1182C56.5245 52.834 56.88 52.3344 57.0437 51.8084C57.1909 51.3519 57.1993 50.8363 57.1019 50.4124C56.888 49.4353 56.2673 48.7275 55.68 47.9302ZM33.1386 50.078C32.4753 51.8539 31.686 53.9682 30.8092 56.3156C30.6009 56.7833 30.2613 57.243 30.0657 57.322C29.9731 57.3604 29.9903 57.3556 29.9288 57.3356C29.8638 57.3101 29.8925 57.3396 29.8011 57.2135C29.6251 56.9501 29.4627 56.2821 29.25 55.539C29.0393 54.8406 28.6829 53.7447 27.5699 53.0839C25.7505 52.1097 24.0538 53.0539 22.7016 53.194C22.1465 53.2547 21.826 53.1764 21.668 53.0248C21.47 52.8221 21.4142 52.7295 21.4776 52.2665C21.5558 51.834 21.7873 51.308 22.0311 50.7445C22.2981 50.1139 22.4649 49.6271 22.68 49.0923C23.103 48.0579 23.4973 47.0953 23.8573 46.2158C24.7744 44.0647 25.5175 42.4309 25.8894 41.446C27.2335 42.9617 28.8537 44.1877 30.5889 45.0297C31.9067 45.6826 33.2811 46.1152 34.6607 46.4017C34.2341 47.3435 33.7225 48.5775 33.1386 50.078ZM55.0028 51.1332C54.9709 51.1835 54.9294 51.1803 54.8962 51.1587C54.64 51.0861 54.1316 50.7469 53.5601 50.3797C53.0042 50.0405 52.068 49.4858 50.8867 49.7388C49.709 50.0198 49.0282 50.9089 48.6711 51.735C48.3019 52.6257 48.282 53.4231 48.2472 54.0991C48.2245 54.7751 48.2053 55.357 48.0872 55.6723C47.9619 55.9788 47.9184 56.0011 47.6303 56.0881C47.3401 56.1336 46.9905 56.0729 46.6912 55.8726C46.028 55.4647 45.4481 54.5261 44.8882 53.6721C44.3371 52.8213 43.8494 52.0087 43.4212 51.2553C42.1366 48.9837 41.3424 47.2741 40.8879 46.6116C43.4216 46.2453 45.8085 45.1678 47.6011 43.7974C48.2987 43.2881 48.9193 42.7334 49.5055 42.1627C49.9124 43.0846 51.8681 45.5715 54.0961 49.0404C54.3639 49.4666 54.6883 49.9431 54.8707 50.3167C55.063 50.7213 55.0806 50.9656 55.0028 51.1332Z" fill="#50BD77"/>
</g>
</svg>
