<svg width="41" height="41" viewBox="0 0 41 41" fill="none" xmlns="http://www.w3.org/2000/svg">
<g id="Arrows">
<path id="Vector" fill-rule="evenodd" clip-rule="evenodd" d="M39.3672 21.2885C39.3672 20.3002 38.566 19.499 37.5777 19.499H1.78892C0.800674 19.499 -0.000518799 20.3002 -0.000518799 21.2885C-0.000518799 22.2767 0.800674 23.0779 1.78892 23.0779H37.5777C38.566 23.0779 39.3672 22.2767 39.3672 21.2885Z" fill="#50BD77"/>
<path id="Vector_2" fill-rule="evenodd" clip-rule="evenodd" d="M17.8011 6.06574C17.3322 5.19578 16.2469 4.87068 15.3767 5.33961L16.2259 6.91479C15.3767 5.33961 15.3767 5.33961 15.3767 5.33961L15.372 5.34221L15.3619 5.34765L15.3264 5.36697L15.1964 5.43865C15.0842 5.50082 14.9222 5.59149 14.7175 5.70845C14.3086 5.94224 13.7281 6.28171 13.0328 6.70927C11.6461 7.56228 9.78723 8.77584 7.91905 10.2091C6.06185 11.6342 4.13737 13.3205 2.66072 15.1274C1.21915 16.8919 0.00161362 19.0164 0.00161362 21.2852C0.00161362 23.5547 1.21867 25.6803 2.66048 27.4457C4.13689 29.2535 6.06138 30.9408 7.91882 32.3664C9.78676 33.8003 11.6459 35.0143 13.0326 35.8677C13.7278 36.2955 14.3083 36.635 14.7173 36.8688C14.922 36.9858 15.084 37.0767 15.1961 37.1387L15.3261 37.2105L15.3617 37.2298L15.3717 37.2353L15.3748 37.237C15.3748 37.237 15.3767 37.2379 16.2259 35.6628L15.3748 37.237C16.2447 37.7058 17.332 37.3818 17.8008 36.5119C18.2699 35.6422 17.9452 34.5571 17.0755 34.0878L17.0691 34.0845L17.0426 34.0699L16.9314 34.0088C16.8321 33.9537 16.684 33.8707 16.4938 33.7621C16.1135 33.5445 15.5664 33.2246 14.9081 32.8197C13.5885 32.0075 11.8386 30.8637 10.0981 29.5276C8.34661 28.1831 6.66263 26.6881 5.43245 25.1819C4.16767 23.6334 3.5805 22.3131 3.5805 21.2852C3.5805 20.259 4.16743 18.9398 5.43221 17.3919C6.66215 15.8866 8.34637 14.3922 10.0976 13.0485C11.8384 11.7128 13.5882 10.5694 14.9079 9.75764C15.5662 9.35282 16.1133 9.03294 16.4936 8.81551C16.6837 8.70686 16.8319 8.62393 16.9312 8.56891L17.0423 8.50764L17.0688 8.49325L17.0746 8.49022M17.8011 6.06574C18.2699 6.93557 17.9442 8.02119 17.0746 8.49022L17.8011 6.06574Z" fill="#50BD77"/>
</g>
</svg>
