<svg width="24" height="25" viewBox="0 0 24 25" fill="none" xmlns="http://www.w3.org/2000/svg">
<g id="arrow-right">
<path id="Vector" fill-rule="evenodd" clip-rule="evenodd" d="M0 12.9615C0 12.3831 0.468977 11.9141 1.04748 11.9141H21.997C22.5755 11.9141 23.0445 12.3831 23.0445 12.9615C23.0445 13.54 22.5755 14.009 21.997 14.009H1.04748C0.468977 14.009 0 13.54 0 12.9615Z" fill="#50BD77"/>
<path id="Vector_2" fill-rule="evenodd" clip-rule="evenodd" d="M12.6256 4.05068C12.9 3.54143 13.5354 3.35113 14.0447 3.62562L13.5477 4.54768C14.0447 3.62562 14.0447 3.62562 14.0447 3.62562L14.0475 3.62715L14.0534 3.63033L14.0742 3.64164L14.1503 3.6836C14.2159 3.71999 14.3108 3.77307 14.4306 3.84153C14.67 3.97839 15.0098 4.1771 15.4168 4.42738C16.2285 4.9267 17.3166 5.63707 18.4102 6.47605C19.4973 7.31025 20.6239 8.29739 21.4882 9.35508C22.3321 10.3879 23.0448 11.6316 23.0448 12.9596C23.0448 14.2881 22.3324 15.5324 21.4884 16.5657C20.6241 17.624 19.4976 18.6117 18.4103 19.4462C17.3169 20.2855 16.2286 20.9962 15.4169 21.4957C15.0099 21.7461 14.6701 21.9449 14.4307 22.0818C14.3109 22.1502 14.2161 22.2034 14.1504 22.2397L14.0743 22.2818L14.0535 22.2931L14.0477 22.2963L14.0458 22.2973C14.0458 22.2973 14.0447 22.2978 13.5477 21.3758L14.0458 22.2973C13.5366 22.5717 12.9002 22.382 12.6257 21.8728C12.3512 21.3638 12.5412 20.7286 13.0503 20.4538L13.0541 20.4519L13.0696 20.4434L13.1347 20.4076C13.1928 20.3754 13.2795 20.3267 13.3908 20.2632C13.6134 20.1358 13.9337 19.9485 14.319 19.7115C15.0915 19.2361 16.1158 18.5666 17.1346 17.7844C18.1599 16.9974 19.1457 16.1223 19.8658 15.2406C20.6061 14.3342 20.9498 13.5613 20.9498 12.9596C20.9498 12.3589 20.6063 11.5867 19.8659 10.6806C19.1459 9.79947 18.1601 8.92472 17.1349 8.13813C16.1159 7.35629 15.0916 6.68697 14.3192 6.21179C13.9338 5.97482 13.6136 5.78758 13.391 5.6603C13.2796 5.5967 13.1929 5.54815 13.1348 5.51594L13.0697 5.48008L13.0542 5.47166L13.0509 5.46988M12.6256 4.05068C12.3512 4.55985 12.5418 5.19533 13.0509 5.46988L12.6256 4.05068Z" fill="#50BD77"/>
</g>
</svg>
