<svg width="41" height="41" viewBox="0 0 41 41" fill="none" xmlns="http://www.w3.org/2000/svg">
<g id="Arrows">
<path id="Vector" fill-rule="evenodd" clip-rule="evenodd" d="M0 21.2885C0 20.3002 0.801169 19.499 1.78944 19.499H37.5783C38.5665 19.499 39.3677 20.3002 39.3677 21.2885C39.3677 22.2767 38.5665 23.0779 37.5783 23.0779H1.78944C0.801169 23.0779 0 22.2767 0 21.2885Z" fill="#50BD77"/>
<path id="Vector_2" fill-rule="evenodd" clip-rule="evenodd" d="M21.5681 6.06574C22.0369 5.19578 23.1223 4.87068 23.9924 5.33961L23.1433 6.91479C23.9924 5.33961 23.9924 5.33961 23.9924 5.33961L23.9972 5.34221L24.0072 5.34765L24.0428 5.36697L24.1728 5.43865C24.2849 5.50082 24.4469 5.59149 24.6516 5.70845C25.0606 5.94224 25.6411 6.28171 26.3363 6.70927C27.723 7.56228 29.5819 8.77584 31.4501 10.2091C33.3073 11.6342 35.2318 13.3205 36.7084 15.1274C38.15 16.8919 39.3675 19.0164 39.3675 21.2852C39.3675 23.5547 38.1505 25.6803 36.7087 27.4457C35.2323 29.2535 33.3078 30.9408 31.4503 32.3664C29.5824 33.8003 27.7233 35.0143 26.3366 35.8677C25.6413 36.2955 25.0608 36.635 24.6519 36.8688C24.4472 36.9858 24.2852 37.0767 24.173 37.1387L24.043 37.2105L24.0074 37.2298L23.9974 37.2353L23.9943 37.237C23.9943 37.237 23.9924 37.2379 23.1433 35.6628L23.9943 37.237C23.1244 37.7058 22.0371 37.3818 21.5683 36.5119C21.0992 35.6422 21.424 34.5571 22.2936 34.0878L22.3001 34.0845L22.3266 34.0699L22.4377 34.0088C22.537 33.9537 22.6852 33.8707 22.8753 33.7621C23.2556 33.5445 23.8027 33.2246 24.461 32.8197C25.7807 32.0075 27.5305 30.8637 29.271 29.5276C31.0225 28.1831 32.7065 26.6881 33.9367 25.1819C35.2015 23.6334 35.7886 22.3131 35.7886 21.2852C35.7886 20.259 35.2017 18.9398 33.9369 17.3919C32.707 15.8866 31.0228 14.3922 29.2715 13.0485C27.5307 11.7128 25.7809 10.5694 24.4612 9.75764C23.803 9.35282 23.2559 9.03294 22.8756 8.81551C22.6854 8.70686 22.5372 8.62393 22.438 8.56891L22.3268 8.50764L22.3003 8.49325L22.2946 8.49022M21.5681 6.06574C21.0992 6.93557 21.4249 8.02119 22.2946 8.49022L21.5681 6.06574Z" fill="#50BD77"/>
</g>
</svg>
