<svg width="58" height="58" viewBox="0 0 58 58" fill="none" xmlns="http://www.w3.org/2000/svg">
<g id="arrow-right">
<rect x="-1.38095" y="1.38095" width="55.2381" height="55.2381" rx="27.619" transform="matrix(-1 0 0 1 55.2381 0)" fill="#50BD77"/>
<rect x="-1.38095" y="1.38095" width="55.2381" height="55.2381" rx="27.619" transform="matrix(-1 0 0 1 55.2381 0)" stroke="#50BD77" stroke-width="2.7619"/>
<path id="Vector" fill-rule="evenodd" clip-rule="evenodd" d="M37.2853 11.3052C36.7521 10.3159 35.5178 9.94612 34.5282 10.4794L35.4939 12.2708C34.5282 10.4794 34.5282 10.4794 34.5282 10.4794L34.5228 10.4824L34.5114 10.4886L34.4709 10.5105L34.3231 10.592C34.1955 10.6628 34.0113 10.7659 33.7785 10.8989C33.3134 11.1648 32.6532 11.5508 31.8626 12.0371C30.2855 13.0072 28.1715 14.3873 26.0469 16.0172C23.9348 17.6379 21.7462 19.5558 20.0669 21.6107C18.4274 23.6173 17.0428 26.0334 17.0428 28.6136C17.0428 31.1946 18.4269 33.612 20.0666 35.6196C21.7456 37.6756 23.9343 39.5945 26.0467 41.2157C28.171 42.8465 30.2853 44.2271 31.8623 45.1976C32.653 45.6842 33.3131 46.0703 33.7782 46.3362C34.011 46.4691 34.1953 46.5725 34.3228 46.6431L34.4707 46.7247L34.5111 46.7467L34.5225 46.753L34.526 46.7549C34.526 46.7549 34.5282 46.756 35.4939 44.9646L34.526 46.7549C35.5153 47.2881 36.7518 46.9196 37.285 45.9303C37.8185 44.9412 37.4492 43.7072 36.4601 43.1735L36.4528 43.1697L36.4227 43.1531L36.2963 43.0836C36.1834 43.021 36.0149 42.9265 35.7986 42.8031C35.3661 42.5556 34.7439 42.1917 33.9953 41.7313C32.4945 40.8076 30.5045 39.5068 28.5251 37.9873C26.5332 36.4583 24.618 34.7581 23.219 33.0451C21.7806 31.2841 21.1129 29.7826 21.1129 28.6136C21.1129 27.4466 21.7804 25.9463 23.2187 24.1859C24.6175 22.474 26.5329 20.7745 28.5245 19.2464C30.5042 17.7274 32.4942 16.427 33.995 15.5038C34.7436 15.0435 35.3658 14.6797 35.7983 14.4324C36.0146 14.3088 36.1831 14.2145 36.296 14.1519L36.4224 14.0823L36.4525 14.0659L36.4591 14.0625M37.2853 11.3052C37.8185 12.2944 37.4481 13.5291 36.4591 14.0625L37.2853 11.3052Z" fill="white"/>
</g>
</svg>
