<svg width="52" height="51" viewBox="0 0 52 51" fill="none" xmlns="http://www.w3.org/2000/svg">
<g id="arrow-right">
<rect x="1.88079" y="1.21429" width="48.5714" height="48.5714" rx="24.2857" fill="#50BD77"/>
<rect x="1.88079" y="1.21429" width="48.5714" height="48.5714" rx="24.2857" stroke="#50BD77" stroke-width="2.42857"/>
<path id="Vector" fill-rule="evenodd" clip-rule="evenodd" d="M18.8811 9.94074C19.3499 9.07078 20.4353 8.74568 21.3054 9.21461L20.4563 10.7898C21.3054 9.21461 21.3054 9.21461 21.3054 9.21461L21.3102 9.21721L21.3202 9.22265L21.3557 9.24197L21.4858 9.31365C21.5979 9.37582 21.7599 9.46649 21.9646 9.58345C22.3736 9.81724 22.9541 10.1567 23.6493 10.5843C25.036 11.4373 26.8949 12.6508 28.7631 14.0841C30.6203 15.5092 32.5448 17.1955 34.0214 19.0024C35.463 20.7669 36.6805 22.8914 36.6805 25.1602C36.6805 27.4297 35.4635 29.5553 34.0216 31.3207C32.5452 33.1285 30.6208 34.8158 28.7633 36.2414C26.8954 37.6753 25.0363 38.8893 23.6496 39.7427C22.9543 40.1705 22.3738 40.51 21.9649 40.7438C21.7602 40.8608 21.5982 40.9517 21.486 41.0137L21.356 41.0855L21.3204 41.1048L21.3104 41.1103L21.3073 41.112C21.3073 41.112 21.3054 41.1129 20.4563 39.5378L21.3073 41.112C20.4374 41.5808 19.3501 41.2568 18.8813 40.3869C18.4122 39.5172 18.737 38.4321 19.6066 37.9628L19.6131 37.9595L19.6395 37.9449L19.7507 37.8838C19.85 37.8287 19.9982 37.7457 20.1883 37.6371C20.5686 37.4195 21.1157 37.0996 21.774 36.6947C23.0936 35.8825 24.8435 34.7387 26.584 33.4026C28.3355 32.0581 30.0195 30.5631 31.2497 29.0569C32.5145 27.5084 33.1016 26.1881 33.1016 25.1602C33.1016 24.134 32.5147 22.8148 31.2499 21.2669C30.02 19.7616 28.3358 18.2672 26.5845 16.9235C24.8437 15.5878 23.0939 14.4444 21.7742 13.6326C21.116 13.2278 20.5689 12.9079 20.1886 12.6905C19.9984 12.5819 19.8502 12.4989 19.751 12.4439L19.6398 12.3826L19.6133 12.3682L19.6076 12.3652M18.8811 9.94074C18.4122 10.8106 18.7379 11.8962 19.6076 12.3652L18.8811 9.94074Z" fill="white"/>
</g>
</svg>
