<svg width="85" height="85" viewBox="0 0 85 85" fill="none" xmlns="http://www.w3.org/2000/svg">
<g id="bookmark">
<path id="Vector" d="M3.53831 39.048C5.1414 40.8554 7.19903 41.7338 9.06391 42.5104C9.8453 42.8288 10.6287 43.115 11.4117 43.3959C10.6514 43.8138 9.88641 44.2268 9.13974 44.6582C7.32514 45.7369 5.13461 46.7665 3.77815 49.0389C3.12407 50.1666 2.8954 51.5558 3.1081 52.8145C3.30405 54.0732 3.89269 55.2178 4.67727 56.1328C6.24644 57.9638 8.28971 58.9443 10.153 59.7616C10.7851 60.041 11.4173 60.2896 12.0494 60.5398C11.9037 61.7123 11.9269 62.7148 11.9592 63.4651C12.0402 64.6515 12.1999 65.294 12.3563 65.2976C12.5215 65.3016 12.6696 64.6543 12.8659 63.5126C13.081 62.3888 13.2853 60.6983 14.0472 58.9451C14.2339 58.5085 14.4774 58.0883 14.7635 57.6996C15.0505 57.2997 15.4028 56.9569 15.7472 56.7813C16.4321 56.3906 17.4784 56.5391 18.6453 57.024C19.3782 57.3214 19.9713 57.6396 21.4632 58.3856C21.5825 58.4435 21.5885 58.4471 21.5777 58.4435L21.5813 58.4507L21.5897 58.5018C21.6675 58.6398 21.5526 59.1255 21.1918 59.7584C20.8911 60.3146 20.5289 60.8866 20.3242 61.5387C20.278 61.6624 20.2484 61.836 20.2165 61.9841L20.1686 62.3026C19.8912 64.268 19.7153 66.1895 19.6279 68.0273C19.6255 68.236 19.6502 68.159 19.6542 68.2943C19.6111 68.3809 19.5796 68.3035 19.5173 68.2623L19.4662 68.2141C19.4758 68.234 19.4128 68.1406 19.3549 68.0556L19.1901 67.8142C18.9825 67.5105 18.7295 67.1294 18.435 66.8017C18.1373 66.4693 17.7929 66.1373 17.3088 65.8938C16.8399 65.6424 16.175 65.5534 15.6447 65.7314C14.5169 66.0686 14.0907 67.1789 13.9781 67.3688C13.9035 67.5596 13.8021 67.8158 13.6098 67.9846C13.4019 67.8717 13.2331 67.6621 13.1014 67.4171C13.0455 67.3237 12.9617 67.1058 12.9022 66.9047C12.8456 66.7048 12.7937 66.5228 12.7474 66.3596C12.5802 65.6891 12.4856 65.298 12.3563 65.2976C12.2378 65.2964 12.0901 65.6751 12.0378 66.4234C12.0275 66.611 12.0227 66.8217 12.0374 67.0555C12.0462 67.2846 12.0757 67.5304 12.1727 67.9231C12.3595 68.6794 12.7897 69.3478 13.4338 70.0674C14.028 69.6934 14.5987 69.3303 15.1462 68.4419L15.349 68.1247L15.4755 67.9431C15.5557 67.8333 15.6355 67.736 15.7125 67.651C15.8722 67.4818 15.9923 67.4299 16.0992 67.4171C16.2832 67.372 16.5725 67.5249 16.9624 68.0277C17.1492 68.2699 17.3028 68.5353 17.5112 68.8857C17.822 69.3933 18.1389 69.9109 18.4614 70.4377C18.6629 70.753 18.864 71.1277 19.0855 71.362C19.3042 71.6038 19.5133 71.7463 19.6913 71.8401C19.8641 71.9299 20.0273 71.9901 20.2544 72.0101C20.4643 72.0408 20.8319 71.951 21.0115 71.8249C21.193 71.7199 21.28 71.613 21.4117 71.4306C21.5494 71.332 21.6284 70.9701 21.721 70.6572C21.8196 69.9329 21.8232 68.849 21.8858 68.1638C21.9852 66.8021 22.136 65.3846 22.3156 63.9455C27.5435 65.5395 32.5663 66.9937 37.3532 68.4415C38.9878 68.8993 40.802 69.6511 42.8453 69.2916C44.8068 68.8829 46.1963 68.0329 47.7001 67.4283C50.6752 66.1041 53.5521 64.8455 56.2818 63.5868C58.9955 62.3117 61.5616 61.0367 63.9321 59.7129C64.136 59.6047 73.4273 54.6849 73.658 54.5637C74.5898 54.0245 75.5703 53.73 76.5349 53.3377C76.6435 53.2938 76.7468 53.2487 76.8546 53.2048C77.0621 53.2639 77.2532 53.2583 77.4025 53.1645C77.4975 53.105 77.5498 52.9949 77.608 52.8919C79.091 52.2654 80.4638 51.6037 81.5856 50.7058C82.2561 50.1503 82.9097 49.4148 82.9752 48.4829C83.057 48.0252 82.8607 47.5838 82.7302 47.2406C82.5665 46.9138 82.387 46.6193 82.1906 46.3415C81.4551 45.2464 80.7196 44.4619 80.4087 43.6773C80.1473 43.0559 80.0819 42.484 80.0655 42.0754C80.2946 41.9445 80.5233 41.8136 80.7523 41.6667C81.226 41.3235 81.7001 41.029 82.1579 40.3099C82.6811 39.5416 82.6156 38.4139 81.9456 37.727C81.2751 37.0406 80.7523 36.9097 80.1964 36.6647C79.2303 36.3574 78.413 36.1499 77.5262 35.8993C78.563 35.4731 79.5364 35.0157 80.4004 34.4674C81.1087 33.9829 81.8079 33.4314 82.1403 32.5858C82.3075 32.1823 82.3071 31.6723 82.1479 31.2991C82.0274 30.8737 81.8247 30.6434 81.6483 30.3461C80.8984 29.2487 80.1078 28.5283 79.7447 27.7885C79.4318 27.1906 79.3536 26.6491 79.3416 26.2329C79.4617 26.1746 79.5818 26.1219 79.7 26.0577C80.2064 25.7548 80.6206 25.5461 81.2009 24.9083C81.8063 24.2455 82.025 23.1799 81.4715 22.4241C81.3422 22.2361 81.1981 22.0585 81.0042 21.9212C80.8186 21.7644 80.6406 21.6187 80.4981 21.5565C80.1745 21.3653 79.9111 21.2767 79.6321 21.1646C78.5235 20.8102 77.6695 20.6406 76.667 20.3672C70.1201 18.6853 72.8787 19.3922 58.6774 15.7551C56.5843 15.2447 54.6368 14.696 52.5225 14.0479C50.4273 13.4521 48.1534 12.8495 45.7111 13.0103C43.3533 13.1551 41.0978 13.7925 38.9579 14.5579C36.8145 15.3365 34.7616 16.1909 32.6621 17.0437C24.3042 20.4926 16.2972 24.2291 8.73468 28.1656C6.9113 29.1685 4.793 30.0017 3.16797 31.9544C2.35146 32.9493 1.89092 34.3405 2.0278 35.6546C2.14753 36.9724 2.75133 38.1393 3.53831 39.048ZM22.6968 61.8751C22.7019 61.864 22.7035 61.8564 22.7091 61.8448C23.0385 61.1588 23.5264 60.4713 23.7798 59.5597C23.9231 59.0585 23.9754 58.3888 23.7551 57.7706C23.6685 57.4785 23.4562 57.1166 23.2259 56.854C23.099 56.7235 22.9526 56.6141 22.7949 56.5239C22.6253 56.4266 22.4605 56.3591 22.4142 56.3364C22.0878 56.1843 21.7645 56.0339 21.4444 55.885C20.0985 55.2525 18.6241 54.5894 17.14 54.525C16.3395 54.4835 15.4539 54.6694 14.7607 55.1172C14.0528 55.5717 13.6042 56.1476 13.2706 56.6939C12.9286 57.2514 12.6775 57.8137 12.5071 58.3553C12.5055 58.3601 12.5051 58.3645 12.5035 58.3697C12.0199 58.1733 11.5358 57.9826 11.0521 57.7675C9.23791 56.9665 7.50512 56.051 6.37733 54.6946C5.26551 53.3868 4.88958 51.5399 5.73961 50.1503C6.14826 49.4475 6.78599 48.8425 7.55421 48.3034C7.4724 48.4011 7.43967 48.4666 7.43967 48.4829C7.4724 48.5648 8.25698 47.862 9.95705 48.3034C11.6244 48.7447 14.1418 49.4639 17.2965 50.5099C20.4511 51.5558 24.2763 52.9454 28.5915 54.8578C30.7657 55.8224 33.0212 56.9178 35.4245 58.1438C36.6337 58.7484 37.9251 59.3857 39.4128 59.7616C39.9803 59.9133 40.5937 59.9851 41.2159 60.0103C41.2015 60.0294 41.1879 60.0406 41.174 60.0601C40.5702 60.8886 40.023 62.2579 39.9456 63.8378C39.8806 65.2318 40.2022 66.4741 40.636 67.3584C39.7824 67.1856 38.8801 66.8883 37.9251 66.5946C33.1019 65.0681 27.9725 63.5233 22.6968 61.8751ZM81.6024 46.7174C81.9128 47.257 82.2724 47.862 82.1742 48.4011C82.1088 48.9734 81.6347 49.5293 81.0137 49.9867C80.117 50.6619 78.9737 51.1947 77.7142 51.6943C77.6539 51.3288 77.5569 50.9417 77.3917 50.5394C76.9132 49.394 76.1749 48.5288 75.5432 48.6753C74.9194 48.817 74.6784 50.088 75.2367 51.4317C75.3939 51.8124 75.5939 52.1369 75.8102 52.4091C74.9562 52.7096 74.0199 53.0045 73.1348 53.4686C72.5122 53.7747 71.8537 54.1051 71.206 54.428C71.206 54.1227 71.1673 53.7986 71.0396 53.463C70.6709 52.4941 69.8835 51.8942 69.2817 52.1233C68.6795 52.3524 68.4907 53.3241 68.8599 54.2931C69.0163 54.7037 69.2546 55.0262 69.5152 55.2688C68.3626 55.8439 67.1634 56.4413 65.9267 57.0571C65.888 56.8675 65.8413 56.6752 65.7678 56.4828C65.4107 55.5709 64.7466 54.8857 64.1105 55.0066C63.4807 55.1236 63.1531 56.1923 63.5925 57.3245C63.6966 57.5939 63.8335 57.8265 63.9844 58.0276C63.7286 58.1558 63.4875 58.2751 63.2289 58.4052C62.4866 58.7991 61.6965 59.1822 60.9195 59.5685C60.8931 59.2193 60.8261 58.8481 60.668 58.4606C60.2087 57.3353 59.3527 56.6205 58.7565 56.8639C58.1602 57.1074 58.0489 58.2172 58.5086 59.3422C58.6894 59.7852 58.9388 60.1364 59.2022 60.4185C58.0321 60.9764 56.8357 61.5303 55.5954 62.0831C55.4501 62.1477 55.2929 62.2124 55.1468 62.277C55.2721 61.9641 55.314 61.5922 55.2737 61.2262C55.1791 60.4923 54.7581 59.8115 54.118 59.7058C53.4883 59.596 52.8266 60.4061 52.9575 61.5028C53.0381 62.178 53.3905 62.643 53.782 62.8672C52.6833 63.3429 51.5719 63.8246 50.4258 64.3079C50.5211 63.9072 50.5355 63.4279 50.4222 62.9279C50.1751 61.8384 49.456 61.0339 48.8191 61.1305C48.1821 61.227 47.88 62.2626 48.147 63.4431C48.2955 64.0968 48.5836 64.6268 48.9149 64.9452C48.2679 65.2174 47.6394 65.482 46.9809 65.7609C45.4772 66.3655 43.9244 67.2156 42.5348 67.4446C42.4889 67.4534 42.4386 67.4446 42.3924 67.4514C42.3369 66.5559 42.1904 65.3248 42.2758 63.9491C42.3321 62.263 42.7136 60.8204 42.7942 59.9328C43.2623 59.861 43.7253 59.7592 44.1694 59.5984C45.7059 59.0589 47.03 58.2906 48.436 57.6206C55.9146 53.8812 57.6353 53.0452 61.8234 50.9512C64.9781 49.3984 68.1982 47.6984 71.582 46.1128C73.2657 45.3119 74.9657 44.5109 76.6985 43.6773C77.5645 43.2686 78.4473 42.86 79.3137 42.4349C79.4609 42.3695 79.6078 42.2877 79.7714 42.2222C79.7223 42.6473 79.7551 43.2032 79.9678 43.8569C80.2455 44.756 80.981 45.6551 81.6024 46.7174ZM80.2946 39.133C80.311 39.1494 80.3269 39.1821 80.2946 39.2475C79.6896 40.0976 77.434 40.9308 75.7994 41.7809C74.0666 42.6309 72.3502 43.4646 70.6665 44.2819C67.2668 45.9165 64.0789 47.6329 60.9406 49.2184C54.3102 52.6553 54.4223 52.5787 47.6514 56.0837C46.2618 56.7869 44.9049 57.5715 43.6299 58.0292C41.0802 59.0425 38.4319 57.9638 36.0782 56.8196C33.659 55.6264 31.3212 54.5637 29.1147 53.6646C24.7013 51.8503 20.7944 50.5589 17.5578 49.6435C14.3213 48.728 11.804 48.1561 10.0385 47.8452C9.13974 47.7147 8.40384 47.8129 7.97923 48.0252C7.89741 48.0579 7.83197 48.107 7.78288 48.1397C8.53474 47.6166 9.40113 47.1425 10.2675 46.652C11.6092 45.8941 12.988 45.1419 14.3676 44.3908C14.4902 44.4295 14.6139 44.4742 14.7364 44.5121C22.2873 46.7398 29.4236 48.5827 36.1261 50.4424C37.7734 50.8447 39.4552 51.5291 41.4617 51.3802C43.4439 51.1647 44.9001 50.3199 46.3891 49.77C51.74 47.5926 57.4784 45.3487 62.6658 42.7043C65.7964 41.1763 69.4157 39.4101 72.4412 37.9314C72.9855 37.6404 73.5067 37.4182 74.0295 37.2154C77.121 38.0649 78.4502 38.4023 79.4773 38.7243C79.8369 38.8389 80.2782 39.0675 80.2946 39.133ZM9.78504 30.1949C12.387 28.8524 15.0588 27.5422 17.7606 26.248C17.7506 26.2935 17.7342 26.3386 17.7366 26.3853C17.7614 27.0358 18.5867 27.5331 19.5261 27.8304C20.4711 28.1089 21.4333 28.1584 21.8176 27.6332C22.2019 27.1248 21.5642 26.0142 20.2081 25.5995C19.9252 25.5129 19.6554 25.4774 19.3992 25.4678C20.5254 24.9367 21.656 24.4087 22.7977 23.8867C23.3987 24.3776 24.2771 24.9415 25.2381 25.5516C27.0914 26.7006 28.6769 27.6731 29.1626 27.2321C29.6395 26.8175 28.633 24.9223 26.478 23.5758C26.0003 23.2745 25.5258 23.0454 25.0701 22.8639C26.383 22.2764 27.7024 21.6942 29.0345 21.1199C29.5784 21.4787 30.3155 21.8698 31.0821 22.3251C32.6537 23.2127 33.9411 24.1301 34.4795 23.7522C35.0122 23.4138 34.3063 21.4926 32.251 20.3066C32.0491 20.1893 31.8484 20.0979 31.6488 20.0089C32.2858 19.7415 32.9103 19.4645 33.5512 19.2003C34.426 18.8571 35.2952 18.4996 36.162 18.1456C36.5826 18.5411 37.1665 18.9593 37.8253 19.3616C39.2412 20.2108 40.5821 20.7476 41.0271 20.2723C41.4665 19.8113 40.6791 18.3587 39.0325 17.3658C38.9036 17.2876 38.7755 17.2257 38.647 17.1591C40.0841 16.6099 41.5136 16.1227 42.9407 15.7851C43.3362 16.2025 43.94 16.6423 44.6439 17.0326C46.0399 17.7988 47.3948 18.1344 47.7751 17.6092C48.1047 17.1579 47.4997 16.141 46.3181 15.3281C48.1351 15.2854 50.0051 15.7292 51.884 16.2635C53.9009 16.8781 56.0795 17.4839 58.1155 17.97C74.2452 22.0227 67.8886 20.4267 76.1167 22.4883C77.0441 22.7318 78.1392 22.968 78.913 23.2131C79.0914 23.2865 79.2969 23.3555 79.3971 23.419C79.5539 23.5004 79.4677 23.4569 79.5112 23.4872C79.5352 23.5195 79.5384 23.5503 79.4929 23.5982C79.4186 23.6836 79.0016 24.0108 78.6684 24.1848C78.298 24.3887 77.9145 24.5504 77.4552 24.7575C66.4982 29.6537 70.2085 27.89 46.5675 39.1222C45.1623 39.7711 43.821 40.4962 42.5368 40.8813C39.9751 41.7106 37.35 40.6575 34.9699 39.6019C28.8747 36.8716 22.7503 34.6958 16.4775 33.0726C13.2622 32.2477 10.7612 31.7285 9.01243 31.4576C8.27055 31.3642 7.65677 31.422 7.22258 31.5609C8.02552 31.0936 8.90508 30.6562 9.78504 30.1949ZM4.93188 33.3663C5.32258 32.8795 5.85415 32.4656 6.43281 32.0737C6.43321 32.0741 6.43081 32.0781 6.43121 32.0785C6.46393 32.1488 7.24852 31.5158 8.9386 31.9217C10.5976 32.3299 13.0886 32.996 16.2313 33.9466C22.7704 35.9369 28.6299 38.2373 34.3562 40.9528C35.5686 41.5163 36.8592 42.1033 38.3138 42.4737C38.8366 42.6129 39.3993 42.6932 39.972 42.739C39.5042 43.5109 39.3913 44.5864 39.4759 45.4643C39.4775 45.4847 39.4819 45.5026 39.4835 45.5226C36.6564 44.157 30.5446 41.808 23.358 39.3796C13.3256 35.9895 5.01768 33.7335 4.80138 34.3405C4.58508 34.9471 12.5586 38.1928 22.6109 41.5897C30.2074 44.1566 36.8017 46.0697 39.6579 46.5877C40.0462 48.2415 40.9082 49.2875 41.3959 49.0927C42.0048 48.8629 41.9398 47.2007 41.8017 45.2836C41.7099 44.248 41.6349 43.6142 41.668 43.1693C41.6401 43.0068 41.6708 42.8616 41.7111 42.7223C42.1433 42.6708 42.5735 42.5914 42.9934 42.4661C44.5494 42.0199 45.8883 41.3048 47.2962 40.6874C52.9417 38.1123 49.3148 39.7691 60.7375 34.5452C63.8978 33.1181 67.1434 31.5609 70.526 30.0999C76.2467 27.6059 78.5774 26.5911 79.0455 26.3777C79.0156 26.8059 79.0587 27.3626 79.3193 27.9888C79.6645 28.8576 80.4419 29.6737 81.0608 30.7153C81.3817 31.266 81.6283 31.7916 81.3913 32.2988C81.1654 32.82 80.5807 33.2961 79.9191 33.6976C78.5514 34.4877 76.8362 35.0924 74.9342 35.7001C74.0064 35.9879 72.9113 36.3431 71.9487 36.8267C68.2294 38.5171 70.1639 37.6311 62.0077 41.3746C59.6324 42.5212 57.0656 43.6242 54.3403 44.726C51.5954 45.8 48.7197 46.9254 45.723 48.0974C44.2054 48.6557 42.6933 49.4168 41.3097 49.5174C39.9328 49.6319 38.3337 49.0373 36.6457 48.5791C29.9943 46.6472 22.7841 44.7069 15.3809 42.4617C13.5415 41.8762 11.7034 41.2337 9.89639 40.4835C8.10334 39.7424 6.34301 38.8955 5.2272 37.595C4.1034 36.3223 3.89229 34.5851 4.93188 33.3663Z" fill="#50BD77"/>
<path id="Vector_2" d="M71.0145 34.3945C74.6126 32.6091 77.4324 30.6296 78.3463 29.5869L77.9656 28.8657C77.9548 28.8761 77.9528 28.8829 77.9428 28.8933L77.9365 28.8813C76.5796 29.157 73.5067 30.5538 69.9749 32.3066C65.4406 34.5725 61.8186 36.5902 62.0624 37.196C62.2979 37.7863 66.3868 36.7068 71.0145 34.3945Z" fill="#50BD77"/>
</g>
</svg>
