<svg width="24" height="24" viewBox="0 0 24 24" fill="none" xmlns="http://www.w3.org/2000/svg">
<g id="building-block">
<path id="Vector" d="M2.44538 16.581C2.44538 17.0943 2.76476 17.5658 3.24226 17.7552L10.9751 20.7346C11.2398 20.8393 11.5287 20.785 11.7338 20.6055C11.7352 20.6043 11.7364 20.6027 11.7378 20.6014C12.172 20.4101 13.8746 19.6111 20.9885 16.2733C21.4138 16.0527 21.6779 15.6191 21.6779 15.1418C21.6819 9.2589 21.6621 8.48869 21.6869 8.13256C21.7221 7.64311 21.6572 7.22992 21.0835 7.07443L18.4816 6.36806V5.93318C18.4816 5.26209 17.5179 4.75599 16.2401 4.75599C15.4506 4.75599 14.7819 4.94955 14.3855 5.25551L13.8179 5.1007V4.38959C13.8179 3.71849 12.8541 3.2124 11.576 3.2124C10.2982 3.2124 9.33476 3.71849 9.33476 4.38959V5.63029L8.40943 5.99521C8.00593 5.72482 7.37573 5.55646 6.64007 5.55646C5.36226 5.55646 4.39882 6.06256 4.39882 6.73365V7.57802C3.26561 8.02028 3.44895 7.95381 2.62288 8.27881C2.35493 8.37687 2.29469 8.51225 2.30847 8.70115L2.44538 16.581ZM11.1498 20.2876L3.41695 17.3082C3.12288 17.1916 2.92538 16.8993 2.92538 16.5768L2.79663 9.15724C2.88841 9.18905 2.49143 9.04631 11.4957 11.8477C11.5005 15.0386 11.5037 17.1366 11.5082 20.0443C11.5082 20.2279 11.3279 20.3577 11.1498 20.2876ZM21.2082 8.09834C21.1878 8.38456 21.2032 7.78347 21.1979 15.1418C21.1979 15.4391 21.0329 15.7094 20.776 15.8429C20.6969 15.8801 13.9232 19.0582 11.9882 19.9641L11.9757 11.8241L21.1222 7.62367C21.1229 7.62414 21.1235 7.62459 21.1235 7.62459C21.2248 7.70115 21.2269 7.83396 21.2082 8.09834ZM17.576 6.36849C16.8885 6.70193 15.5926 6.70209 14.9048 6.36865C13.825 5.84393 15.0194 5.23599 16.2401 5.23599C17.4594 5.23599 18.6553 5.84405 17.576 6.36849ZM11.576 3.6924C12.7963 3.6924 13.9916 4.30073 12.9119 4.82474C12.2248 5.15818 10.9288 5.15881 10.2404 4.82474C9.16216 4.30143 10.3533 3.6924 11.576 3.6924ZM6.64007 6.03646C7.85937 6.03646 9.05525 6.64452 7.97601 7.16896C7.28882 7.50224 5.99257 7.5024 5.30476 7.16912C4.22498 6.6444 5.41942 6.03646 6.64007 6.03646ZM4.40382 8.09095C4.45599 8.73418 5.3982 9.21287 6.64007 9.21287C7.91788 9.21287 8.88163 8.70662 8.88163 8.03521V6.73365C8.88163 6.604 8.84486 6.48074 8.77759 6.36586L9.46275 6.09492C9.7632 6.55511 10.5712 6.86881 11.576 6.86881C12.8541 6.86881 13.8179 6.36256 13.8179 5.69115V5.59814L14.0553 5.66295C14.0195 5.74933 13.9988 5.83941 13.9988 5.93318V7.23474C13.9988 7.90615 14.9623 8.4124 16.2401 8.4124C17.5179 8.4124 18.4816 7.90615 18.4816 7.23474V6.86533L20.4554 7.40129L11.719 11.4132C11.6848 11.4026 2.94433 8.69531 2.90859 8.68209C3.4495 8.46956 3.45127 8.46428 4.40382 8.09095Z" fill="#192F59"/>
<path id="Vector_2" d="M11.5748 10.7697C12.853 10.7697 13.8167 10.2634 13.8167 9.59203V8.29047C13.8167 7.61937 12.853 7.11328 11.5748 7.11328C10.297 7.11328 9.33359 7.61937 9.33359 8.29047V9.59203C9.33359 10.2634 10.297 10.7697 11.5748 10.7697ZM11.5748 7.59328C12.7952 7.59328 13.9905 8.20161 12.9108 8.72562C12.2236 9.05922 10.9277 9.05953 10.2392 8.72562C9.161 8.20231 10.3521 7.59328 11.5748 7.59328ZM4.04078 12.2491C3.90828 12.2491 3.80078 12.3566 3.80078 12.4891V15.4556C3.80078 15.5881 3.90828 15.6956 4.04078 15.6956C4.17328 15.6956 4.28078 15.5881 4.28078 15.4556V12.4891C4.28078 12.3566 4.17328 12.2491 4.04078 12.2491ZM4.04078 10.7163C3.90828 10.7163 3.80078 10.8238 3.80078 10.9563V11.275C3.80078 11.4075 3.90828 11.515 4.04078 11.515C4.17328 11.515 4.28078 11.4075 4.28078 11.275V10.9563C4.28078 10.8238 4.17328 10.7163 4.04078 10.7163ZM18.8273 15.4089L15.8577 16.837C15.7383 16.8944 15.688 17.0378 15.7455 17.1573C15.803 17.2772 15.947 17.3267 16.0658 17.2695L19.0355 15.8414C19.1548 15.7841 19.2052 15.6406 19.1477 15.5211C19.0905 15.4019 18.947 15.3513 18.8273 15.4089ZM20.0117 14.8392L19.797 14.9425C19.6777 15 19.6273 15.1433 19.6848 15.2628C19.7424 15.3827 19.8864 15.4322 20.0052 15.375L20.2198 15.2717C20.3392 15.2142 20.3895 15.0709 20.332 14.9514C20.2745 14.832 20.1311 14.7817 20.0117 14.8392Z" fill="#192F59"/>
</g>
</svg>
