<svg width="80" height="80" viewBox="0 0 80 80" fill="none" xmlns="http://www.w3.org/2000/svg">
<g id="business-skills">
<path id="Vector" d="M74.1425 51.9583C72.4814 51.1131 74.455 51.3923 64.6067 51.2715C64.4837 50.0248 64.9614 48.5855 63.704 47.6746C63.4105 47.461 64.2067 47.5576 52.3146 47.2134C51.1478 47.2134 50.1954 48.0851 50.0957 49.2942L50.0671 51.5266C48.4346 51.584 47.0497 51.5576 45.8278 51.5478C45.618 50.6089 47.2195 43.2565 40.4157 40.787C42.2059 36.8459 42.4535 36.5259 44.0459 33.0663C45.2361 30.4761 48.0912 32.9712 49.9765 35.1206C50.2799 35.4663 50.8648 35.4738 51.1591 35.0602C54.9478 29.7297 58.449 23.0406 62.1441 14.0746C65.9018 16.1108 64.8716 16.1787 65.5659 7.90099C65.5747 7.76307 65.5454 7.6254 65.4813 7.50296C65.4173 7.38051 65.3208 7.27799 65.2025 7.20655C65.0842 7.13511 64.9486 7.09748 64.8104 7.09776C64.6722 7.09805 64.5368 7.13623 64.4188 7.20816C58.6641 10.8912 58.2037 10.6761 58.2188 11.4474C58.2339 12.1734 58.9584 12.1719 60.818 13.3312C57.3184 21.8444 54.0082 28.2731 50.4671 33.4165C49.1999 32.0761 48.0897 31.2353 46.941 30.7349C45.338 30.0368 43.4248 30.8014 42.6739 32.4353C41.0663 35.9334 40.8203 36.2391 38.9342 40.4006C37.6376 40.1893 37.2165 40.3206 32.0135 40.2904C31.3546 37.978 31.1924 35.8316 31.4973 33.4391C36.449 29.9183 38.1516 21.0134 36.3237 14.8783C38.1154 9.42325 35.0633 5.89419 31.0671 5.89419C29.6497 4.27155 26.9116 3.23004 23.8822 4.06023C17.5622 5.79155 14.5116 10.1493 14.815 17.0157C14.8376 17.5334 15.3863 18.0406 16.1984 17.467C15.7456 19.9931 15.3893 22.5817 15.6761 25.2066C16.0746 28.8368 17.7448 31.858 20.2595 33.4934C20.3757 33.5689 20.4957 33.6353 20.6142 33.7048C20.9599 36.2934 20.3856 38.0934 19.1916 40.3221L19.1795 40.3206C17.1139 40.3206 15.1591 40.3206 13.4112 40.3282C8.90707 40.344 5.24367 43.9976 5.20518 48.4897C4.31235 52.5485 4.73726 57.4119 5.21273 61.2142C5.22778 61.6244 5.397 62.0138 5.68661 62.3046C5.97621 62.5955 6.36488 62.7664 6.77499 62.7832C12.8105 63.7493 18.7742 63.9214 24.6769 62.7704C24.7742 62.7514 24.8667 62.7135 24.9494 62.6587C25.032 62.604 25.103 62.5335 25.1583 62.4513C25.2137 62.3691 25.2523 62.2767 25.272 62.1796C25.2917 62.0825 25.2921 61.9824 25.2731 61.8851C24.892 59.9365 21.5025 63.6225 6.96367 61.2844C6.85424 61.2655 6.72216 61.2648 6.72216 61.1591C6.72221 61.1278 6.72019 61.0965 6.71613 61.0655C5.55386 51.8006 6.71462 49.1802 6.71462 48.5719C6.70707 44.8716 9.71386 41.8504 13.4165 41.8376C15.0263 41.83 16.8105 41.83 18.695 41.83C25.0874 55.3666 24.901 56.6632 26.0965 55.8376C26.4527 55.5938 26.0474 56.1682 31.9274 41.7999C36.0731 42.1108 39.4037 40.8195 42.3425 43.747C45.0837 46.4791 44.1214 49.7085 44.3184 51.538C43.049 51.5319 41.9184 51.3387 40.8776 52.0708C39.1418 53.4119 39.701 54.8761 39.5357 56.1848C39.5056 57.2036 41.015 57.1915 41.0444 56.23C41.1056 54.4806 41.0746 54.4565 41.1403 54.1923C47.8376 69.7281 44.6082 66.0421 55.0973 66.6149C55.0618 67.3644 54.9425 67.9659 55.5116 68.5681C55.8233 68.8987 56.2618 69.0882 56.7154 69.0882C58.4573 68.9848 59.3214 69.3749 60.0829 68.5795C60.7554 67.8753 60.4852 67.0731 60.5191 66.6346C71.1448 66.6044 67.2195 68.4799 73.8105 54.1614C73.8588 54.504 73.5124 66.8232 73.4052 72.2972C73.398 72.6999 73.2325 73.0836 72.9445 73.3652C72.6565 73.6467 72.2691 73.8034 71.8663 73.8014C70.1954 73.8014 68.2059 75.8565 42.3893 73.8014C42.17 73.8012 41.9533 73.7544 41.7534 73.6641C41.5535 73.5738 41.3752 73.4421 41.2301 73.2776C42.9041 71.1961 43.6112 71.944 41.3184 69.621C41.4761 69.2565 41.6142 68.8738 41.7335 68.4783C43.7863 67.6331 44.4263 67.5425 44.2988 66.7848C43.7931 63.7832 45.1667 63.5968 42.0173 63.5666C41.9072 62.9558 41.7271 62.3597 41.4807 61.79C41.6037 61.4912 41.7222 61.2089 41.8339 60.941C41.8807 60.7191 42.4874 59.9312 41.818 59.4542C39.4399 57.7583 40.0761 56.6783 38.2859 58.4368C37.6333 58.0782 36.9275 57.826 36.1954 57.6897C35.8444 57.0678 35.7818 55.8723 34.8716 56.0217C31.8346 56.5583 31.689 55.0859 31.6565 58.3387C31.2354 58.5433 30.8218 58.787 30.4218 59.0678C26.8233 57.5734 28.6391 57.9485 25.9229 60.2678C25.1003 60.9682 26.2505 61.7417 27.2429 62.7568C27.0356 63.1692 26.8583 63.5959 26.7124 64.0338C25.458 64.4565 23.9388 64.4014 24.1124 65.4414C24.6256 68.5244 23.218 68.6398 26.4241 68.6632C26.5516 69.2248 26.741 69.7727 26.9908 70.301C25.6822 73.4519 26.1931 71.8263 28.3569 74.3938C28.424 74.4742 28.5072 74.5398 28.6012 74.5862C28.6951 74.6325 28.7977 74.6588 28.9024 74.6632C29.0071 74.6676 29.1115 74.6501 29.209 74.6117C29.3065 74.5734 29.3949 74.5151 29.4686 74.4406C29.6641 74.2451 29.9342 73.978 30.2233 73.6934C30.8376 74.0225 31.489 74.27 32.1705 74.4308C32.621 75.2897 32.6369 76.3485 33.5335 76.2074C35.5901 75.8648 36.0097 76.3538 36.4882 75.9199C36.8067 75.6323 36.7441 75.3463 36.7501 74.2036C37.3358 73.9869 37.8901 73.6933 38.3984 73.3304C39.3735 73.7372 39.4769 73.7795 39.8369 73.9319C40.7788 75.3734 42.2542 75.2881 42.3297 75.3085C48.6618 75.8142 55.0278 76.2323 60.6263 76.2316C64.9984 76.2316 68.9033 75.9765 71.9546 75.3093C72.7374 75.2913 73.4828 74.9709 74.0346 74.4155C74.5864 73.86 74.9018 73.1125 74.9146 72.3297C75.2867 53.2882 75.8656 53.2685 74.1425 51.9583ZM63.9652 9.25646L63.7071 13.221L60.4648 11.4029L63.9652 9.25646ZM28.4527 46.3455L26.5629 44.0685L30.1373 42.1946L28.4527 46.3455ZM25.4927 45.1425L27.8082 47.9327L25.6256 53.3116L23.4746 48.6263L25.4927 45.1425ZM22.7041 46.9463L20.4686 42.0783L20.2588 41.6195L24.4203 43.9832L22.7041 46.9463ZM24.2807 5.51684C25.5274 5.1757 26.9048 5.17117 28.1078 5.66551C30.2361 6.54099 29.9584 7.52589 30.8241 7.4157C33.6905 7.14099 36.3146 9.61646 34.9931 14.0949C30.9214 13.9168 31.7742 11.9848 30.3795 11.9131C30.1846 11.9011 29.9901 11.9409 29.8155 12.0284C29.641 12.1159 29.4927 12.2479 29.3856 12.4112C27.2618 15.498 21.2331 12.8021 16.3101 15.6014C16.4595 10.2466 19.0784 6.94099 24.2807 5.51684ZM17.1773 25.0429C16.8663 22.2006 17.384 19.3032 17.9124 16.4919C21.9252 14.7176 27.4316 16.8542 30.2957 13.6874C31.3878 15.1289 33.1471 15.5259 34.9607 15.6021C36.6973 21.9999 34.4022 29.2195 30.9282 31.9893C28.3124 34.0753 24.0799 34.178 21.0829 32.2285C18.9493 30.8406 17.5252 28.2217 17.1773 25.0429ZM25.9297 35.1508C27.3033 35.1508 28.6595 34.8814 29.8897 34.3493C29.7388 36.3938 29.9207 38.307 30.4557 40.3229L25.5554 42.8919L20.9199 40.2595C21.8369 38.3885 22.3357 36.6565 22.2074 34.4738C23.4044 34.9244 24.6731 35.1508 25.9297 35.1508ZM35.7916 72.9304C35.1003 73.1266 35.2452 73.83 35.2376 74.5682C34.7893 74.5606 34.335 74.5848 33.8852 74.6353C33.4746 73.8142 33.4882 73.1463 32.8512 73.0315C29.852 72.4829 30.7116 71.0934 28.9607 72.8172C28.6437 72.4961 28.308 72.1939 27.9554 71.9123C28.4407 70.7515 28.7191 70.3576 28.4874 69.9198C27.1093 67.3123 28.7871 67.1727 25.7576 67.1485C25.7609 66.7146 25.7387 66.2809 25.6912 65.8497C26.8678 65.5606 27.8784 65.4482 28.0535 64.8112C28.8188 62.0429 29.852 63.2602 27.498 60.8715C27.8225 60.5515 28.1267 60.2149 28.409 59.8617C30.424 60.8293 30.6761 60.7666 30.9871 60.5259C33.2527 58.7749 33.1524 60.1976 33.172 57.6632C33.6354 57.67 34.0874 57.6451 34.5274 57.5953C34.935 58.5915 35.0059 59.0587 35.5742 59.1229C37.7463 59.3651 38.1591 60.6731 38.929 59.9206C39.1071 59.747 39.2837 59.5734 39.4497 59.4097C39.7939 59.7606 40.1169 60.0489 40.4573 60.3191C39.9825 61.4565 39.7757 61.7289 39.9803 62.144C41.3108 64.8285 39.5622 65.0648 42.6542 65.0806C42.6512 65.5297 42.6754 65.9855 42.7259 66.4361C39.4512 67.7923 41.0188 66.8738 39.7388 69.4421C39.4067 70.104 40.0708 70.5025 40.9131 71.3606C40.5856 71.6814 40.2814 72.0165 40.0044 72.3644C39.8837 72.3131 39.7576 72.2617 39.6293 72.2082C37.0527 71.1365 38.6633 72.1168 35.7916 72.9304ZM62.9508 49.0316C63.1546 49.3168 63.0512 49.5349 63.0965 51.2565C59.8188 51.2346 55.6588 51.2678 51.5765 51.4663L51.6022 49.3666C51.7071 48.1093 53.381 49.0044 62.9508 49.0316ZM58.8965 67.5787C56.6701 67.5538 56.6935 67.624 56.6082 67.5319C56.5305 67.4512 56.7131 63.8436 56.7244 63.6851C56.7275 63.4625 57.1848 63.6119 58.9191 63.5651C59.2633 63.5651 58.9207 64.0708 59.0354 67.4217C59.0376 67.4791 58.9735 67.5787 58.8965 67.5787ZM60.5388 65.1244C60.5599 64.7402 60.5863 64.0889 60.5803 63.71C60.5785 63.2707 60.4027 62.85 60.0913 62.5401C59.78 62.2302 59.3585 62.0562 58.9191 62.0565H56.8693C55.9712 62.0565 55.2293 62.7765 55.2173 63.6157C55.1847 64.1121 55.1608 64.609 55.1456 65.1063L48.4203 65.0859C47.1146 65.0859 47.4361 64.9893 42.3056 53.0844C42.412 53.0617 42.5184 53.0368 42.6316 53.0368C45.0067 53.061 71.8029 52.6285 72.7078 52.8904L67.9244 64.2134C67.3101 65.8542 65.1795 64.8187 60.5403 65.1244H60.5388Z" fill="#50BD77" stroke="#50BD77" stroke-width="0.555556"/>
<path id="Vector_2" d="M65.7834 32.8725C64.7532 30.2853 64.8891 29.2068 63.9872 29.2476C63.0506 29.2627 63.2476 30.3767 62.2468 33.1072C59.763 33.8876 58.6076 33.6302 58.5766 34.594C58.5532 35.3427 59.1668 35.2914 60.671 35.9351C61.0559 36.1004 61.4506 36.2702 61.994 36.4582C63.1185 39.705 62.8823 40.6982 63.8264 40.6982C64.634 40.6982 64.5412 39.9102 66.2257 36.831C68.9374 35.3578 69.9638 35.4099 69.883 34.5148C69.8691 34.362 69.8089 34.217 69.7104 34.0993C69.612 33.9816 69.48 33.8967 69.3321 33.8559L65.7834 32.8725ZM64.991 35.9261L64.0023 37.9027C62.8808 34.6725 63.7993 35.5857 61.8045 34.7744C62.6838 34.48 63.3668 34.5917 63.563 33.9593L64.0362 32.4317C64.4438 33.4053 64.3872 34.0521 64.9978 34.2204L67.003 34.7767C65.5012 35.5517 65.1849 35.5389 64.991 35.9261ZM9.44756 70.9359C9.62794 71.0287 9.80454 71.1517 9.98115 71.2733C13.3042 73.5472 12.8211 69.4204 15.5457 71.1872C17.8257 72.6567 18.723 70.9865 19.8189 71.031C20.9208 71.1102 21.3132 68.5329 18.1638 69.9782C16.72 70.6416 16.9517 70.1087 15.6785 69.5238C13.511 68.5223 12.0634 70.3638 11.7661 70.4551C11.4438 70.5608 10.7978 69.9344 10.1404 69.5948C8.89964 68.9533 7.2687 69.2597 6.34719 70.3117C5.68756 71.0634 6.82643 72.0582 7.48153 71.3065C7.94341 70.7804 8.82492 70.6129 9.44756 70.9359ZM9.39322 12.0234C8.89511 8.85816 5.29964 11.1102 5.81134 12.345C5.67247 15.5676 10.0513 16.188 9.39322 12.0234ZM7.33662 12.2363C7.44228 12.1185 7.55021 12.0174 7.66039 11.9608C7.73587 11.9208 7.82115 11.9178 7.81587 11.9027C7.86945 11.9782 8.16002 13.3133 7.76304 13.4695C7.6136 13.4265 7.26643 12.9412 7.33662 12.2363ZM6.03473 33.4468C9.78341 36.431 11.0913 36.4234 11.0159 36.3789C12.3328 36.3789 11.5328 34.4967 11.7706 30.0944C11.7707 29.9602 11.735 29.8283 11.6671 29.7125C11.5993 29.5967 11.5018 29.501 11.3847 29.4354C11.2675 29.3698 11.1351 29.3366 11.0008 29.3393C10.8666 29.342 10.7356 29.3804 10.6211 29.4506C6.21511 32.2808 5.80002 32.1238 5.75549 32.8106C5.74766 32.9313 5.76895 33.0521 5.81754 33.1628C5.86614 33.2735 5.94063 33.3709 6.03473 33.4468ZM10.2611 31.4431V34.5238C9.58568 34.1434 8.64002 33.511 7.84153 32.9276L10.2611 31.4431ZM47.3427 14.1359C49.7004 14.1359 50.3736 11.0099 48.3653 9.98194C46.8098 9.18496 44.8838 10.6234 45.5789 11.5555C45.0098 12.6091 45.9004 14.1367 47.3427 14.1367V14.1359ZM46.9442 11.3993C47.5404 10.9797 48.2196 11.5691 48.0159 12.1623C47.8181 12.7382 46.9019 12.7736 46.9125 12.268C47.1095 12.0084 47.1132 11.6589 46.9442 11.3993ZM68.9102 16.637C67.5366 16.1163 66.2159 17.8038 67.0212 18.7548C67.1547 20.5517 69.5842 20.9661 70.0295 19.0008C70.2257 18.1374 69.9012 17.0159 68.9102 16.637ZM68.5419 18.7238C68.514 18.6393 68.5223 18.5133 68.5638 18.3767C68.5843 18.4925 68.5768 18.6115 68.5419 18.7238ZM37.0664 61.3887C32.4574 58.5359 26.9811 64.8906 29.9638 69.391C32.5064 73.2453 39.0121 71.8982 39.2959 65.9887C39.2378 65.6227 39.6227 62.9382 37.0664 61.3887ZM31.2227 68.5585C29.0385 65.2619 33.4076 60.1736 36.7887 63.0521C37.56 63.717 37.8355 64.8823 37.7879 65.9178C37.5751 70.3208 32.9857 71.2325 31.2227 68.5585Z" fill="#50BD77" stroke="#50BD77" stroke-width="0.555556"/>
</g>
</svg>
