<svg width="25" height="24" viewBox="0 0 25 24" fill="none" xmlns="http://www.w3.org/2000/svg">
<path d="M2.63361 20.9899C3.01937 21.0951 3.44021 21.1652 3.82597 21.2354C3.86104 21.3756 3.89611 21.4809 3.96625 21.5861C4.17667 21.9718 4.5975 22.2173 5.05341 22.2524C5.50931 22.2875 7.29786 22.3225 7.40307 22.3225C7.61348 22.3576 7.8239 22.4277 8.03432 22.4628C8.6305 22.8135 9.82286 22.8836 10.2788 22.9187C11.4361 23.059 12.5934 22.9888 13.7507 22.9888C16.0302 22.9888 18.2746 22.8135 20.5541 22.6031C21.0802 22.568 22.0621 22.5329 22.4479 22.1472C22.8337 21.7614 22.4479 21.3406 21.9219 21.2003C21.7465 21.1652 21.466 21.1652 21.1854 21.2003C21.3257 20.9548 21.3958 20.7093 21.3958 20.3937C21.501 18.8857 20.9399 4.64748 20.5541 3.56032C20.3788 3.03428 19.993 2.36796 19.3618 2.40303H19.0462C18.7305 1.42108 17.8889 0.930106 17.1875 1.00025C16.4861 1.10545 15.8899 1.80684 15.925 2.5433L13.7507 2.64851C13.5052 1.52629 12.6284 1.00025 11.8569 1.07038C10.8399 1.21066 10.384 2.47317 10.6295 2.78879L8.20967 2.894C7.92911 1.80684 7.08744 1.2808 6.31591 1.35094C5.61452 1.49122 5.01834 2.19261 5.05341 2.96414C5.05341 2.99921 5.05341 3.03428 5.08848 3.06935L4.70271 3.10442C4.17667 3.13949 3.82597 3.59539 3.82597 4.08636C3.72076 4.89296 1.79194 18.044 2.00236 20.2534C2.03743 20.6041 2.28291 20.8847 2.63361 20.9899ZM20.5191 20.8496C20.3788 21.3055 19.958 21.551 19.5021 21.6913C19.0462 21.7965 13.5052 22.077 13.4701 22.077C12.3829 22.1472 11.3659 22.2524 10.3138 22.2173C9.12147 22.077 6.49126 21.9368 5.64959 20.8145C5.29889 20.3586 5.26382 19.6923 5.22875 19.1663C5.01834 15.4489 4.84299 10.1885 4.63257 7.62839C11.7166 7.94401 19.6774 7.17248 19.958 6.99714C19.9229 7.06728 20.5892 20.6743 20.5191 20.8496ZM17.2225 1.52629C17.6434 1.45615 18.1343 1.77177 18.3798 2.26275C18.4149 2.33289 18.4149 2.40303 18.45 2.47317L16.4159 2.57837C16.4159 1.98219 16.8368 1.59643 17.2225 1.52629ZM11.927 1.6315C12.3829 1.56136 12.9791 1.94712 13.2246 2.71865L11.0854 2.82386C11.1204 2.71865 11.0854 1.73671 11.927 1.6315ZM6.38605 1.91205C6.84195 1.84191 7.43814 2.19261 7.64855 2.96414L5.54438 3.06935C5.57945 2.99921 5.57945 2.01726 6.38605 1.91205ZM4.70271 3.63046L7.75376 3.49018C7.78883 4.29678 7.40307 5.41901 6.63154 5.17352C6.59647 4.75269 6.35098 4.43706 6.03535 4.43706C5.71973 4.43706 5.43917 4.78776 5.43917 5.20859C5.43917 5.62942 5.68466 5.98012 6.03535 5.98012C6.2107 5.98012 6.38605 5.83984 6.49126 5.66449C7.68362 5.98012 8.31487 4.61241 8.24473 3.45511L13.2597 3.2447C13.2947 4.08636 12.8739 5.17352 12.1024 4.89296C12.1024 4.47213 11.8218 4.12143 11.5062 4.12143C11.1906 4.12143 10.91 4.47213 10.91 4.89296C10.91 5.3138 11.2256 5.69956 11.5413 5.69956C11.7166 5.69956 11.892 5.59435 11.9972 5.41901C13.1545 5.7697 13.8559 4.47213 13.7857 3.2447L18.5902 2.99921C18.6955 3.91102 18.2396 5.13845 17.433 4.78776C17.433 4.36692 17.1875 4.01623 16.8368 4.01623C16.5211 4.01623 16.2406 4.36692 16.2406 4.78776C16.2406 5.20859 16.4861 5.55929 16.8368 5.55929C17.0121 5.55929 17.1524 5.45408 17.2576 5.27873C18.485 5.73463 19.2215 4.29678 19.1163 2.96414H19.3618C19.5722 2.96414 19.7475 3.13949 19.7475 3.3499C19.7826 3.80581 19.8177 5.13845 19.8878 6.5763C19.5371 6.36588 14.3819 7.55825 4.56243 7.13741C4.49229 6.19054 4.38709 5.17352 4.35202 4.12143C4.38709 4.08636 4.35202 3.63046 4.70271 3.63046ZM4.31695 20.6392C4.35202 19.2013 4.42216 17.3777 4.52736 15.5892C4.5975 17.027 4.66764 18.2545 4.70271 19.2364C4.77285 20.4638 4.91313 21.1652 5.96522 21.7965C5.71973 21.7965 5.47424 21.7965 5.08848 21.7614C4.38709 21.6913 4.28188 21.2003 4.31695 20.6392ZM4.00132 6.5763C4.10653 8.01415 4.24681 9.31172 4.31695 10.7496C4.17667 11.0301 3.7909 19.3767 3.7909 20.7093C3.47528 20.6392 3.08951 20.569 2.77389 20.4989C2.66868 20.4638 2.56347 20.3586 2.56347 20.2184C2.38812 18.8156 3.44021 10.2235 4.00132 6.5763Z" fill="#192F59"/>
<path d="M14.9771 10.6934C12.8795 10.7287 12.4094 10.8345 10.3118 10.8698C10.1671 10.8698 10.0586 11.011 10.0586 11.1522C10.0586 11.2934 10.1671 11.3992 10.3479 11.3992C12.4094 11.3639 12.771 11.2934 14.6878 11.2228C14.1815 13.411 13.0965 15.8816 12.4455 17.9992C12.4094 18.1404 12.4817 18.2816 12.6263 18.3169C12.771 18.3522 12.9157 18.2816 12.9518 18.1404C13.639 15.9522 14.7963 13.3051 15.2664 11.011C15.3026 10.8698 15.1941 10.7287 14.9771 10.6934Z" fill="#192F59"/>
</svg>
