<svg width="25" height="25" viewBox="0 0 25 25" fill="none" xmlns="http://www.w3.org/2000/svg">
<g id="download">
<path id="Vector" fill-rule="evenodd" clip-rule="evenodd" d="M19.1505 23.4942C20.4572 23.4319 21.6901 22.8626 22.5931 21.9045C23.4961 20.9463 24 19.6729 24 18.3487V12.663L23.9943 12.4197C23.9328 11.0941 23.3693 9.84339 22.4208 8.92728C21.4724 8.01117 20.2118 7.50004 18.9009 7.5H17.8279L17.7106 7.50815C17.4942 7.5383 17.2971 7.65052 17.1591 7.82212C17.0212 7.99372 16.9528 8.21192 16.9677 8.43262C16.9826 8.65332 17.0797 8.86007 17.2394 9.01109C17.3991 9.16211 17.6094 9.24615 17.8279 9.24622H18.9009L19.0987 9.25204C19.9581 9.30312 20.7656 9.68478 21.3561 10.3189C21.9466 10.953 22.2753 11.7916 22.275 12.663V18.3487L22.2693 18.5489C22.2188 19.4158 21.843 20.2305 21.2188 20.8263C20.5946 21.422 19.7691 21.7538 18.9113 21.7538H6.10025L5.90245 21.748C5.04299 21.6969 4.2353 21.3153 3.64463 20.6812C3.05397 20.0471 2.72499 19.2085 2.725 18.337V12.6502L2.73075 12.4499C2.78148 11.5832 3.15736 10.7688 3.78154 10.1733C4.40572 9.57782 5.23104 9.24618 6.08875 9.24622H7.17205L7.28935 9.23807C7.50584 9.20792 7.70295 9.0957 7.84085 8.9241C7.97876 8.75249 8.04717 8.5343 8.03228 8.3136C8.01739 8.0929 7.92029 7.88615 7.76061 7.73513C7.60093 7.5841 7.39058 7.50007 7.17205 7.5H6.08875L5.84265 7.50582C4.53733 7.5698 3.30635 8.13969 2.4048 9.09741C1.50325 10.0551 1.00024 11.3273 1 12.6502V18.337L1.00575 18.5803C1.06753 19.906 1.63125 21.1567 2.57988 22.0728C3.52852 22.9889 4.7892 23.5 6.10025 23.5H18.9113L19.1505 23.4942Z" fill="#50BD77"/>
<path id="Vector_2" fill-rule="evenodd" clip-rule="evenodd" d="M12.4867 3.5C12.9518 3.5 13.3288 3.82561 13.3288 4.22727V18.7727C13.3288 19.1744 12.9518 19.5 12.4867 19.5C12.0217 19.5 11.6446 19.1744 11.6446 18.7727V4.22727C11.6446 3.82561 12.0217 3.5 12.4867 3.5Z" fill="#50BD77" stroke="#50BD77" stroke-width="0.470588"/>
<g id="Vector_3">
<path fill-rule="evenodd" clip-rule="evenodd" d="M18.264 12.8429C18.6039 13.0183 18.731 13.4242 18.5477 13.7496L17.9322 13.432C18.5477 13.7496 18.5477 13.7496 18.5477 13.7496L18.5467 13.7514L18.5446 13.7551L18.537 13.7684L18.509 13.817C18.4847 13.859 18.4493 13.9196 18.4036 13.9961C18.3122 14.1491 18.1796 14.3662 18.0125 14.6262C17.6792 15.1448 17.205 15.8399 16.645 16.5386C16.0881 17.2331 15.4292 17.9529 14.7232 18.5051C14.0337 19.0442 13.2035 19.4995 12.317 19.4995C11.4302 19.4995 10.5997 19.0444 9.90986 18.5052C9.20347 17.953 8.54415 17.2333 7.9871 16.5387C7.4268 15.8401 6.95245 15.1448 6.61897 14.6263C6.45181 14.3662 6.31915 14.1491 6.22778 13.9962C6.1821 13.9197 6.14658 13.8591 6.12234 13.8171L6.09428 13.7685L6.08673 13.7552L6.08458 13.7515L6.08393 13.7503C6.08393 13.7503 6.08355 13.7496 6.69905 13.432L6.08393 13.7503C5.90073 13.425 6.02734 13.0184 6.36725 12.843C6.70707 12.6676 7.13108 12.789 7.31446 13.1143L7.31576 13.1167L7.32145 13.1266L7.34532 13.1682C7.36685 13.2053 7.3993 13.2607 7.44172 13.3318C7.52674 13.474 7.65176 13.6786 7.80997 13.9248C8.12732 14.4183 8.57426 15.0727 9.09634 15.7237C9.62169 16.3787 10.2059 17.0085 10.7944 17.4685C11.3995 17.9415 11.9154 18.1611 12.317 18.1611C12.718 18.1611 13.2335 17.9416 13.8383 17.4686C14.4265 17.0086 15.0104 16.3788 15.5355 15.7238C16.0574 15.0728 16.5042 14.4184 16.8214 13.9249C16.9796 13.6787 17.1046 13.4741 17.1895 13.3319C17.232 13.2608 17.2644 13.2054 17.2859 13.1683L17.3098 13.1267L17.3154 13.1168L17.3166 13.1146M18.264 12.8429C17.9241 12.6676 17.4999 12.7894 17.3166 13.1146L18.264 12.8429Z" fill="#50BD77"/>
<path d="M18.264 12.8429C18.6039 13.0183 18.731 13.4242 18.5477 13.7496M18.264 12.8429C17.9241 12.6676 17.4999 12.7894 17.3166 13.1146M18.264 12.8429L17.3166 13.1146M18.5477 13.7496L17.9322 13.432C18.5477 13.7496 18.5477 13.7496 18.5477 13.7496ZM18.5477 13.7496L18.5467 13.7514L18.5446 13.7551L18.537 13.7684L18.509 13.817C18.4847 13.859 18.4493 13.9196 18.4036 13.9961C18.3122 14.1491 18.1796 14.3662 18.0125 14.6262C17.6792 15.1448 17.205 15.8399 16.645 16.5386C16.0881 17.2331 15.4292 17.9529 14.7232 18.5051C14.0337 19.0442 13.2036 19.4995 12.317 19.4995C11.4302 19.4995 10.5997 19.0444 9.90986 18.5052C9.20347 17.953 8.54415 17.2333 7.9871 16.5387C7.4268 15.8401 6.95245 15.1448 6.61897 14.6263C6.45181 14.3662 6.31915 14.1491 6.22778 13.9962C6.1821 13.9197 6.14658 13.8591 6.12234 13.8171L6.09428 13.7685L6.08673 13.7552L6.08458 13.7515L6.08393 13.7503M6.08393 13.7503C6.08393 13.7503 6.08355 13.7496 6.69905 13.432L6.08393 13.7503ZM6.08393 13.7503C5.90073 13.425 6.02734 13.0184 6.36725 12.843C6.70707 12.6676 7.13108 12.789 7.31446 13.1143L7.31576 13.1167L7.32145 13.1266L7.34532 13.1682C7.36685 13.2053 7.3993 13.2607 7.44172 13.3318C7.52674 13.474 7.65176 13.6786 7.80997 13.9248C8.12732 14.4183 8.57426 15.0727 9.09634 15.7237C9.62169 16.3787 10.2059 17.0085 10.7944 17.4685C11.3995 17.9415 11.9154 18.1611 12.317 18.1611C12.718 18.1611 13.2335 17.9416 13.8383 17.4686C14.4265 17.0086 15.0104 16.3788 15.5355 15.7238C16.0574 15.0728 16.5042 14.4184 16.8214 13.9249C16.9796 13.6787 17.1046 13.4741 17.1895 13.3319C17.232 13.2608 17.2644 13.2054 17.2859 13.1683L17.3098 13.1267L17.3154 13.1168L17.3166 13.1146" stroke="#50BD77" stroke-width="0.421053"/>
</g>
</g>
</svg>
