<svg width="85" height="85" viewBox="0 0 85 85" fill="none" xmlns="http://www.w3.org/2000/svg">
<g id="e-learning-programs">
<path id="Vector" d="M30.5472 53.3906C30.5472 52.9922 40.2426 52.5938 52.0629 52.4609H64.9457C66.4066 52.4609 67.8676 52.4609 69.3285 52.1953C70.7894 52.0625 72.3832 51.6641 73.8441 50.8672C75.1722 50.0703 76.1019 48.6094 76.5004 46.8828C77.0316 45.1562 77.0316 43.1641 77.0316 41.0391V34.5313C77.0316 30.1484 76.8988 25.3672 76.6332 20.4531C76.5004 18.0625 76.3676 15.5391 76.1019 13.0156C75.8363 10.4922 75.7035 7.70313 73.7113 6.375C72.7816 5.71094 71.5863 5.3125 70.2582 5.04688C68.9301 4.78125 67.6019 4.78125 66.2738 4.64844C63.4848 4.51563 60.8285 4.38281 58.0394 4.38281C46.3519 4.11719 34.9301 4.64844 24.4379 5.57812C21.7816 5.84375 19.2582 6.10938 16.7347 6.375C15.4066 6.50781 14.0785 6.64062 12.8832 6.90625C12.3519 6.90625 11.9535 7.03906 11.8207 7.30469C11.5551 7.4375 11.5551 8.10156 11.5551 8.76563C11.1566 13.5469 10.891 18.0625 10.7582 22.3125C10.3597 30.6797 9.96131 37.8516 9.56287 43.1641C9.43006 45.8203 9.03162 47.9453 9.29725 49.5391C9.43006 51 10.0941 51.7969 10.4926 52.0625C11.4222 52.8594 12.7504 53.125 14.0785 53.125C15.4066 53.125 16.8676 53.2578 18.0629 53.2578C20.5863 53.3906 22.9769 53.3906 24.8363 53.3906C28.6879 53.5234 31.0785 53.5234 31.2113 53.7891C31.2113 54.0547 28.8207 54.3203 24.9691 54.5859C22.9769 54.7188 20.7191 54.7188 18.0629 54.7188C16.7347 54.7188 15.4066 54.7188 13.9457 54.5859C12.4847 54.4531 10.7582 54.3203 9.29725 52.9922C8.766 52.5938 7.96912 51.3984 7.7035 49.8047C7.43787 48.0781 7.7035 46.0859 7.83631 43.6953C8.23475 38.9141 8.63319 32.4063 9.03162 24.7031C9.29725 20.8516 9.56287 16.7344 9.8285 12.2187C9.96131 11.1562 9.96131 9.96094 10.0941 8.89844C10.2269 8.36719 10.0941 7.83594 10.3597 7.03906C10.4926 6.64063 10.7582 6.24219 11.0238 5.97656C11.4222 5.71094 11.6879 5.57812 12.0863 5.57812C14.6097 5.17969 16.8676 5.04688 19.391 4.78125C29.2191 3.71875 39.9769 3.05469 51.1332 3.05469C56.9769 3.05469 62.8207 3.1875 68.5316 3.45312C69.9926 3.58594 71.4535 3.85156 72.7816 4.38281C74.1097 4.91406 75.4379 5.97656 76.1019 7.4375C76.766 8.76562 76.8988 10.2266 77.1644 11.5547L77.5629 15.5391C77.9613 20.8516 78.2269 25.8984 78.3597 30.8125C78.4926 35.5938 78.6254 40.2422 78.3597 44.4922C78.2269 46.6172 77.8285 48.875 76.3676 50.6016C75.0394 52.3281 72.9144 53.125 71.1879 53.5234C67.6019 54.1875 64.4144 53.9219 61.891 54.0547C56.5785 54.0547 53.1254 54.0547 52.0629 54.1875C40.1097 54.1875 30.5472 53.9219 30.5472 53.3906Z" fill="#50BD77"/>
<path id="Vector_2" d="M72.9138 52.0625C73.1794 51.7969 77.4294 56.3125 80.7497 63.2187C81.0153 63.8828 81.945 65.6094 83.0075 68.5312C83.5388 69.9922 84.2028 71.5859 84.6013 73.7109C84.8669 74.7734 84.9997 75.8359 84.8669 77.1641C84.7341 78.3594 84.2028 79.8203 83.0075 80.75C81.8122 81.6797 80.3513 81.9453 79.0231 81.9453H74.906C72.1169 81.9453 69.0622 81.8125 66.0075 81.8125C59.7653 81.6797 52.9919 81.6797 45.9528 81.5469C38.5153 81.4141 31.3435 81.4141 24.7028 81.2812C21.3825 81.2812 18.195 81.2812 15.1403 81.1484H10.7575C9.29658 81.1484 7.83564 81.0156 6.50752 80.75C5.17939 80.4844 3.85127 80.0859 2.65595 79.2891C1.59345 78.4922 0.796578 77.2969 0.398141 76.1016C-0.265922 73.7109 0.132516 71.5859 0.530953 69.9922C1.46064 66.6719 2.39033 64.6797 2.65595 64.0156C4.2497 60.5625 6.24189 57.6406 7.96845 55.7812C9.69502 53.9219 10.8903 52.9922 11.0231 53.125C11.4216 53.3906 7.03877 57.9062 4.11689 64.5469C3.85127 65.2109 3.05439 66.9375 2.25752 69.8594C1.72627 71.3203 1.32783 73.0469 1.59345 74.9062C1.72627 75.8359 2.1247 76.6328 2.65595 77.4297C3.32002 78.2266 4.11689 78.7578 5.17939 79.1562C7.30439 79.9531 9.96064 79.8203 12.7497 79.9531C15.5388 79.9531 18.4606 80.0859 21.6481 80.0859C27.8903 80.2188 34.6638 80.2188 41.7028 80.3516C49.1403 80.4844 56.3122 80.4844 62.9528 80.6172C66.2731 80.6172 69.4606 80.6172 72.5153 80.75H76.8981C78.3591 80.75 79.6872 80.75 80.7497 80.3516C81.8122 79.9531 82.6091 79.2891 83.0075 78.2266C83.406 77.2969 83.2731 76.1016 83.1403 75.1719C82.8747 73.1797 82.0778 71.3203 81.5466 69.7266C80.3513 66.6719 79.4216 64.6797 79.156 64.1484C76.1013 57.2422 72.5153 52.3281 72.9138 52.0625ZM15.9372 10.0937C16.07 10.2266 15.8044 10.625 15.6716 11.4219C15.5388 12.2188 15.5388 13.4141 15.6716 15.0078C15.9372 18.1953 16.07 22.4453 16.2028 27.2266C16.2028 28.1562 16.3356 30.6797 16.3356 34.5312C16.3356 36.5234 16.4685 38.7812 16.4685 41.3047C16.4685 42.6328 16.6013 43.9609 17.1325 44.8906C17.3981 45.4219 17.7966 45.8203 18.3278 45.9531C18.8591 46.2187 19.5231 46.2188 20.32 46.2188C26.5622 46.4844 33.7341 46.6172 41.7028 46.75H63.8825C64.945 46.75 66.1403 46.75 67.2028 46.6172C68.2653 46.4844 69.195 45.9531 69.5935 45.1562C69.9919 44.3594 69.8591 43.1641 69.9919 41.9688C70.1247 39.7109 70.1247 37.3203 70.2575 35.0625C70.3903 30.5469 70.3903 26.0312 70.3903 21.7812C70.3903 19.6562 70.3903 17.5312 70.2575 15.5391C70.2575 13.5469 69.9919 11.5547 68.531 10.8906C67.9997 10.625 67.07 10.625 66.1403 10.625H63.3513C61.4919 10.625 59.7653 10.7578 58.0388 10.7578C44.4919 11.0234 35.0622 11.1562 33.3356 11.2891C23.7731 11.4219 15.9372 11.1563 15.9372 10.7578C15.9372 10.3594 23.7731 9.82813 33.3356 9.69531C35.0622 9.69531 43.5622 9.5625 56.0466 9.42969C59.1013 9.42969 62.5544 9.29688 66.1403 9.29688C67.07 9.29688 67.9997 9.29688 69.0622 9.69531C70.1247 10.0938 71.0544 11.0234 71.32 12.0859C71.7185 13.1484 71.7185 14.0781 71.8513 15.1406V18.0625C71.9841 26.0312 71.8513 34.6641 71.4528 43.6953C71.4528 44.3594 71.32 45.0234 71.1872 45.6875C70.9216 46.3516 70.5231 47.0156 69.8591 47.4141C68.6638 48.2109 67.3356 48.3438 66.1403 48.3438C63.7497 48.3438 61.4919 48.4766 59.2341 48.4766C54.7184 48.4766 50.2028 48.6094 45.9528 48.4766C37.4528 48.4766 29.4841 48.2109 22.7106 48.0781C21.9138 48.0781 20.9841 48.0781 20.1872 47.9453C19.3903 47.9453 18.4606 47.8125 17.531 47.2812C16.6013 46.75 16.07 45.9531 15.8044 45.1562C15.5388 44.3594 15.406 43.5625 15.2731 42.8984C15.1403 39.9766 15.1403 37.5859 15.0075 35.4609C14.8747 31.2109 14.7419 28.4219 14.7419 27.4922C14.6091 22.7109 14.6091 18.3281 14.6091 15.1406C14.6091 13.5469 14.7419 12.2188 15.0075 11.2891C15.406 10.3594 15.8044 9.96094 15.9372 10.0937Z" fill="#50BD77"/>
<path id="Vector_3" d="M43.2969 19.6562C43.6953 19.6562 44.2266 20.5859 44.2266 21.7812C44.2266 22.1797 44.4922 26.0312 44.4922 30.5469C44.4922 35.3281 44.3594 39.5781 44.3594 39.9766C44.2266 41.1719 43.8281 42.1016 43.4297 42.1016C43.0313 42.1016 42.7656 41.0391 42.7656 39.8438C42.7656 39.4453 43.1641 35.7266 43.1641 31.2109C43.1641 26.5625 42.6328 22.3125 42.6328 21.9141C42.6328 20.7187 42.8984 19.7891 43.2969 19.6562Z" fill="#50BD77"/>
<path id="Vector_4" d="M62.5547 15.1406C62.4218 15.5391 61.4922 15.6719 60.4297 15.5391C60.0312 15.5391 56.4453 14.7422 52.3281 15.6719C47.9453 16.6016 44.3593 18.8594 44.4922 18.9922C43.9609 19.5234 43.6953 20.1875 43.2968 20.4531C43.0312 20.4531 42.7656 20.3203 42.7656 19.7891C42.6328 19.2578 42.7656 18.5938 43.2968 17.9297C43.4297 17.7969 43.6953 17.5313 44.0937 17.2656C44.4922 17 45.1562 16.7344 45.8203 16.3359C47.2812 15.6719 49.1406 15.0078 51.2656 14.4766C55.914 13.2812 60.164 13.8125 60.5625 13.9453C61.7578 14.0781 62.6875 14.6094 62.5547 15.1406ZM62.4218 38.1172C62.1562 38.5156 61.2265 38.3828 60.164 37.9844C60.0312 37.9844 59.1015 37.5859 57.6406 37.1875C56.1797 36.9219 54.3203 36.6562 52.1953 37.0547C50.0703 37.4531 48.0781 38.3828 46.75 39.1797C45.4218 40.1094 44.625 40.7734 44.4922 40.9062C43.6953 41.7031 42.7656 42.1016 42.5 41.8359C42.2343 41.5703 42.5 40.5078 43.4297 39.7109C43.6953 39.4453 46.75 36.7891 51.1328 35.7266C53.5234 35.1953 55.7812 35.1953 57.5078 35.4609C59.2343 35.7266 60.2968 36.125 60.5625 36.2578C62.0234 36.9219 62.6875 37.7188 62.4218 38.1172Z" fill="#50BD77"/>
<path id="Vector_5" d="M62.2891 37.9844C61.8906 37.9844 61.4922 37.0547 61.4922 35.7266V26.8281C61.3594 22.0469 61.0938 17.6641 61.0938 17.2656C61.0938 16.0703 61.3594 15.0078 61.8906 15.0078C62.2891 15.0078 62.6875 15.9375 62.6875 17.2656V26.1641C62.8203 30.9453 62.9531 35.3281 62.9531 35.8594C63.0859 37.0547 62.6875 37.9844 62.2891 37.9844Z" fill="#50BD77"/>
<path id="Vector_6" d="M62.5557 15.1406C62.4229 15.5391 61.4932 15.6719 60.4307 15.5391C60.0323 15.5391 56.4463 14.7422 52.3292 15.6719C47.9463 16.6016 44.3604 18.8594 44.4932 18.9922C43.962 19.5234 43.6963 20.1875 43.2979 20.4531C43.0323 20.4531 42.7667 20.3203 42.7667 19.7891C42.6338 19.2578 42.7667 18.5938 43.2979 17.9297C43.4307 17.7969 43.6963 17.5313 44.0948 17.2656C44.4932 17 45.1573 16.7344 45.8213 16.3359C47.2823 15.6719 49.1417 15.0078 51.2667 14.4766C55.9151 13.2812 60.1651 13.8125 60.5635 13.9453C61.7588 14.0781 62.6885 14.6094 62.5557 15.1406Z" fill="#50BD77"/>
<path id="Vector_7" d="M62.29 37.9846C61.8916 37.9846 61.4931 37.0549 61.4931 35.7268V26.8284C61.3603 22.0471 61.0947 17.6643 61.0947 17.2659C61.0947 16.0705 61.3603 15.008 61.8916 15.008C62.29 15.008 62.6884 15.9377 62.6884 17.2659V26.1643C62.8212 30.9455 62.9541 35.3284 62.9541 35.8596C63.0869 37.0549 62.6884 37.9846 62.29 37.9846ZM23.5087 15.1409C23.3759 14.7424 24.3056 14.2112 25.5009 13.9455C25.8994 13.9455 29.7509 13.4143 34.1337 14.344C36.3916 14.7424 38.5166 15.5393 40.1103 16.3362L41.9697 17.2659C42.5009 17.5315 42.7666 17.9299 42.8994 17.9299C43.4306 18.4612 43.5634 19.258 43.4306 19.7893C43.2978 20.3205 43.0322 20.5862 42.8994 20.4534C42.5009 20.3205 42.2353 19.6565 41.7041 18.9924C41.7041 18.7268 38.6494 16.7346 34.5322 15.8049C30.1494 14.7424 26.165 15.4065 25.7666 15.5393C24.5712 15.6721 23.6416 15.5393 23.5087 15.1409ZM23.6416 38.1174C23.3759 37.719 24.1728 36.9221 25.2353 36.5237C25.6337 36.3909 29.3525 34.9299 34.0009 35.8596C36.3916 36.258 38.5166 37.1877 39.9775 38.1174C41.4384 39.0471 42.3681 39.844 42.5009 39.9768C43.4306 40.7737 43.8291 41.8362 43.4306 42.1018C43.0322 42.3674 42.2353 41.969 41.4384 41.1721C41.3056 41.0393 40.6416 40.3752 39.4462 39.5784C38.2509 38.7815 36.5244 37.8518 34.5322 37.4534C32.4072 36.9221 30.2822 37.0549 28.6884 37.3205C27.0947 37.5862 26.165 38.1174 25.8994 38.1174C24.8369 38.383 23.9072 38.5159 23.6416 38.1174Z" fill="#50BD77"/>
<path id="Vector_8" d="M23.7734 37.9844C23.375 37.9844 22.9766 36.9219 22.9766 35.7266C22.9766 35.3281 23.1094 31.4766 23.2422 26.8281C23.375 22.0469 23.2422 17.6641 23.2422 17.2656C23.2422 16.0703 23.6406 15.0078 24.0391 15.0078C24.4375 15.0078 24.8359 16.0703 24.8359 17.2656C24.8359 17.6641 24.7031 21.5156 24.5703 26.1641C24.4375 30.9453 24.5703 35.3281 24.5703 35.8594C24.7031 37.0547 24.3047 37.9844 23.7734 37.9844ZM58.3047 19.9219C58.3047 20.3203 57.7734 20.7188 57.1094 20.7188C56.8438 20.7188 54.9844 20.5859 52.5937 21.25C50.2031 21.9141 48.3438 23.1094 48.2109 23.2422C47.6797 23.5078 47.0156 23.5078 46.8828 23.1094C46.6172 22.7109 46.8828 22.1797 47.4141 21.7812C47.6797 21.6484 49.5391 20.7188 51.9297 20.0547C54.4531 19.2578 56.8438 19.125 57.1094 19.125C57.7734 19.125 58.3047 19.5234 58.3047 19.9219ZM58.8359 24.9687C58.7031 25.3672 58.1719 25.6328 57.6406 25.6328C57.375 25.6328 55.5156 25.3672 53.2578 25.7656C50.8672 26.2969 49.1406 27.4922 48.875 27.4922C48.3438 27.7578 47.8125 27.7578 47.5469 27.3594C47.2812 26.9609 47.5469 26.4297 48.0781 26.0312C48.3438 25.8984 50.2031 24.9687 52.5937 24.4375C55.1172 23.7734 57.5078 23.9062 57.6406 23.9062C58.4375 24.1719 58.9688 24.5703 58.8359 24.9687ZM58.7031 29.75C58.5703 30.1484 58.0391 30.4141 57.5078 30.4141C57.2422 30.4141 55.3828 30.0156 53.125 30.4141C51.9297 30.6797 50.8672 30.9453 50.0703 31.3438C49.2734 31.7422 49.0078 32.0078 48.875 32.1406C48.4766 32.4062 48.0781 32.6719 47.6797 32.5391C47.2813 32.4062 47.1484 31.6094 47.8125 31.0781C47.9453 30.9453 48.4766 30.5469 49.2734 30.1484C50.0703 29.8828 51.2656 29.4844 52.4609 29.2188C54.9844 28.6875 57.375 28.8203 57.6406 28.8203C58.4375 28.9531 58.8359 29.3516 58.7031 29.75ZM28.1563 19.9219C28.1563 19.5234 28.6875 19.125 29.3516 19.125C29.6172 19.125 31.7422 19.2578 34.1328 19.9219C36.6563 20.5859 38.7813 21.6484 39.0469 21.7812C39.5781 22.1797 39.8438 22.7109 39.5781 23.1094C39.3125 23.5078 38.7812 23.5078 38.25 23.2422C38.1172 23.1094 36.3906 22.0469 34.1328 21.3828C31.7422 20.7188 29.4844 20.8516 29.3516 20.8516C28.6875 20.7187 28.1563 20.4531 28.1563 19.9219ZM27.4922 24.9687C27.3594 24.5703 27.8906 24.0391 28.5547 24.0391C28.8203 24.0391 30.9453 23.9062 33.3359 24.4375C35.8594 24.9687 37.9844 26.0313 38.1172 26.1641C38.6484 26.4297 38.9141 27.0938 38.6484 27.4922C38.3828 27.8906 37.8516 27.8906 37.3203 27.625C37.1875 27.4922 35.5938 26.4297 33.3359 25.8984C30.9453 25.3672 28.8203 25.6328 28.6875 25.6328C28.1563 25.7656 27.625 25.5 27.4922 24.9687ZM27.625 29.75C27.4922 29.3516 28.0234 28.8203 28.6875 28.8203C28.9531 28.8203 31.0781 28.6875 33.4688 29.0859C34.7969 29.3516 35.9922 29.6172 36.9219 30.0156C37.8516 30.4141 38.5156 30.8125 38.5156 30.9453C39.1797 31.4766 39.0469 32.4062 38.6484 32.4062C38.25 32.5391 37.8516 32.4062 37.4531 32.0078C37.4531 32.0078 37.0547 31.6094 36.3906 31.3438C35.7266 31.0781 34.6641 30.6797 33.6016 30.4141C31.2109 29.8828 29.0859 30.2812 28.8203 30.2812C28.2891 30.4141 27.625 30.1484 27.625 29.75ZM29.0859 73.5781C28.8203 73.4453 28.9531 72.9141 28.6875 71.8516C28.5547 71.3203 28.2891 70.7891 28.1563 69.8594C28.0234 69.0625 28.0234 68 28.8203 67.0703C28.9531 66.9375 29.3516 66.5391 29.8828 66.4062C30.5469 66.2734 31.0781 66.2734 31.7422 66.2734C33.0703 66.2734 34.9297 66.2734 37.1875 66.4062C39.4453 66.4062 41.9688 66.5391 44.7578 66.5391C46.2188 66.5391 47.6797 66.5391 49.1406 66.6719H51.3984C52.0625 66.6719 53.125 66.5391 54.0547 67.2031C54.9844 67.8672 55.25 68.9297 55.3828 69.8594C55.5156 70.7891 55.5156 71.5859 55.3828 72.5156C55.3828 72.9141 55.25 73.4453 54.9844 73.8438C54.7188 74.2422 54.3203 74.6406 53.7891 74.9063C52.7266 75.3047 51.9297 75.1719 51.2656 75.1719C48.2109 75.1719 45.5547 75.0391 43.0313 75.0391C38.25 74.9062 34.9297 74.9063 34.2656 74.9063C30.9453 74.7734 28.1563 74.375 28.1563 73.9766C28.1563 73.5781 30.9453 73.1797 34.2656 73.3125C34.9297 73.3125 37.8516 73.4453 42.2344 73.5781C44.3594 73.5781 47.0156 73.7109 49.8047 73.8438H51.9297C52.5937 73.8438 53.125 73.8438 53.5234 73.4453C54.1875 72.7812 54.1875 70.9219 53.9219 69.5938C53.7891 68.9297 53.3906 68.3984 52.9922 68.1328C52.4609 68 51.6641 68 50.8672 68H32.0078C31.2109 68 30.6797 68 30.4141 68.1328C30.1484 68.2656 30.0156 68.2656 30.0156 68.3984C29.75 68.6641 29.6172 69.4609 29.6172 69.9922C29.6172 70.6563 29.75 71.3203 29.75 71.8516C29.8828 72.9141 29.2188 73.7109 29.0859 73.5781Z" fill="#50BD77"/>
<path id="Vector_9" d="M30.5472 53.3906C30.5472 52.9922 40.2426 52.5938 52.0629 52.4609H64.9457C66.4066 52.4609 67.8676 52.4609 69.3285 52.1953C70.7894 52.0625 72.3832 51.6641 73.8441 50.8672C75.1722 50.0703 76.1019 48.6094 76.5004 46.8828C77.0316 45.1562 77.0316 43.1641 77.0316 41.0391V34.5313C77.0316 30.1484 76.8988 25.3672 76.6332 20.4531C76.5004 18.0625 76.3676 15.5391 76.1019 13.0156C75.8363 10.4922 75.7035 7.70313 73.7113 6.375C72.7816 5.71094 71.5863 5.3125 70.2582 5.04688C68.9301 4.78125 67.6019 4.78125 66.2738 4.64844C63.4848 4.51563 60.8285 4.38281 58.0394 4.38281C46.3519 4.11719 34.9301 4.64844 24.4379 5.57812C21.7816 5.84375 19.2582 6.10938 16.7347 6.375C15.4066 6.50781 14.0785 6.64062 12.8832 6.90625C12.3519 6.90625 11.9535 7.03906 11.8207 7.30469C11.5551 7.4375 11.5551 8.10156 11.5551 8.76563C11.1566 13.5469 10.891 18.0625 10.7582 22.3125C10.3597 30.6797 9.96131 37.8516 9.56287 43.1641C9.43006 45.8203 9.03162 47.9453 9.29725 49.5391C9.43006 51 10.0941 51.7969 10.4926 52.0625C11.4222 52.8594 12.7504 53.125 14.0785 53.125C15.4066 53.125 16.8676 53.2578 18.0629 53.2578C20.5863 53.3906 22.9769 53.3906 24.8363 53.3906C28.6879 53.5234 31.0785 53.5234 31.2113 53.7891C31.2113 54.0547 28.8207 54.3203 24.9691 54.5859C22.9769 54.7188 20.7191 54.7188 18.0629 54.7188C16.7347 54.7188 15.4066 54.7188 13.9457 54.5859C12.4847 54.4531 10.7582 54.3203 9.29725 52.9922C8.766 52.5938 7.96912 51.3984 7.7035 49.8047C7.43787 48.0781 7.7035 46.0859 7.83631 43.6953C8.23475 38.9141 8.63319 32.4063 9.03162 24.7031C9.29725 20.8516 9.56287 16.7344 9.8285 12.2187C9.96131 11.1562 9.96131 9.96094 10.0941 8.89844C10.2269 8.36719 10.0941 7.83594 10.3597 7.03906C10.4926 6.64063 10.7582 6.24219 11.0238 5.97656C11.4222 5.71094 11.6879 5.57812 12.0863 5.57812C14.6097 5.17969 16.8676 5.04688 19.391 4.78125C29.2191 3.71875 39.9769 3.05469 51.1332 3.05469C56.9769 3.05469 62.8207 3.1875 68.5316 3.45312C69.9926 3.58594 71.4535 3.85156 72.7816 4.38281C74.1097 4.91406 75.4379 5.97656 76.1019 7.4375C76.766 8.76562 76.8988 10.2266 77.1644 11.5547L77.5629 15.5391C77.9613 20.8516 78.2269 25.8984 78.3597 30.8125C78.4926 35.5938 78.6254 40.2422 78.3597 44.4922C78.2269 46.6172 77.8285 48.875 76.3676 50.6016C75.0394 52.3281 72.9144 53.125 71.1879 53.5234C67.6019 54.1875 64.4144 53.9219 61.891 54.0547C56.5785 54.0547 53.1254 54.0547 52.0629 54.1875C40.1097 54.1875 30.5472 53.9219 30.5472 53.3906Z" fill="#50BD77"/>
<path id="Vector_10" d="M72.9138 52.0625C73.1794 51.7969 77.4294 56.3125 80.7497 63.2187C81.0153 63.8828 81.945 65.6094 83.0075 68.5312C83.5388 69.9922 84.2028 71.5859 84.6013 73.7109C84.8669 74.7734 84.9997 75.8359 84.8669 77.1641C84.7341 78.3594 84.2028 79.8203 83.0075 80.75C81.8122 81.6797 80.3513 81.9453 79.0231 81.9453H74.906C72.1169 81.9453 69.0622 81.8125 66.0075 81.8125C59.7653 81.6797 52.9919 81.6797 45.9528 81.5469C38.5153 81.4141 31.3435 81.4141 24.7028 81.2812C21.3825 81.2812 18.195 81.2812 15.1403 81.1484H10.7575C9.29658 81.1484 7.83564 81.0156 6.50752 80.75C5.17939 80.4844 3.85127 80.0859 2.65595 79.2891C1.59345 78.4922 0.796578 77.2969 0.398141 76.1016C-0.265922 73.7109 0.132516 71.5859 0.530953 69.9922C1.46064 66.6719 2.39033 64.6797 2.65595 64.0156C4.2497 60.5625 6.24189 57.6406 7.96845 55.7812C9.69502 53.9219 10.8903 52.9922 11.0231 53.125C11.4216 53.3906 7.03877 57.9062 4.11689 64.5469C3.85127 65.2109 3.05439 66.9375 2.25752 69.8594C1.72627 71.3203 1.32783 73.0469 1.59345 74.9062C1.72627 75.8359 2.1247 76.6328 2.65595 77.4297C3.32002 78.2266 4.11689 78.7578 5.17939 79.1562C7.30439 79.9531 9.96064 79.8203 12.7497 79.9531C15.5388 79.9531 18.4606 80.0859 21.6481 80.0859C27.8903 80.2188 34.6638 80.2188 41.7028 80.3516C49.1403 80.4844 56.3122 80.4844 62.9528 80.6172C66.2731 80.6172 69.4606 80.6172 72.5153 80.75H76.8981C78.3591 80.75 79.6872 80.75 80.7497 80.3516C81.8122 79.9531 82.6091 79.2891 83.0075 78.2266C83.406 77.2969 83.2731 76.1016 83.1403 75.1719C82.8747 73.1797 82.0778 71.3203 81.5466 69.7266C80.3513 66.6719 79.4216 64.6797 79.156 64.1484C76.1013 57.2422 72.5153 52.3281 72.9138 52.0625ZM15.9372 10.0937C16.07 10.2266 15.8044 10.625 15.6716 11.4219C15.5388 12.2188 15.5388 13.4141 15.6716 15.0078C15.9372 18.1953 16.07 22.4453 16.2028 27.2266C16.2028 28.1562 16.3356 30.6797 16.3356 34.5312C16.3356 36.5234 16.4685 38.7812 16.4685 41.3047C16.4685 42.6328 16.6013 43.9609 17.1325 44.8906C17.3981 45.4219 17.7966 45.8203 18.3278 45.9531C18.8591 46.2187 19.5231 46.2188 20.32 46.2188C26.5622 46.4844 33.7341 46.6172 41.7028 46.75H63.8825C64.945 46.75 66.1403 46.75 67.2028 46.6172C68.2653 46.4844 69.195 45.9531 69.5935 45.1562C69.9919 44.3594 69.8591 43.1641 69.9919 41.9688C70.1247 39.7109 70.1247 37.3203 70.2575 35.0625C70.3903 30.5469 70.3903 26.0312 70.3903 21.7812C70.3903 19.6562 70.3903 17.5312 70.2575 15.5391C70.2575 13.5469 69.9919 11.5547 68.531 10.8906C67.9997 10.625 67.07 10.625 66.1403 10.625H63.3513C61.4919 10.625 59.7653 10.7578 58.0388 10.7578C44.4919 11.0234 35.0622 11.1562 33.3356 11.2891C23.7731 11.4219 15.9372 11.1563 15.9372 10.7578C15.9372 10.3594 23.7731 9.82813 33.3356 9.69531C35.0622 9.69531 43.5622 9.5625 56.0466 9.42969C59.1013 9.42969 62.5544 9.29688 66.1403 9.29688C67.07 9.29688 67.9997 9.29688 69.0622 9.69531C70.1247 10.0938 71.0544 11.0234 71.32 12.0859C71.7185 13.1484 71.7185 14.0781 71.8513 15.1406V18.0625C71.9841 26.0312 71.8513 34.6641 71.4528 43.6953C71.4528 44.3594 71.32 45.0234 71.1872 45.6875C70.9216 46.3516 70.5231 47.0156 69.8591 47.4141C68.6638 48.2109 67.3356 48.3438 66.1403 48.3438C63.7497 48.3438 61.4919 48.4766 59.2341 48.4766C54.7184 48.4766 50.2028 48.6094 45.9528 48.4766C37.4528 48.4766 29.4841 48.2109 22.7106 48.0781C21.9138 48.0781 20.9841 48.0781 20.1872 47.9453C19.3903 47.9453 18.4606 47.8125 17.531 47.2812C16.6013 46.75 16.07 45.9531 15.8044 45.1562C15.5388 44.3594 15.406 43.5625 15.2731 42.8984C15.1403 39.9766 15.1403 37.5859 15.0075 35.4609C14.8747 31.2109 14.7419 28.4219 14.7419 27.4922C14.6091 22.7109 14.6091 18.3281 14.6091 15.1406C14.6091 13.5469 14.7419 12.2188 15.0075 11.2891C15.406 10.3594 15.8044 9.96094 15.9372 10.0937Z" fill="#50BD77"/>
<path id="Vector_11" d="M43.2969 19.6562C43.6953 19.6562 44.2266 20.5859 44.2266 21.7812C44.2266 22.1797 44.4922 26.0312 44.4922 30.5469C44.4922 35.3281 44.3594 39.5781 44.3594 39.9766C44.2266 41.1719 43.8281 42.1016 43.4297 42.1016C43.0313 42.1016 42.7656 41.0391 42.7656 39.8438C42.7656 39.4453 43.1641 35.7266 43.1641 31.2109C43.1641 26.5625 42.6328 22.3125 42.6328 21.9141C42.6328 20.7187 42.8984 19.7891 43.2969 19.6562Z" fill="#50BD77"/>
<path id="Vector_12" d="M62.5547 15.1406C62.4218 15.5391 61.4922 15.6719 60.4297 15.5391C60.0312 15.5391 56.4453 14.7422 52.3281 15.6719C47.9453 16.6016 44.3593 18.8594 44.4922 18.9922C43.9609 19.5234 43.6953 20.1875 43.2968 20.4531C43.0312 20.4531 42.7656 20.3203 42.7656 19.7891C42.6328 19.2578 42.7656 18.5938 43.2968 17.9297C43.4297 17.7969 43.6953 17.5313 44.0937 17.2656C44.4922 17 45.1562 16.7344 45.8203 16.3359C47.2812 15.6719 49.1406 15.0078 51.2656 14.4766C55.914 13.2812 60.164 13.8125 60.5625 13.9453C61.7578 14.0781 62.6875 14.6094 62.5547 15.1406ZM62.4218 38.1172C62.1562 38.5156 61.2265 38.3828 60.164 37.9844C60.0312 37.9844 59.1015 37.5859 57.6406 37.1875C56.1797 36.9219 54.3203 36.6562 52.1953 37.0547C50.0703 37.4531 48.0781 38.3828 46.75 39.1797C45.4218 40.1094 44.625 40.7734 44.4922 40.9062C43.6953 41.7031 42.7656 42.1016 42.5 41.8359C42.2343 41.5703 42.5 40.5078 43.4297 39.7109C43.6953 39.4453 46.75 36.7891 51.1328 35.7266C53.5234 35.1953 55.7812 35.1953 57.5078 35.4609C59.2343 35.7266 60.2968 36.125 60.5625 36.2578C62.0234 36.9219 62.6875 37.7188 62.4218 38.1172Z" fill="#50BD77"/>
<path id="Vector_13" d="M62.2891 37.9844C61.8906 37.9844 61.4922 37.0547 61.4922 35.7266V26.8281C61.3594 22.0469 61.0938 17.6641 61.0938 17.2656C61.0938 16.0703 61.3594 15.0078 61.8906 15.0078C62.2891 15.0078 62.6875 15.9375 62.6875 17.2656V26.1641C62.8203 30.9453 62.9531 35.3281 62.9531 35.8594C63.0859 37.0547 62.6875 37.9844 62.2891 37.9844Z" fill="#50BD77"/>
<path id="Vector_14" d="M62.5557 15.1406C62.4229 15.5391 61.4932 15.6719 60.4307 15.5391C60.0323 15.5391 56.4463 14.7422 52.3292 15.6719C47.9463 16.6016 44.3604 18.8594 44.4932 18.9922C43.962 19.5234 43.6963 20.1875 43.2979 20.4531C43.0323 20.4531 42.7667 20.3203 42.7667 19.7891C42.6338 19.2578 42.7667 18.5938 43.2979 17.9297C43.4307 17.7969 43.6963 17.5313 44.0948 17.2656C44.4932 17 45.1573 16.7344 45.8213 16.3359C47.2823 15.6719 49.1417 15.0078 51.2667 14.4766C55.9151 13.2812 60.1651 13.8125 60.5635 13.9453C61.7588 14.0781 62.6885 14.6094 62.5557 15.1406Z" fill="#50BD77"/>
<path id="Vector_15" d="M62.29 37.9846C61.8916 37.9846 61.4931 37.0549 61.4931 35.7268V26.8284C61.3603 22.0471 61.0947 17.6643 61.0947 17.2659C61.0947 16.0705 61.3603 15.008 61.8916 15.008C62.29 15.008 62.6884 15.9377 62.6884 17.2659V26.1643C62.8212 30.9455 62.9541 35.3284 62.9541 35.8596C63.0869 37.0549 62.6884 37.9846 62.29 37.9846ZM23.5087 15.1409C23.3759 14.7424 24.3056 14.2112 25.5009 13.9455C25.8994 13.9455 29.7509 13.4143 34.1337 14.344C36.3916 14.7424 38.5166 15.5393 40.1103 16.3362L41.9697 17.2659C42.5009 17.5315 42.7666 17.9299 42.8994 17.9299C43.4306 18.4612 43.5634 19.258 43.4306 19.7893C43.2978 20.3205 43.0322 20.5862 42.8994 20.4534C42.5009 20.3205 42.2353 19.6565 41.7041 18.9924C41.7041 18.7268 38.6494 16.7346 34.5322 15.8049C30.1494 14.7424 26.165 15.4065 25.7666 15.5393C24.5712 15.6721 23.6416 15.5393 23.5087 15.1409ZM23.6416 38.1174C23.3759 37.719 24.1728 36.9221 25.2353 36.5237C25.6337 36.3909 29.3525 34.9299 34.0009 35.8596C36.3916 36.258 38.5166 37.1877 39.9775 38.1174C41.4384 39.0471 42.3681 39.844 42.5009 39.9768C43.4306 40.7737 43.8291 41.8362 43.4306 42.1018C43.0322 42.3674 42.2353 41.969 41.4384 41.1721C41.3056 41.0393 40.6416 40.3752 39.4462 39.5784C38.2509 38.7815 36.5244 37.8518 34.5322 37.4534C32.4072 36.9221 30.2822 37.0549 28.6884 37.3205C27.0947 37.5862 26.165 38.1174 25.8994 38.1174C24.8369 38.383 23.9072 38.5159 23.6416 38.1174Z" fill="#50BD77"/>
<path id="Vector_16" d="M23.7734 37.9844C23.375 37.9844 22.9766 36.9219 22.9766 35.7266C22.9766 35.3281 23.1094 31.4766 23.2422 26.8281C23.375 22.0469 23.2422 17.6641 23.2422 17.2656C23.2422 16.0703 23.6406 15.0078 24.0391 15.0078C24.4375 15.0078 24.8359 16.0703 24.8359 17.2656C24.8359 17.6641 24.7031 21.5156 24.5703 26.1641C24.4375 30.9453 24.5703 35.3281 24.5703 35.8594C24.7031 37.0547 24.3047 37.9844 23.7734 37.9844ZM58.3047 19.9219C58.3047 20.3203 57.7734 20.7188 57.1094 20.7188C56.8438 20.7188 54.9844 20.5859 52.5937 21.25C50.2031 21.9141 48.3438 23.1094 48.2109 23.2422C47.6797 23.5078 47.0156 23.5078 46.8828 23.1094C46.6172 22.7109 46.8828 22.1797 47.4141 21.7812C47.6797 21.6484 49.5391 20.7188 51.9297 20.0547C54.4531 19.2578 56.8438 19.125 57.1094 19.125C57.7734 19.125 58.3047 19.5234 58.3047 19.9219ZM58.8359 24.9687C58.7031 25.3672 58.1719 25.6328 57.6406 25.6328C57.375 25.6328 55.5156 25.3672 53.2578 25.7656C50.8672 26.2969 49.1406 27.4922 48.875 27.4922C48.3438 27.7578 47.8125 27.7578 47.5469 27.3594C47.2812 26.9609 47.5469 26.4297 48.0781 26.0312C48.3438 25.8984 50.2031 24.9687 52.5937 24.4375C55.1172 23.7734 57.5078 23.9062 57.6406 23.9062C58.4375 24.1719 58.9688 24.5703 58.8359 24.9687ZM58.7031 29.75C58.5703 30.1484 58.0391 30.4141 57.5078 30.4141C57.2422 30.4141 55.3828 30.0156 53.125 30.4141C51.9297 30.6797 50.8672 30.9453 50.0703 31.3438C49.2734 31.7422 49.0078 32.0078 48.875 32.1406C48.4766 32.4062 48.0781 32.6719 47.6797 32.5391C47.2813 32.4062 47.1484 31.6094 47.8125 31.0781C47.9453 30.9453 48.4766 30.5469 49.2734 30.1484C50.0703 29.8828 51.2656 29.4844 52.4609 29.2188C54.9844 28.6875 57.375 28.8203 57.6406 28.8203C58.4375 28.9531 58.8359 29.3516 58.7031 29.75ZM28.1563 19.9219C28.1563 19.5234 28.6875 19.125 29.3516 19.125C29.6172 19.125 31.7422 19.2578 34.1328 19.9219C36.6563 20.5859 38.7813 21.6484 39.0469 21.7812C39.5781 22.1797 39.8438 22.7109 39.5781 23.1094C39.3125 23.5078 38.7812 23.5078 38.25 23.2422C38.1172 23.1094 36.3906 22.0469 34.1328 21.3828C31.7422 20.7188 29.4844 20.8516 29.3516 20.8516C28.6875 20.7187 28.1563 20.4531 28.1563 19.9219ZM27.4922 24.9687C27.3594 24.5703 27.8906 24.0391 28.5547 24.0391C28.8203 24.0391 30.9453 23.9062 33.3359 24.4375C35.8594 24.9687 37.9844 26.0313 38.1172 26.1641C38.6484 26.4297 38.9141 27.0938 38.6484 27.4922C38.3828 27.8906 37.8516 27.8906 37.3203 27.625C37.1875 27.4922 35.5938 26.4297 33.3359 25.8984C30.9453 25.3672 28.8203 25.6328 28.6875 25.6328C28.1563 25.7656 27.625 25.5 27.4922 24.9687ZM27.625 29.75C27.4922 29.3516 28.0234 28.8203 28.6875 28.8203C28.9531 28.8203 31.0781 28.6875 33.4688 29.0859C34.7969 29.3516 35.9922 29.6172 36.9219 30.0156C37.8516 30.4141 38.5156 30.8125 38.5156 30.9453C39.1797 31.4766 39.0469 32.4062 38.6484 32.4062C38.25 32.5391 37.8516 32.4062 37.4531 32.0078C37.4531 32.0078 37.0547 31.6094 36.3906 31.3438C35.7266 31.0781 34.6641 30.6797 33.6016 30.4141C31.2109 29.8828 29.0859 30.2812 28.8203 30.2812C28.2891 30.4141 27.625 30.1484 27.625 29.75ZM29.0859 73.5781C28.8203 73.4453 28.9531 72.9141 28.6875 71.8516C28.5547 71.3203 28.2891 70.7891 28.1563 69.8594C28.0234 69.0625 28.0234 68 28.8203 67.0703C28.9531 66.9375 29.3516 66.5391 29.8828 66.4062C30.5469 66.2734 31.0781 66.2734 31.7422 66.2734C33.0703 66.2734 34.9297 66.2734 37.1875 66.4062C39.4453 66.4062 41.9688 66.5391 44.7578 66.5391C46.2188 66.5391 47.6797 66.5391 49.1406 66.6719H51.3984C52.0625 66.6719 53.125 66.5391 54.0547 67.2031C54.9844 67.8672 55.25 68.9297 55.3828 69.8594C55.5156 70.7891 55.5156 71.5859 55.3828 72.5156C55.3828 72.9141 55.25 73.4453 54.9844 73.8438C54.7188 74.2422 54.3203 74.6406 53.7891 74.9063C52.7266 75.3047 51.9297 75.1719 51.2656 75.1719C48.2109 75.1719 45.5547 75.0391 43.0313 75.0391C38.25 74.9062 34.9297 74.9063 34.2656 74.9063C30.9453 74.7734 28.1563 74.375 28.1563 73.9766C28.1563 73.5781 30.9453 73.1797 34.2656 73.3125C34.9297 73.3125 37.8516 73.4453 42.2344 73.5781C44.3594 73.5781 47.0156 73.7109 49.8047 73.8438H51.9297C52.5937 73.8438 53.125 73.8438 53.5234 73.4453C54.1875 72.7812 54.1875 70.9219 53.9219 69.5938C53.7891 68.9297 53.3906 68.3984 52.9922 68.1328C52.4609 68 51.6641 68 50.8672 68H32.0078C31.2109 68 30.6797 68 30.4141 68.1328C30.1484 68.2656 30.0156 68.2656 30.0156 68.3984C29.75 68.6641 29.6172 69.4609 29.6172 69.9922C29.6172 70.6563 29.75 71.3203 29.75 71.8516C29.8828 72.9141 29.2188 73.7109 29.0859 73.5781Z" fill="#50BD77"/>
</g>
</svg>
