<svg width="20" height="21" viewBox="0 0 20 21" fill="none" xmlns="http://www.w3.org/2000/svg">
<g id="facebook">
<path id="Vector" d="M12.1046 4.88857H14.2292C14.3599 4.88857 14.4906 4.79051 14.4906 4.62709V1.32593C14.4906 1.19519 14.3926 1.06445 14.2292 1.06445H11.3202C9.88208 1.06445 8.80348 1.42399 8.05173 2.17573C7.36536 2.86211 7.03851 3.77729 7.03851 4.98662V7.33992H5.37159C5.24085 7.33992 5.11011 7.43798 5.11011 7.6014V10.8045C5.11011 10.9352 5.20816 11.066 5.37159 11.066H7.03851V20.2831C7.03851 20.4138 7.13656 20.5446 7.29999 20.5446H11.2222C11.3529 20.5446 11.4836 20.4465 11.4836 20.2831V11.0333H13.8696C14.0004 11.0333 14.0984 10.9352 14.0984 10.8372C14.0984 10.8372 14.3599 9.26832 14.4579 7.6014C14.4579 7.53603 14.4253 7.47066 14.3926 7.40529C14.3599 7.33992 14.2945 7.33992 14.2292 7.33992H11.4836V5.41152C11.4836 5.21542 11.8105 4.88857 12.1046 4.88857ZM11.2548 7.8302H13.9677C13.8696 9.00685 13.7062 10.1181 13.6408 10.543H11.2222C11.0914 10.543 10.9607 10.6411 10.9607 10.8045V20.0543H7.56146V10.8045C7.56146 10.6738 7.46341 10.543 7.29999 10.543H5.63306V7.86288H7.29999C7.43072 7.86288 7.56146 7.76483 7.56146 7.6014V4.95394C7.56146 3.90803 7.85563 3.12359 8.41127 2.53527C9.06496 1.88157 10.0455 1.55472 11.3202 1.55472H14.0004V4.3983H12.1046C11.5817 4.3983 10.9934 4.92125 10.9934 5.41152V7.6014C10.9934 7.73214 11.1241 7.8302 11.2548 7.8302Z" fill="#50BD77" stroke="#50BD77" stroke-width="0.326847"/>
</g>
</svg>
