<svg width="17" height="16" viewBox="0 0 17 16" fill="none" xmlns="http://www.w3.org/2000/svg">
<g id="Footer arrows">
<path id="Vector" fill-rule="evenodd" clip-rule="evenodd" d="M4.11161 1.08685C4.32134 0.697681 4.80687 0.552246 5.19612 0.76202L4.81626 1.46667C5.19613 0.76202 5.19612 0.76202 5.19612 0.76202L5.19826 0.763183L5.20274 0.765617L5.21865 0.774262L5.27681 0.806325C5.32698 0.834139 5.39945 0.874698 5.49103 0.927019C5.67397 1.03161 5.93365 1.18347 6.24467 1.37473C6.86501 1.75633 7.69657 2.2992 8.53229 2.94036C9.3631 3.57787 10.224 4.33226 10.8846 5.14056C11.5295 5.92988 12.0741 6.88029 12.0741 7.89522C12.0741 8.91046 11.5297 9.86135 10.8847 10.6511C10.2242 11.4598 9.36331 12.2146 8.53239 12.8523C7.69678 13.4938 6.86511 14.0369 6.24478 14.4186C5.93376 14.61 5.67408 14.7619 5.49114 14.8665C5.39956 14.9188 5.32709 14.9595 5.27692 14.9872L5.21875 15.0193L5.20285 15.028L5.19837 15.0304L5.19698 15.0312C5.19698 15.0312 5.19613 15.0316 4.81626 14.327L5.19698 15.0312C4.80783 15.2409 4.32145 15.096 4.11171 14.7068C3.90188 14.3178 4.04714 13.8324 4.43618 13.6224L4.43907 13.6209L4.45091 13.6144L4.50065 13.5871C4.54505 13.5624 4.61133 13.5253 4.6964 13.4767C4.86653 13.3794 5.11127 13.2363 5.40575 13.0551C5.99609 12.6918 6.77887 12.1801 7.55749 11.5824C8.34102 10.981 9.09434 10.3122 9.64466 9.63838C10.2105 8.94569 10.4731 8.35502 10.4731 7.89522C10.4731 7.43616 10.2106 6.84603 9.64477 6.15354C9.09456 5.48017 8.34113 4.81167 7.55771 4.21055C6.77898 3.61306 5.9962 3.10155 5.40586 2.73841C5.11138 2.55732 4.86664 2.41422 4.69651 2.31695C4.61144 2.26835 4.54516 2.23125 4.50076 2.20663L4.45102 2.17922L4.43917 2.17279L4.43661 2.17143M4.11161 1.08685C3.90188 1.47597 4.04757 1.96162 4.43661 2.17143L4.11161 1.08685Z" fill="#50BD77"/>
</g>
</svg>
