<svg width="46" height="45" viewBox="0 0 46 45" fill="none" xmlns="http://www.w3.org/2000/svg">
<path id="Vector" d="M43.8449 20.4305C43.8516 20.4174 43.8933 20.3346 43.9194 20.0155C43.9471 19.6765 43.9483 19.2256 43.9483 18.5V13C43.9483 12.2744 43.9471 11.8235 43.9194 11.4845C43.8933 11.1654 43.8516 11.0826 43.8449 11.0695C43.8449 11.0694 43.8448 11.0693 43.8448 11.0693C43.7539 10.891 43.6089 10.746 43.4305 10.6551C43.4174 10.6484 43.3346 10.6067 43.0155 10.5806C42.6765 10.5529 42.2256 10.5517 41.5 10.5517H37.625C36.6167 10.5517 35.6497 10.1512 34.9368 9.43822C34.2238 8.72526 33.8233 7.75828 33.8233 6.75C33.8233 5.37133 33.2756 4.04913 32.3007 3.07427L33.1727 2.20229L32.3007 3.07426C31.3259 2.0994 30.0037 1.55172 28.625 1.55172C27.2463 1.55172 25.9241 2.0994 24.9493 3.07426C23.9744 4.04913 23.4267 5.37133 23.4267 6.75C23.4267 7.75828 23.0262 8.72526 22.3132 9.43823C21.6003 10.1512 20.6333 10.5517 19.625 10.5517H15.75C15.0244 10.5517 14.5735 10.5529 14.2345 10.5806C13.9154 10.6067 13.8326 10.6484 13.8195 10.6551L43.8449 20.4305ZM43.8449 20.4305C43.754 20.6089 43.6091 20.7539 43.4307 20.8448L43.8449 20.4305ZM12.8602 21.8393L12.8601 21.8395C12.4716 22.6018 11.8518 23.2216 11.0895 23.6101L11.0893 23.6102C10.5667 23.8764 10.0311 23.9706 9.51824 24.0125C9.03751 24.0518 8.45819 24.0518 7.80702 24.0517L7.75 24.0517H7.25C6.56735 24.0517 5.89139 24.1862 5.2607 24.4474C4.63002 24.7087 4.05697 25.0916 3.57426 25.5743C3.09156 26.057 2.70866 26.63 2.44742 27.2607L1.02217 26.6703L2.44742 27.2607C2.18618 27.8914 2.05172 28.5674 2.05172 29.25C2.05172 29.9326 2.18618 30.6086 2.44742 31.2393C2.70866 31.87 3.09156 32.443 3.57426 32.9257C4.05697 33.4084 4.63002 33.7913 5.26071 34.0526C5.89139 34.3138 6.56735 34.4483 7.25 34.4483H7.75H7.80694C8.45814 34.4482 9.03749 34.4482 9.51825 34.4875C10.0311 34.5294 10.5667 34.6236 11.0893 34.8898L11.0895 34.8899C11.8518 35.2784 12.4716 35.8982 12.8601 36.6605L12.8602 36.6607C13.1264 37.1833 13.2206 37.7189 13.2625 38.2318C13.3018 38.7125 13.3018 39.2918 13.3017 39.943L13.3017 40V41C13.3017 41.7256 13.3029 42.1765 13.3306 42.5155C13.3567 42.8346 13.3984 42.9174 13.4051 42.9305L12.8602 21.8393ZM12.8602 21.8393C13.1264 21.3167 13.2206 20.7811 13.2625 20.2682C13.3018 19.7875 13.3018 19.2082 13.3017 18.557L13.3017 18.5V13C13.3017 12.2744 13.3029 11.8235 13.3306 11.4845C13.3567 11.1654 13.3984 11.0826 13.4051 11.0695M12.8602 21.8393L13.4051 11.0695M43.0155 20.9194C43.3346 20.8933 43.4174 20.8516 43.4305 20.8449L43.0155 20.9194ZM43.0155 20.9194C42.6765 20.9471 42.2256 20.9483 41.5 20.9483M43.0155 20.9194L41.5 20.9483M41.5 20.9483H41C38.7982 20.9483 36.6867 21.8229 35.1298 23.3798C33.5729 24.9367 32.6983 27.0482 32.6983 29.25C32.6983 31.4518 33.5729 33.5633 35.1298 35.1202C36.6867 36.6771 38.7982 37.5517 41 37.5517H41.5C42.2256 37.5517 42.6765 37.5529 43.0155 37.5806C43.3358 37.6068 43.418 37.6487 43.4307 37.6552L43.4307 37.6552C43.609 37.7461 43.7539 37.891 43.8448 38.0693C43.8448 38.0693 43.8449 38.0694 43.8449 38.0695C43.8516 38.0826 43.8933 38.1654 43.9194 38.4845C43.9471 38.8235 43.9483 39.2744 43.9483 40V41C43.9483 41.7256 43.9471 42.1765 43.9194 42.5155C43.8933 42.8346 43.8516 42.9174 43.8449 42.9305C43.8449 42.9306 43.8448 42.9307 43.8448 42.9307C43.7539 43.109 43.609 43.2539 43.4307 43.3448C43.4307 43.3448 43.4306 43.3449 43.4305 43.3449C43.4174 43.3516 43.3346 43.3933 43.0155 43.4194C42.6765 43.4471 42.2256 43.4483 41.5 43.4483H15.75C15.0244 43.4483 14.5735 43.4471 14.2345 43.4194C13.9154 43.3933 13.8326 43.3516 13.8195 43.3449M41.5 20.9483L13.8195 43.3449M13.4051 11.0695C13.4051 11.0694 13.4052 11.0693 13.4052 11.0693M13.4051 11.0695L13.4052 11.0693M13.4052 11.0693C13.4961 10.891 13.641 10.7461 13.8193 10.6552L13.4052 11.0693ZM13.8195 43.3449C13.8194 43.3449 13.8193 43.3448 13.8193 43.3448M13.8195 43.3449L13.8193 43.3448M13.8193 43.3448C13.641 43.2539 13.496 43.109 13.4052 42.9307L13.8193 43.3448Z" stroke="#192F59" stroke-width="3.10345" stroke-linecap="round" stroke-linejoin="round"/>
</svg>
