<svg width="80" height="80" viewBox="0 0 80 80" fill="none" xmlns="http://www.w3.org/2000/svg">
<g id="goal">
<path id="Vector" d="M76.2119 72.6177C74.8344 72.8243 73.4436 72.965 72.0465 73.0641C72.2737 62.2376 65.8687 23.4912 51.7456 46.8083C49.4797 41.2348 45.3638 34.5083 38.6616 34.6101C38.7309 30.9646 38.0202 27.2823 37.9847 23.6115C45.5162 22.7114 52.9325 20.1679 60.3749 18.5505C63.0568 16.5883 54.983 14.1921 53.7939 12.7824C55.1623 9.61754 64.8597 2.14528 56.3227 3.1885C49.9596 3.55194 43.4406 3.66095 37.1866 4.83758C33.1358 1.66883 36.5399 31.6178 37.0806 34.7634C32.1035 35.5494 29.7558 41.0258 27.6618 45.0695C13.945 24.9027 7.66253 65.1872 8.76289 74.5374C-16.3392 79.8104 36.6754 74.5702 40.1393 75.1172C43.3081 74.2399 87.1397 79.3686 76.2119 72.6177ZM52.891 48.6089C62.5548 33.6864 64.5031 45.0016 67.4859 55.832C63.9123 63.221 63.5588 45.0567 55.8621 56.9394C54.9174 54.1901 53.8089 51.5034 52.6467 48.8392C52.7334 48.7759 52.8192 48.7083 52.891 48.6089ZM42.1671 6.41787C47.2168 6.14418 52.2947 5.96365 57.3043 5.2514C52.7908 11.7128 47.5779 12.7193 57.5143 17.1991C50.9803 18.4862 44.3055 19.5806 37.8925 21.2766C37.6167 16.33 37.6904 11.3641 37.4019 6.42335C38.9653 6.64949 40.6064 6.48698 42.1671 6.41787ZM37.3367 37.187C44.886 36.0955 48.0395 44.8889 50.5219 50.4518C49.2846 51.302 48.677 53.3789 46.7975 52.3197C38.0104 47.4482 41.0691 66.9041 37.8298 60.6729C32.3759 44.1619 27.4921 58.4001 27.365 51.0334C30.3755 46.3527 31.7292 39.3023 37.3367 37.187ZM13.9501 52.2287C16.5023 43.3057 19.4058 36.0035 26.5877 47.1495C24.908 50.4088 23.2606 53.6876 21.8365 57.0684C20.3459 52.7211 15.8326 52.5494 13.8134 56.5003C13.9069 56.5319 13.6123 56.3927 13.6991 56.4585C13.3976 56.2155 13.3162 55.9322 13.1823 55.5886C13.4055 54.4622 13.6532 53.3405 13.9501 52.2287ZM13.863 56.5159C13.9063 56.5257 13.9239 56.5342 13.863 56.5159V56.5159ZM11.6986 74.3299C11.5188 74.3467 11.3338 74.3593 11.1513 74.3739C11.9069 69.1919 11.7311 63.803 12.66 58.6032C14.6239 59.6596 16.217 57.8709 17.0267 56.2559C16.9679 56.3304 17.3154 55.9801 17.1786 56.0836C19.4093 55.0909 19.4983 58.5831 20.921 59.2947C19.0621 63.9971 17.6179 68.853 16.8378 73.8617C15.1238 74.0103 13.4107 74.1701 11.6986 74.3299ZM39.5209 72.5524C32.6942 72.765 25.8674 73.1982 19.0558 73.6898C20.3563 67.069 22.786 60.6458 25.6949 54.4606C27.1023 57.1951 29.7691 55.193 31.6039 54.3082C35.3869 55.9092 34.3357 63.0006 38.6753 64.1401C44.1073 64.0305 40.2396 55.7006 44.4207 53.7313C46.8666 55.0052 49.5081 55.4656 51.4779 52.7777C54.1819 59.2849 56.0512 66.0691 57.5709 72.928C51.5561 72.6032 45.5459 72.383 39.5209 72.5524ZM60.5192 73.0769C59.4487 67.963 57.9762 62.919 56.2363 57.9866C57.7186 57.7042 58.0276 56.0744 58.9663 55.1396C63.4193 51.7305 61.8949 63.568 68.0547 59.2366C68.7065 63.8849 68.9957 68.5202 69.2042 73.2074C66.3093 73.2914 63.3998 73.2114 60.5192 73.0769Z" fill="#50BD77"/>
</g>
</svg>
