<svg width="25" height="24" viewBox="0 0 25 24" fill="none" xmlns="http://www.w3.org/2000/svg">
<g id="home">
<path id="Vector" d="M6.62909 20.9998C5.45109 20.9998 4.49609 20.0198 4.49609 18.8098V10.0078C4.49609 9.34279 4.79109 8.71279 5.29609 8.29779L11.1631 3.47979C11.538 3.16937 12.0094 2.99951 12.4961 2.99951C12.9828 2.99951 13.4542 3.16937 13.8291 3.47979L19.6951 8.29779C20.2011 8.71279 20.4961 9.34279 20.4961 10.0078V18.8098C20.4961 20.0198 19.5411 20.9998 18.3631 20.9998H6.62909Z" stroke="#50BD77" stroke-width="1.5" stroke-linecap="round" stroke-linejoin="round"/>
<path id="Vector_2" d="M9.99609 21V15.5C9.99609 14.9696 10.2068 14.4609 10.5819 14.0858C10.957 13.7107 11.4657 13.5 11.9961 13.5H12.9961C13.5265 13.5 14.0352 13.7107 14.4103 14.0858C14.7854 14.4609 14.9961 14.9696 14.9961 15.5V21" stroke="#50BD77" stroke-width="1.5" stroke-linecap="round" stroke-linejoin="round"/>
</g>
</svg>
