<svg width="80" height="80" viewBox="0 0 80 80" fill="none" xmlns="http://www.w3.org/2000/svg">
<g id="increase-business">
<path id="Vector" d="M4.30078 47.9554C4.39327 48.0495 4.50263 48.1142 4.61852 48.1581C5.00462 48.8232 5.5981 49.298 6.28457 49.4922C6.46717 50.7314 7.02683 52.4071 7.25022 53.1371C8.01229 55.6277 9.04831 58.0502 10.5157 60.2099C15.7713 67.9453 26.6416 69.6168 26.6188 64.3018C27.3698 64.5668 28.0702 64.6376 28.6258 64.7856C30.8105 65.3713 32.6153 64.2411 32.9341 62.5221C34.7495 62.5584 35.9785 61.2513 36.1799 59.7994C37.4198 59.9082 38.3608 59.5483 38.9573 58.454C39.418 57.6567 39.2807 56.255 38.8533 55.5783C38.3295 54.7557 37.7405 54.1664 37.0688 53.6385C38.1472 52.0152 40.3511 48.8763 42.1709 46.2958C45.1378 48.0172 48.2258 49.6209 51.2124 51.3233C52.0633 51.8082 53.0911 51.8781 53.984 51.4756C54.7547 51.1282 55.5337 50.7703 56.2798 50.4543C56.5931 50.5258 56.931 50.4239 57.1489 50.1682C60.7407 45.9322 64.7884 39.7912 68.1779 34.7762C70.3384 36.4303 72.974 38.1056 75.1025 39.7582C75.6623 39.5127 76.1635 39.2728 76.6774 39.0317C77.2647 39.2035 77.7914 38.7655 77.8038 38.2116L78.3365 13.8229C78.6344 13.0898 77.9419 12.4423 77.2655 12.6532L52.6406 20.4037C52.0392 20.5935 51.8193 21.3405 52.2429 21.825C52.1594 22.7511 51.9328 23.7484 51.8969 24.8395C54.1148 26.267 56.1208 27.7172 58.1478 29.3665C56.4549 31.7487 54.8269 34.0776 53.5442 35.7449C49.5306 33.022 45.8805 30.815 41.6939 28.377C41.2861 28.1415 40.7622 28.2656 40.5071 28.6631C39.6669 29.9738 37.2454 33.1007 32.3196 39.6363C28.6621 39.412 22.4108 39.6137 17.7353 40.4374C18.425 39.0431 17.5547 37.7063 16.2029 37.282C15.7515 36.7931 10.6887 32.4848 8.49138 30.5783C8.12201 30.2578 7.56422 30.2992 7.24655 30.6668C6.92716 31.0344 6.9668 31.5917 7.33444 31.9111C9.95135 34.1814 11.4731 35.4483 13.6671 37.375C11.6395 37.926 9.58648 38.7256 7.92096 39.9315C6.06813 41.2714 4.57222 43.2359 4.21095 45.5112C3.81559 45.1804 3.43767 44.8648 3.10248 44.5225C2.76183 44.1755 2.2029 44.1698 1.85421 44.511C1.50666 44.8522 1.50092 45.4106 1.84214 45.7587C2.6206 46.5523 3.60143 47.2401 4.30078 47.9554ZM41.5164 30.3164C45.6088 32.7095 49.2186 34.9143 53.23 37.6659C53.6103 37.9278 54.1284 37.8509 54.418 37.4901C56.3667 35.0577 59.4463 30.4987 61.8312 27.2764C62.1292 26.8735 62.0322 26.2995 61.6129 26.0184L54.9235 21.5354L76.5512 14.729L76.0781 36.3963C69.4591 31.2636 69.5775 30.9573 68.9079 31.062C68.6654 31.0976 68.4494 31.2332 68.311 31.4354C64.3305 37.2556 60.1256 43.7917 56.2947 48.4379C52.4754 46.0435 48.2545 43.7523 44.5191 41.3665C44.121 41.1126 43.5925 41.2171 43.3213 41.6032C40.8895 45.0479 37.1896 50.275 35.6413 52.5985C32.191 50.0668 30.578 48.89 28.82 47.2052C29.0451 47.0912 29.2117 46.8829 29.2754 46.6335C32.4686 42.3109 40.0317 32.425 41.5164 30.3164ZM6.02011 45.414C6.88289 41.9178 10.4339 40.1421 13.8791 39.1468C14.3956 38.9963 14.9005 38.8688 15.3601 38.9044C15.7277 38.9354 16.0557 39.1055 16.1758 39.3272C16.448 39.8298 14.9309 40.8814 14.751 41.0767C14.2866 41.2083 14.011 41.6869 14.1371 42.1546C14.2644 42.6279 14.7521 42.9025 15.2182 42.7773C20.0782 41.4693 27.676 41.2065 31.0376 41.3387C29.6601 43.1688 28.4402 44.7946 27.8859 45.5442C27.6398 45.5292 27.3864 45.4841 27.2316 45.4474C26.4809 45.0402 25.4974 45.9415 26.1017 46.7594C26.5233 47.4475 27.2677 48.1678 27.852 48.7194C29.8711 50.6188 30.1275 50.6466 31.1407 51.4526C35.516 54.8128 36.417 55.0375 37.3632 56.5239C37.4809 56.7169 37.5206 57.3764 37.4183 57.5901C36.7721 58.7756 34.9266 57.4711 33.7137 56.7318C33.0247 56.3307 33.0915 56.4759 31.2654 54.9453L30.8564 54.6041C30.4784 54.2962 29.9229 54.3548 29.615 54.7316C29.3071 55.1096 29.364 55.6657 29.742 55.9736C31.013 56.9832 31.184 57.308 32.8285 58.2587C33.5749 58.7057 33.9698 58.9454 34.4246 59.1862C34.4292 59.2328 34.4206 59.2781 34.4329 59.3249C34.5363 59.7167 34.1267 60.4278 33.6901 60.6128C32.4214 61.1541 32.1831 60.4384 28.1076 57.5694C27.7107 57.289 27.1587 57.3821 26.8778 57.7808C26.5968 58.1794 26.6916 58.7298 27.0897 59.0101C29.7189 60.8695 30.1297 61.3148 31.2032 61.99C31.2307 62.3103 31.0524 62.6937 30.7375 62.906C30.0005 63.4035 29.1634 63.0802 28.2737 62.9037C26.824 62.6221 27.0926 62.6025 25.9305 61.8927C25.4681 61.61 24.9895 61.3182 24.5627 60.9552C24.1893 60.6392 23.6333 60.6863 23.319 61.0574C23.0037 61.4285 23.0491 61.9857 23.4207 62.3017C23.7954 62.6189 24.1776 62.8726 24.5487 63.1071C24.5653 63.1422 24.5691 63.1804 24.5909 63.2139C24.8647 63.6366 25.0454 64.9022 24.5375 65.0338C19.972 66.2381 9.61028 56.4177 9.25655 47.3017C9.21558 46.2514 7.76444 46.1542 7.53083 47.1367C7.39757 47.4153 7.52557 47.5118 7.31664 47.69C6.85516 48.0978 6.23112 47.6322 6.02068 47.0685C5.85754 46.6307 5.85754 46.0735 6.02011 45.414Z" fill="#50BD77"/>
<path id="Vector_2" d="M9.52838 36.1766C9.60586 35.6653 9.23792 35.1258 8.73348 35.0114L8.43484 34.9881C7.91877 35.0228 7.47149 35.4986 7.46876 36.0158C7.46596 36.5331 7.90814 37.0137 8.42378 37.0539C8.93942 37.0942 9.45083 36.688 9.52838 36.1766ZM21.7203 27.5682C21.4107 27.1902 20.8552 27.1362 20.4789 27.443C20.1015 27.752 20.0458 28.3081 20.3543 28.685C21.7312 30.3692 23.4718 31.8031 25.3882 32.8313C25.5209 32.9026 25.6633 32.9359 25.8047 32.9359C26.7179 32.9359 27.0288 31.7092 26.2223 31.2757C24.5087 30.3566 22.9519 29.0744 21.7203 27.5682ZM28.8435 23.5999C28.3569 23.6252 27.983 24.0411 28.0088 24.5271L28.2891 29.8557C28.3154 30.3555 28.7524 30.7241 29.2169 30.6909C29.7034 30.6657 30.0774 30.2497 30.0516 29.7638L29.7712 24.4352C29.7459 23.948 29.3352 23.5517 28.8435 23.5999ZM35.2451 28.0967L32.7216 30.9012C32.3953 31.2631 32.4246 31.8214 32.7865 32.1477C33.1498 32.474 33.7067 32.4435 34.0325 32.0822L36.5572 29.2778C36.8829 28.9147 36.8536 28.3575 36.4911 28.0312C36.1286 27.7038 35.5691 27.736 35.2451 28.0967Z" fill="#50BD77"/>
</g>
</svg>
