<svg width="20" height="20" viewBox="0 0 20 20" fill="none" xmlns="http://www.w3.org/2000/svg">
<g id="instagram" clip-path="url(#clip0_6161_10641)">
<path id="Vector" d="M15.3032 0.363281H4.31041C2.06206 0.363281 0.231201 2.19414 0.231201 4.44249V15.1672C0.231201 17.4155 2.06206 19.2464 4.31041 19.2464H15.3032C17.5516 19.2464 19.3824 17.4155 19.3824 15.1672V4.44249C19.3824 2.19414 17.5516 0.363281 15.3032 0.363281ZM18.6164 15.1672C18.6164 16.9942 17.1302 18.4803 15.3032 18.4803H4.31041C2.48338 18.4803 0.99725 16.9942 0.99725 15.1672V4.44249C0.99725 2.61546 2.48338 1.12933 4.31041 1.12933H15.3032C17.1302 1.12933 18.6164 2.61546 18.6164 4.44249V15.1672Z" fill="#50BD77"/>
<path id="Vector_2" d="M9.80568 5.09397C7.20878 5.09397 5.09448 7.20827 5.09448 9.80517C5.09448 12.4021 7.20878 14.5164 9.80568 14.5164C12.4026 14.5164 14.5169 12.4021 14.5169 9.80517C14.5169 7.20827 12.4026 5.09397 9.80568 5.09397ZM9.80568 13.7503C7.6301 13.7503 5.86053 11.9808 5.86053 9.80517C5.86053 7.62959 7.6301 5.86002 9.80568 5.86002C11.9813 5.86002 13.7508 7.62959 13.7508 9.80517C13.7508 11.9808 11.9813 13.7503 9.80568 13.7503ZM15.3863 3.13672C14.6663 3.13672 14.0802 3.72275 14.0802 4.44283C14.0802 5.16292 14.6663 5.74894 15.3863 5.74894C16.1064 5.74894 16.6925 5.16292 16.6925 4.44283C16.6925 3.72275 16.1064 3.13672 15.3863 3.13672ZM15.3863 4.9829C15.0876 4.9829 14.8463 4.74159 14.8463 4.44283C14.8463 4.14407 15.0876 3.90277 15.3863 3.90277C15.6851 3.90277 15.9264 4.14407 15.9264 4.44283C15.9264 4.74159 15.6851 4.9829 15.3863 4.9829Z" fill="#50BD77"/>
</g>
<defs>
<clipPath id="clip0_6161_10641">
<rect width="19.6108" height="19.6108" fill="white"/>
</clipPath>
</defs>
</svg>
