<svg width="21" height="20" viewBox="0 0 21 20" fill="none" xmlns="http://www.w3.org/2000/svg">
<g id="linkedin">
<path id="Vector" d="M5.02948 6.40617H0.943884C0.813145 6.40617 0.682406 6.50423 0.682406 6.66765V18.8917C0.682406 19.0225 0.780461 19.1532 0.943884 19.1532H4.99679C5.12753 19.1532 5.25827 19.0552 5.25827 18.8917V6.63497C5.25827 6.50423 5.16022 6.40617 5.02948 6.40617ZM4.768 18.6303H1.20536V6.89644H4.768V18.6303ZM3.00302 0.490234C1.53221 0.490234 0.453613 1.47078 0.453613 2.84354C0.453613 4.2163 1.49953 5.19684 2.93765 5.19684H3.00302C4.47384 5.19684 5.55243 4.2163 5.55243 2.84354C5.48706 1.47078 4.47384 0.490234 3.00302 0.490234ZM3.00302 4.73925C1.79369 4.73925 0.976569 3.95482 0.976569 2.87622C0.976569 1.76494 1.79369 0.980506 3.00302 0.980506C4.17967 0.980506 4.99679 1.73225 5.02948 2.84354C5.02948 3.95482 4.21236 4.73925 3.00302 4.73925ZM14.9983 6.11201C13.2333 6.11201 12.2201 6.86376 11.5664 7.61551V6.63497C11.5664 6.50423 11.4684 6.37349 11.3049 6.37349H7.25204C7.18667 6.37349 7.1213 6.40617 7.08862 6.43886C7.05593 6.47154 7.02325 6.53691 7.02325 6.63497C7.08862 7.74625 7.02325 18.7283 7.02325 18.8591C7.02325 18.9244 7.05593 18.9898 7.08862 19.0225C7.1213 19.0552 7.18667 19.0879 7.25204 19.0879H11.3049C11.4357 19.0879 11.5664 18.9898 11.5664 18.8264V12.0279C11.5664 11.603 11.5991 11.3089 11.6972 11.1128C11.8606 10.7206 12.3509 9.7727 13.5602 9.7727C14.7695 9.7727 15.3579 10.6225 15.3579 12.2894V18.8264C15.3579 18.9571 15.4559 19.0879 15.6193 19.0879H19.6722C19.803 19.0879 19.9337 18.9898 19.9337 18.8264V11.8645C19.9337 8.2692 18.0707 6.11201 14.9983 6.11201ZM19.4108 18.6303H15.8481V12.3221C15.8481 10.3937 15.031 9.31511 13.5602 9.31511C12.5143 9.31511 11.6645 9.93612 11.2396 10.9494C11.1415 11.2108 11.0762 11.5377 11.0762 12.0279V18.6303H7.51352C7.51352 17.0614 7.5462 8.72679 7.51352 6.89644H11.0762V8.30189C11.0435 8.36726 11.0435 8.46531 11.1088 8.53068C11.1415 8.59605 11.2396 8.66142 11.3376 8.66142C11.4684 8.66142 11.5664 8.56337 11.5664 8.46531C12.1548 7.58282 13.0699 6.60228 14.9983 6.60228C17.8092 6.60228 19.4435 8.53068 19.4435 11.8645V18.6303H19.4108Z" fill="#50BD77" stroke="#50BD77" stroke-width="0.326847"/>
</g>
</svg>
