<svg width="21" height="21" viewBox="0 0 21 21" fill="none" xmlns="http://www.w3.org/2000/svg">
<g id="Icons">
<path id="Location5 Zone" d="M14.2787 13.9054C14.1387 13.8872 13.9972 13.9253 13.8854 14.0114C13.7735 14.0975 13.7005 14.2245 13.6823 14.3645C13.6641 14.5044 13.7022 14.6459 13.7884 14.7577C13.8745 14.8695 14.0015 14.9425 14.1415 14.9607C17.4665 15.3987 18.9601 16.3063 18.9601 16.834C18.9601 17.5727 16.0573 18.9447 10.5156 18.9447C4.97396 18.9447 2.07118 17.5727 2.07118 16.834C2.07118 16.0952 4.79451 14.8183 9.98785 14.7233V16.3063C9.98785 16.4462 10.0435 16.5805 10.1424 16.6794C10.2414 16.7784 10.3756 16.834 10.5156 16.834C10.6556 16.834 10.7898 16.7784 10.8888 16.6794C10.9878 16.5805 11.0434 16.4462 11.0434 16.3063V9.40963C12.109 9.27541 13.0834 8.74021 13.7682 7.91299C14.453 7.08578 14.7968 6.02873 14.7296 4.95702C14.6623 3.88531 14.1891 2.87951 13.4062 2.14437C12.6233 1.40922 11.5897 1 10.5156 1C9.44159 1 8.40793 1.40922 7.62506 2.14437C6.84218 2.87951 6.36895 3.88531 6.30169 4.95702C6.23443 6.02873 6.5782 7.08578 7.26303 7.91299C7.94785 8.74021 8.92224 9.27541 9.98785 9.40963V13.6679C5.44368 13.7471 1.01562 14.8288 1.01562 16.834C1.01562 18.8391 5.79201 20 10.5156 20C15.2392 20 20.0156 18.913 20.0156 16.834C20.0156 14.8816 16.0045 14.1376 14.2787 13.9054ZM7.34896 5.2252C7.34896 4.59902 7.53468 3.9869 7.88264 3.46625C8.2306 2.9456 8.72516 2.5398 9.30379 2.30017C9.88243 2.06054 10.5191 1.99784 11.1334 2.12001C11.7477 2.24217 12.3119 2.5437 12.7548 2.98648C13.1977 3.42926 13.4993 3.99339 13.6214 4.60754C13.7436 5.22169 13.6809 5.85827 13.4412 6.43679C13.2016 7.0153 12.7957 7.50977 12.2749 7.85766C11.7542 8.20554 11.1419 8.39123 10.5156 8.39123C9.67577 8.39123 8.87032 8.05767 8.27645 7.46392C7.68259 6.87017 7.34896 6.06488 7.34896 5.2252Z" fill="#50BD77" stroke="#50BD77" stroke-width="0.5"/>
</g>
</svg>
