<svg width="21" height="20" viewBox="0 0 21 20" fill="none" xmlns="http://www.w3.org/2000/svg">
<g id="Icons">
<path id="Vector" d="M10.0156 0C4.51562 0 0.015625 4.5 0.015625 10C0.015625 15.5 4.51562 20 10.0156 20C10.3906 20 10.6406 19.75 10.6406 19.375C10.6406 19 10.3906 18.75 10.0156 18.75C5.14062 18.75 1.26562 14.875 1.26562 10C1.26562 5.125 5.14062 1.25 10.0156 1.25C14.8906 1.25 18.7656 5.125 18.7656 10V11.875C18.7656 12.875 17.8906 13.75 16.8906 13.75C15.8906 13.75 15.0156 12.875 15.0156 11.875V5.625C15.0156 5.25 14.7656 5 14.3906 5C14.0156 5 13.7656 5.25 13.7656 5.625V6.75C12.8906 5.625 11.5156 5 10.0156 5C7.26562 5 5.01562 7.25 5.01562 10C5.01562 12.75 7.26562 15 10.0156 15C11.6406 15 13.0156 14.25 14.0156 13C14.5156 14.125 15.6406 15 16.8906 15C18.6406 15 20.0156 13.625 20.0156 11.875V10C20.0156 4.5 15.5156 0 10.0156 0ZM10.0156 13.75C7.89062 13.75 6.26562 12.125 6.26562 10C6.26562 7.875 7.89062 6.25 10.0156 6.25C12.1406 6.25 13.7656 7.875 13.7656 10C13.7656 12.125 12.1406 13.75 10.0156 13.75Z" fill="#50BD77"/>
</g>
</svg>
