<svg width="26" height="26" viewBox="0 0 26 26" fill="none" xmlns="http://www.w3.org/2000/svg">
<g id="play">
<path id="Vector" d="M22.7578 13.0175C22.7188 12.9394 22.6562 12.8613 22.5625 12.8222C21.6328 12.3847 20.6484 12.0644 19.7188 11.6269C18.5938 11.0722 17.5 10.4706 16.375 9.91595C15.4609 9.46282 14.625 8.86126 13.7266 8.35345C13.2578 8.18158 12.8359 7.91595 12.4141 7.66595C11.1094 6.90814 9.65625 6.41595 8.39062 5.58001C7.76562 5.21283 7.08594 4.93158 6.42969 4.6347C5.30469 4.04095 4.21094 3.36908 3.03906 2.86908C3.02344 2.86908 3.01563 2.86908 3 2.86908C2.76563 2.76751 2.41406 2.96283 2.52344 3.61126C2.64063 4.36126 2.52344 5.11126 2.45312 5.86126C2.46094 6.80658 2.55469 7.75189 2.54688 8.6972C2.57813 9.40814 2.6875 10.0644 2.67969 10.7831C2.66406 11.4706 2.5625 12.1581 2.64062 12.8378C2.79688 13.5722 2.82813 14.3222 2.67188 15.0644C2.51563 16.0409 2.6875 16.9706 2.73438 17.955C2.75781 18.3769 2.67188 18.7909 2.73438 19.2128C2.8125 19.6113 2.84375 20.0097 2.8125 20.4081C2.8125 21.0722 2.71094 21.7206 2.64844 22.3769C2.6875 22.7831 2.46094 23.4628 2.96875 23.6347C3 23.6347 3.03125 23.6347 3.0625 23.6347C3.50781 23.6347 3.84375 23.1972 4.21875 22.9863C4.57813 22.7597 4.95312 22.5644 5.32031 22.3613C5.94531 22.0019 6.58594 21.6581 7.23438 21.33C7.69531 21.08 8.10938 20.7441 8.57031 20.4863C8.63281 20.455 8.6875 20.4238 8.74219 20.3847C9.35937 20.08 9.97656 19.7753 10.5938 19.4784C11.6562 19.0097 12.7812 18.6581 13.7969 18.0956C15.3516 17.1503 17.1094 16.6425 18.75 15.8847C19.1484 15.705 19.4922 15.4472 19.875 15.2363C20.3672 15.0019 20.875 14.7988 21.3516 14.5175C21.7578 14.3066 22.1328 14.041 22.5078 13.7753C22.6016 13.7597 22.6797 13.7128 22.7422 13.6347C22.7578 13.6347 22.7812 13.6191 22.7969 13.6191C23.1328 13.4706 23.0078 13.0644 22.75 12.9941L22.7578 13.0175ZM4.44531 5.6347C4.75 5.97064 5.20313 6.17376 5.57031 6.45501C5.42188 6.84564 5.92188 6.97064 6.17969 7.12689C6.80469 7.4472 7.4375 7.74408 8.0625 8.0722C8.17188 8.35345 8.50781 8.36908 8.74219 8.50189C9.35937 8.78314 9.97656 9.04095 10.5625 9.3847C11.0312 9.64251 11.5 9.89251 11.9766 10.1347C12.2422 10.2831 12.5625 10.58 12.875 10.3769C13.9688 10.9159 14.9766 11.6113 16.0859 12.1191C17.0391 12.5644 17.9609 13.1191 18.9297 13.5409C18.0938 13.7597 17.2812 14.0331 16.4766 14.3613C15.8516 14.6581 13.1172 15.5097 13.0547 16.1191C13.0312 16.1269 13 16.1425 12.9766 16.1503C12.9062 16.1816 12.8516 16.2284 12.8203 16.2988C12.2734 16.5175 11.7266 16.7597 11.1953 17.0097C10.8906 17.1816 10.4688 17.2519 10.2734 17.5566C9.55469 17.8613 8.89844 18.2831 8.19531 18.6113C7.10156 19.08 5.97656 19.5253 4.92969 20.0878C4.85938 20.041 4.77344 20.0409 4.6875 20.0566C4.71094 19.8925 4.67188 19.7128 4.67188 19.5488C4.66406 19.0956 4.625 18.6425 4.59375 18.1972C4.53125 17.4316 4.58594 16.6659 4.53906 15.9081C4.83594 15.6816 4.64844 15.2441 4.65625 14.9316C4.625 14.5644 4.60156 14.1972 4.57813 13.83C4.60156 13.4238 4.625 13.0175 4.67969 12.6191C4.73438 12.3769 4.74219 12.0488 4.49219 11.9081C4.46875 10.8144 4.46094 9.72064 4.49219 8.62689C4.51562 8.40814 4.54688 8.08783 4.28906 8.00189C4.33594 7.22845 4.40625 6.45501 4.42188 5.67376C4.42188 5.65814 4.42188 5.64251 4.42188 5.62689C4.42188 5.62689 4.4375 5.6347 4.44531 5.64251V5.6347ZM3.23438 8.79876C3.23438 8.79876 3.23438 8.83783 3.23438 8.86126C3.23438 8.75189 3.22656 8.64251 3.21875 8.52533C3.22656 8.61126 3.23438 8.70501 3.24219 8.79095L3.23438 8.79876ZM8.46094 19.3144C8.59375 19.2441 8.72656 19.1816 8.85938 19.1113C8.89844 19.1113 8.92969 19.0956 8.96094 19.0878C8.78906 19.1738 8.625 19.2519 8.45312 19.3378C8.45312 19.33 8.45312 19.3222 8.45312 19.3066L8.46094 19.3144ZM20.75 13.4238C20.75 13.4238 20.75 13.4081 20.7344 13.4003C20.75 13.4003 20.7578 13.4081 20.7734 13.4159C20.7656 13.4159 20.7578 13.4238 20.75 13.4316V13.4238ZM4.15625 4.60345C4.15625 4.60345 4.14063 4.58783 4.13281 4.58001C4.13281 4.58001 4.13281 4.5722 4.125 4.56439C4.14062 4.5722 4.15625 4.58783 4.17188 4.59564C4.17188 4.59564 4.16406 4.59564 4.15625 4.60345ZM4.11719 4.55658C4.11719 4.55658 4.125 4.5722 4.13281 4.5722C4.13281 4.5722 4.125 4.55658 4.11719 4.55658ZM3.71875 4.3847C3.66406 4.35345 3.60938 4.3222 3.54688 4.29095C3.54688 4.24408 3.53906 4.20501 3.53125 4.15814C3.64063 4.22845 3.75 4.29876 3.84375 4.36908C3.79688 4.36908 3.75781 4.36908 3.71094 4.3847H3.71875ZM12.8281 8.8222C12.7734 8.79095 12.7188 8.76751 12.6562 8.73626C12.3516 8.58001 12.0469 8.42376 11.7344 8.27533C11.2031 8.02533 10.6719 7.77533 10.1719 7.45501C11.0547 7.90814 11.9609 8.3222 12.8281 8.8222Z" fill="#50BD77"/>
</g>
</svg>
