<svg width="18" height="19" viewBox="0 0 18 19" fill="none" xmlns="http://www.w3.org/2000/svg">
<path id="Vector" d="M1 10.5H8V17.5C8 17.7652 8.10536 18.0196 8.29289 18.2071C8.48043 18.3946 8.73478 18.5 9 18.5C9.26522 18.5 9.51957 18.3946 9.70711 18.2071C9.89464 18.0196 10 17.7652 10 17.5V10.5H17C17.2652 10.5 17.5196 10.3946 17.7071 10.2071C17.8946 10.0196 18 9.76522 18 9.5C18 9.23478 17.8946 8.98043 17.7071 8.79289C17.5196 8.60536 17.2652 8.5 17 8.5H10V1.5C10 1.23478 9.89464 0.98043 9.70711 0.792893C9.51957 0.605357 9.26522 0.5 9 0.5C8.73478 0.5 8.48043 0.605357 8.29289 0.792893C8.10536 0.98043 8 1.23478 8 1.5V8.5H1C0.734784 8.5 0.48043 8.60536 0.292893 8.79289C0.105357 8.98043 0 9.23478 0 9.5C0 9.76522 0.105357 10.0196 0.292893 10.2071C0.48043 10.3946 0.734784 10.5 1 10.5Z" fill="#192F59"/>
</svg>
