<svg width="10" height="18" viewBox="0 0 10 18" fill="none" xmlns="http://www.w3.org/2000/svg">
<path id="Vector" fill-rule="evenodd" clip-rule="evenodd" d="M0.603384 1.38789C0.837821 0.952876 1.38055 0.790309 1.81566 1.02479L1.39105 1.81246C1.81566 1.02479 1.81566 1.02479 1.81566 1.02479L1.81804 1.02609L1.82306 1.02881L1.84083 1.03848L1.90585 1.07432C1.96193 1.10541 2.04294 1.15075 2.1453 1.20923C2.34979 1.32614 2.64007 1.49589 2.98773 1.70969C3.68114 2.13623 4.61066 2.74306 5.54483 3.45975C6.47351 4.17235 7.43584 5.01561 8.17422 5.91913C8.89508 6.80144 9.5039 7.86381 9.5039 8.99829C9.5039 10.1331 8.89532 11.196 8.17435 12.0788C7.43608 12.9828 6.47375 13.8265 5.54494 14.5394C4.61089 15.2564 3.68126 15.8634 2.98785 16.2902C2.64019 16.5041 2.34991 16.6739 2.14542 16.7908C2.04306 16.8493 1.96205 16.8947 1.90597 16.9257L1.84095 16.9616L1.82317 16.9713L1.81816 16.9741L1.81661 16.9749C1.81661 16.9749 1.81566 16.9754 1.39105 16.1877L1.81661 16.9749C1.38162 17.2093 0.837941 17.0473 0.603503 16.6123C0.368946 16.1774 0.531323 15.6348 0.966195 15.4002L0.969416 15.3985L0.982659 15.3912L1.03826 15.3607C1.08789 15.3331 1.16198 15.2916 1.25707 15.2373C1.44724 15.1285 1.72081 14.9685 2.04998 14.7661C2.70986 14.3599 3.58486 13.788 4.4552 13.1199C5.33103 12.4476 6.17309 11.7 6.78824 10.9468C7.42068 10.1725 7.7143 9.51227 7.7143 8.99829C7.7143 8.48516 7.4208 7.82551 6.78836 7.05145C6.17333 6.29875 5.33115 5.5515 4.45544 4.87957C3.58498 4.21169 2.70998 3.63992 2.0501 3.23401C1.72093 3.03158 1.44736 2.87162 1.25718 2.7629C1.1621 2.70857 1.08801 2.6671 1.03838 2.63959L0.982779 2.60895L0.969536 2.60175L0.966672 2.60024M0.603384 1.38789C0.368946 1.82285 0.531799 2.3657 0.966672 2.60024L0.603384 1.38789Z" fill="#D1D1D1"/>
</svg>
