<svg width="85" height="85" viewBox="0 0 85 85" fill="none" xmlns="http://www.w3.org/2000/svg">
<g id="school-building">
<path id="Vector" d="M75.5741 23.4911C73.565 23.6456 71.5559 23.6456 69.5468 23.8002C65.8377 23.9547 62.1286 24.2638 58.265 24.882C58.1104 21.482 58.1104 18.2365 57.9559 14.8365H59.6559C62.4377 14.682 64.4468 12.2092 64.1377 9.58197C63.8286 7.26379 61.8195 5.2547 59.0377 5.40924C57.8013 5.40924 48.8377 5.87288 42.0377 6.49106C48.8377 7.10924 57.8013 7.41834 59.0377 7.57288C60.8923 7.57288 61.665 8.80924 61.8195 9.89106C61.8195 11.1274 60.7377 12.2092 59.6559 12.2092C48.6832 12.2092 61.8195 11.7456 25.8104 12.2092C24.265 12.3638 23.3377 11.4365 23.0286 10.2002C22.8741 8.96379 23.8013 7.57288 25.1923 7.41834C26.5832 7.41834 35.7013 6.9547 42.1923 6.33652C35.0832 5.71834 25.965 5.40924 25.1923 5.40924C22.7195 5.40924 20.5559 7.72743 20.7104 10.3547C20.865 12.8274 22.7195 14.8365 25.5013 14.8365H25.8104H26.8923C26.7377 18.082 26.7377 21.482 26.5832 24.7274H25.965L24.4195 24.5729L21.4832 24.2638C19.4741 24.1092 17.465 23.9547 15.4559 23.8002C13.4468 23.6456 11.5923 23.6456 9.42862 23.4911C8.03771 23.4911 6.80135 24.1092 5.71953 25.0365C4.63771 25.9638 4.01953 27.5092 4.01953 28.9002C4.01953 30.2911 4.63771 31.682 5.56499 32.6092C6.6468 33.5365 7.88317 34.1547 9.27408 34.1547C9.89226 34.1547 10.3559 34.1547 10.9741 34.1547C10.9741 37.4002 10.8195 40.6456 10.8195 44.0456C10.665 47.9092 10.665 51.6183 10.665 55.482C10.665 59.3456 10.665 63.0547 10.8195 66.9183C10.8195 70.782 10.9741 74.4911 11.1286 78.3547V78.5092C11.1286 79.1274 11.5923 79.4365 12.2104 79.4365C16.8468 79.282 21.3286 78.9729 25.965 78.5092C25.965 79.282 26.5832 79.9002 27.3559 79.9002C37.4013 79.9002 47.4468 79.9002 57.6468 79.9002C58.4195 79.9002 59.0377 79.282 59.0377 78.5092C63.6741 78.9729 68.1559 79.282 72.7923 79.4365C73.4104 79.4365 73.8741 78.9729 73.8741 78.5092V78.3547C74.0286 74.4911 74.1832 70.782 74.1832 66.9183C74.3377 63.0547 74.3377 59.3456 74.3377 55.482C74.3377 51.6183 74.3377 47.9092 74.1832 44.0456C74.1832 40.6456 74.0286 37.4002 73.8741 34.0002C74.4923 34.0002 75.1104 34.0002 75.5741 34.0002C76.965 34.0002 78.3559 33.382 79.2832 32.4547C80.2104 31.5274 80.8286 30.1365 80.8286 28.7456C80.8286 27.3547 80.2104 25.9638 79.2832 25.0365C78.3559 23.9547 76.965 23.4911 75.5741 23.4911ZM25.965 61.9729L25.8104 78.0456C21.6377 77.582 17.465 77.4274 13.2923 77.1183C13.4468 73.7183 13.6013 70.1638 13.6013 66.7638C13.7559 62.9002 13.7559 59.1911 13.7559 55.3274C13.7559 51.4638 13.7559 47.7547 13.6013 43.8911C13.6013 40.4911 13.4468 37.0911 13.2923 33.6911C14.065 33.6911 14.6832 33.6911 15.4559 33.5365C17.465 33.382 19.4741 33.2274 21.4832 33.0729L24.4195 32.7638L25.965 32.6092H26.2741H26.4286C26.1195 50.2274 26.1195 50.5365 25.965 61.9729ZM26.4286 32.4547H25.965L24.4195 32.3002L21.4832 31.9911C19.4741 31.8365 17.465 31.682 15.4559 31.5274C13.4468 31.3729 11.4377 31.3729 9.42862 31.2183C8.81044 31.2183 8.19226 30.9092 7.72862 30.4456C7.26499 29.982 7.11044 29.3638 7.11044 28.7456C7.11044 28.1274 7.26499 27.6638 7.72862 27.2002C8.19226 26.7365 8.81044 26.4274 9.42862 26.4274C11.2832 26.2729 13.4468 26.2729 15.4559 26.1183C17.465 25.9638 19.4741 25.8092 21.4832 25.6547L24.4195 25.3456L25.965 25.1911L26.5832 25.0365C26.5832 27.5092 26.4286 29.982 26.4286 32.4547ZM36.4741 76.6547C36.7832 74.182 37.0923 71.5547 37.2468 69.082C37.4013 66.6092 37.5559 63.982 37.7104 61.5092C39.4104 61.5092 40.9559 61.5092 42.6559 61.5092C44.3559 61.5092 45.9013 61.5092 47.6013 61.5092C47.7559 63.982 47.7559 66.6092 48.065 69.082C48.2195 71.5547 48.5286 74.182 48.8377 76.6547C44.5104 76.5002 40.4923 76.5002 36.4741 76.6547ZM56.2559 61.9729L56.1013 76.6547C53.7832 76.6547 51.3104 76.6547 48.9923 76.6547C49.3013 74.182 49.6104 71.5547 49.765 69.082C49.9195 65.9911 50.0741 63.0547 50.2286 59.9638C50.2286 59.1911 49.6104 58.5729 48.8377 58.5729H48.6832C46.5195 58.5729 44.5104 58.5729 42.3468 58.4183C40.1832 58.4183 38.1741 58.4183 36.0104 58.5729H35.8559C35.0832 58.5729 34.465 59.1911 34.465 59.9638C34.6195 63.0547 34.6195 65.9911 34.9286 69.082C35.0832 71.5547 35.3923 74.182 35.7013 76.6547C33.3832 76.6547 30.9104 76.6547 28.5923 76.6547L28.4377 61.9729C28.4377 57.0274 28.2832 34.4638 27.665 14.8365C33.2286 14.8365 56.565 14.9911 56.8741 14.8365C56.4104 37.2456 56.4104 54.0911 56.2559 61.9729ZM59.0377 77.8911L58.8832 61.8183C58.7286 48.0638 58.7286 47.9092 58.4195 32.6092C58.5741 32.6092 58.8832 32.6092 59.0377 32.6092C62.4377 33.0729 65.9923 33.382 69.3923 33.5365C70.0104 33.5365 70.7832 33.5365 71.4014 33.6911C71.2468 37.0911 71.0923 40.4911 71.0923 43.8911C70.9377 47.7547 70.9377 51.4638 70.9377 55.3274C70.9377 59.1911 70.9377 62.9002 71.0923 66.7638C71.0923 70.1638 71.2468 73.7183 71.4014 77.1183C67.5377 77.2729 63.365 77.582 59.0377 77.8911ZM75.5741 31.0638C73.565 31.2183 71.5559 31.2183 69.5468 31.3729C65.8377 31.5274 62.1286 31.8365 58.4195 32.4547C58.4195 29.982 58.265 27.5092 58.265 25.0365C61.9741 25.6547 65.6832 25.9638 69.5468 26.1183C71.5559 26.2729 73.565 26.2729 75.5741 26.4274C76.8104 26.4274 77.8923 27.5092 77.8923 28.7456C77.8923 29.982 76.8104 31.0638 75.5741 31.0638Z" fill="#50BD77"/>
<path id="Vector_2" d="M39.411 26.4273C38.3292 26.7364 37.2474 27.0455 36.3201 27.6637C37.4019 28.2819 38.4837 28.591 39.411 28.9C40.4928 29.0546 41.5746 29.2091 42.5019 29.2091C43.5837 29.2091 44.6656 29.0546 45.5928 28.9C46.6746 28.591 47.7565 28.2819 48.6837 27.6637C47.6019 27.0455 46.5201 26.7364 45.5928 26.4273C43.5837 25.9637 41.2656 25.9637 39.411 26.4273ZM65.2201 40.1819C64.6019 40.8 64.2928 41.5728 63.9837 42.191C63.211 44.3546 63.8292 46.6728 65.2201 48.0637C65.8383 47.4455 66.1474 46.6728 66.4565 46.0546C66.9201 44.8182 66.9201 43.4273 66.4565 42.0364C66.1474 41.5728 65.8383 40.8 65.2201 40.1819ZM65.2201 54.091C64.6019 54.7091 64.2928 55.4819 63.9837 56.1C63.5201 57.3364 63.5201 58.7273 63.9837 60.1182C64.2928 60.7364 64.6019 61.5091 65.2201 62.1273C66.611 60.7364 67.2292 58.2637 66.4565 56.2546C66.1474 55.3273 65.8383 54.7091 65.2201 54.091ZM19.7837 40.1819C19.1656 40.8 18.8565 41.5728 18.5474 42.191C18.3928 42.8091 18.2383 43.5819 18.2383 44.2C18.2383 44.8182 18.3928 45.591 18.5474 46.2091C18.8565 46.8273 19.1656 47.6 19.7837 48.2182C20.4019 47.6 20.711 46.8273 21.0201 46.2091C21.4837 44.9728 21.4837 43.5819 21.0201 42.191C20.711 41.5728 20.4019 40.8 19.7837 40.1819ZM19.7837 54.091C19.1656 54.7091 18.8565 55.4819 18.5474 56.1C18.3928 56.7182 18.2383 57.491 18.2383 58.1091C18.2383 58.7273 18.3928 59.5 18.5474 60.1182C18.8565 60.7364 19.1656 61.5091 19.7837 62.1273C20.4019 61.5091 20.711 60.7364 21.0201 60.1182C21.1746 59.5 21.3292 58.7273 21.3292 58.1091C21.3292 57.491 21.1746 56.7182 21.0201 56.1C20.711 55.3273 20.4019 54.7091 19.7837 54.091ZM39.411 33.2273C38.3292 33.5364 37.2474 33.8455 36.3201 34.4637C37.4019 35.0819 38.4837 35.391 39.411 35.7C41.4201 36.1637 43.5837 36.1637 45.7474 35.7C46.8292 35.391 47.911 35.0819 48.8383 34.4637C47.7565 33.8455 46.6746 33.5364 45.7474 33.2273C43.5837 32.7637 41.2656 32.7637 39.411 33.2273ZM39.411 40.0273C38.3292 40.3364 37.2474 40.6455 36.3201 41.2637C37.4019 41.8819 38.4837 42.191 39.411 42.5C41.4201 42.9637 43.5837 42.9637 45.7474 42.5C46.8292 42.191 47.911 41.8819 48.8383 41.2637C47.7565 40.6455 46.6746 40.3364 45.7474 40.0273C43.5837 39.5637 41.2656 39.5637 39.411 40.0273ZM39.411 46.8273C38.3292 47.1364 37.2474 47.4455 36.3201 48.0637C37.4019 48.6819 38.4837 48.991 39.411 49.3C41.4201 49.7637 43.5837 49.7637 45.7474 49.3C46.8292 48.991 47.911 48.6819 48.8383 48.0637C47.7565 47.4455 46.6746 47.1364 45.7474 46.8273C43.5837 46.3637 41.2656 46.5182 39.411 46.8273Z" fill="#50BD77"/>
</g>
</svg>
