<svg width="9" height="18" viewBox="0 0 9 18" fill="none" xmlns="http://www.w3.org/2000/svg">
<path id="Vector" fill-rule="evenodd" clip-rule="evenodd" d="M0.10729 1.38789C0.341728 0.952876 0.884453 0.790309 1.31956 1.02479L0.894953 1.81246C1.31956 1.02479 1.31956 1.02479 1.31956 1.02479L1.32195 1.02609L1.32696 1.02881L1.34474 1.03848L1.40976 1.07432C1.46583 1.10541 1.54684 1.15075 1.64921 1.20923C1.8537 1.32614 2.14397 1.49589 2.49163 1.70969C3.18504 2.13623 4.11456 2.74306 5.04873 3.45975C5.97742 4.17235 6.93974 5.01561 7.67813 5.91913C8.39898 6.80144 9.0078 7.86381 9.0078 8.99829C9.0078 10.1331 8.39922 11.196 7.67825 12.0788C6.93998 12.9828 5.97765 13.8265 5.04885 14.5394C4.1148 15.2564 3.18516 15.8634 2.49175 16.2902C2.14409 16.5041 1.85382 16.6739 1.64933 16.7908C1.54696 16.8493 1.46595 16.8947 1.40988 16.9257L1.34486 16.9616L1.32708 16.9713L1.32207 16.9741L1.32052 16.9749C1.32052 16.9749 1.31956 16.9754 0.894953 16.1877L1.32052 16.9749C0.885527 17.2093 0.341847 17.0473 0.10741 16.6123C-0.127147 16.1774 0.0352289 15.6348 0.470102 15.4002L0.473323 15.3985L0.486566 15.3912L0.542163 15.3607C0.591794 15.3331 0.665884 15.2916 0.760971 15.2373C0.951146 15.1285 1.22472 14.9685 1.55388 14.7661C2.21377 14.3599 3.08876 13.788 3.95911 13.1199C4.83494 12.4476 5.677 11.7 6.29215 10.9468C6.92459 10.1725 7.2182 9.51227 7.2182 8.99829C7.2182 8.48516 6.92471 7.82551 6.29226 7.05145C5.67724 6.29875 4.83506 5.5515 3.95934 4.87957C3.08888 4.21169 2.21389 3.63992 1.554 3.23401C1.22484 3.03158 0.951266 2.87162 0.761091 2.7629C0.666003 2.70857 0.591914 2.6671 0.542282 2.63959L0.486685 2.60895L0.473442 2.60175L0.470578 2.60024M0.10729 1.38789C-0.127148 1.82285 0.0357057 2.3657 0.470578 2.60024L0.10729 1.38789Z" fill="#D1D1D1"/>
</svg>
