<svg width="22" height="22" viewBox="0 0 22 22" fill="none" xmlns="http://www.w3.org/2000/svg">
<path id="Vector" d="M1.63361 19.9899C2.01937 20.0951 2.44021 20.1652 2.82597 20.2354C2.86104 20.3756 2.89611 20.4809 2.96625 20.5861C3.17667 20.9718 3.5975 21.2173 4.05341 21.2524C4.50931 21.2875 6.29786 21.3225 6.40307 21.3225C6.61348 21.3576 6.8239 21.4277 7.03432 21.4628C7.6305 21.8135 8.82286 21.8836 9.27877 21.9187C10.4361 22.059 11.5934 21.9888 12.7507 21.9888C15.0302 21.9888 17.2746 21.8135 19.5541 21.6031C20.0802 21.568 21.0621 21.5329 21.4479 21.1472C21.8337 20.7614 21.4479 20.3406 20.9219 20.2003C20.7465 20.1652 20.466 20.1652 20.1854 20.2003C20.3257 19.9548 20.3958 19.7093 20.3958 19.3937C20.501 17.8857 19.9399 3.64748 19.5541 2.56032C19.3788 2.03428 18.993 1.36796 18.3618 1.40303H18.0462C17.7305 0.42108 16.8889 -0.069894 16.1875 0.000245107C15.4861 0.105454 14.8899 0.806845 14.925 1.5433L12.7507 1.64851C12.5052 0.526288 11.6284 0.000245121 10.8569 0.0703842C9.83988 0.210662 9.38398 1.47317 9.62946 1.78879L7.20967 1.894C6.92911 0.806845 6.08744 0.280801 5.31591 0.35094C4.61452 0.491219 4.01834 1.19261 4.05341 1.96414C4.05341 1.99921 4.05341 2.03428 4.08848 2.06935L3.70271 2.10442C3.17667 2.13949 2.82597 2.59539 2.82597 3.08636C2.72076 3.89296 0.79194 17.044 1.00236 19.2534C1.03743 19.6041 1.28291 19.8847 1.63361 19.9899ZM19.5191 19.8496C19.3788 20.3055 18.958 20.551 18.5021 20.6913C18.0462 20.7965 12.5052 21.077 12.4701 21.077C11.3829 21.1472 10.3659 21.2524 9.31384 21.2173C8.12147 21.077 5.49126 20.9368 4.64959 19.8145C4.29889 19.3586 4.26382 18.6923 4.22875 18.1663C4.01834 14.4489 3.84299 9.18846 3.63257 6.62839C10.7166 6.94401 18.6774 6.17248 18.958 5.99714C18.9229 6.06728 19.5892 19.6743 19.5191 19.8496ZM16.2225 0.526288C16.6434 0.456149 17.1343 0.771775 17.3798 1.26275C17.4149 1.33289 17.4149 1.40303 17.45 1.47317L15.4159 1.57837C15.4159 0.982192 15.8368 0.596427 16.2225 0.526288ZM10.927 0.631497C11.3829 0.561358 11.9791 0.947123 12.2246 1.71865L10.0854 1.82386C10.1204 1.71865 10.0854 0.736705 10.927 0.631497ZM5.38605 0.912053C5.84195 0.841914 6.43814 1.19261 6.64855 1.96414L4.54438 2.06935C4.57945 1.99921 4.57945 1.01726 5.38605 0.912053ZM3.70271 2.63046L6.75376 2.49018C6.78883 3.29678 6.40307 4.41901 5.63154 4.17352C5.59647 3.75269 5.35098 3.43706 5.03535 3.43706C4.71973 3.43706 4.43917 3.78776 4.43917 4.20859C4.43917 4.62942 4.68466 4.98012 5.03535 4.98012C5.2107 4.98012 5.38605 4.83984 5.49126 4.66449C6.68362 4.98012 7.31487 3.61241 7.24473 2.45511L12.2597 2.2447C12.2947 3.08636 11.8739 4.17352 11.1024 3.89296C11.1024 3.47213 10.8218 3.12143 10.5062 3.12143C10.1906 3.12143 9.91002 3.47213 9.91002 3.89296C9.91002 4.3138 10.2256 4.69956 10.5413 4.69956C10.7166 4.69956 10.892 4.59435 10.9972 4.41901C12.1545 4.7697 12.8559 3.47213 12.7857 2.2447L17.5902 1.99921C17.6955 2.91102 17.2396 4.13845 16.433 3.78776C16.433 3.36692 16.1875 3.01623 15.8368 3.01623C15.5211 3.01623 15.2406 3.36692 15.2406 3.78776C15.2406 4.20859 15.4861 4.55929 15.8368 4.55929C16.0121 4.55929 16.1524 4.45408 16.2576 4.27873C17.485 4.73463 18.2215 3.29678 18.1163 1.96414H18.3618C18.5722 1.96414 18.7475 2.13949 18.7475 2.3499C18.7826 2.80581 18.8177 4.13845 18.8878 5.5763C18.5371 5.36588 13.3819 6.55825 3.56243 6.13741C3.49229 5.19054 3.38709 4.17352 3.35202 3.12143C3.38709 3.08636 3.35202 2.63046 3.70271 2.63046ZM3.31695 19.6392C3.35202 18.2013 3.42216 16.3777 3.52736 14.5892C3.5975 16.027 3.66764 17.2545 3.70271 18.2364C3.77285 19.4638 3.91313 20.1652 4.96522 20.7965C4.71973 20.7965 4.47424 20.7965 4.08848 20.7614C3.38709 20.6913 3.28188 20.2003 3.31695 19.6392ZM3.00132 5.5763C3.10653 7.01415 3.24681 8.31172 3.31695 9.74958C3.17667 10.0301 2.7909 18.3767 2.7909 19.7093C2.47528 19.6392 2.08951 19.569 1.77389 19.4989C1.66868 19.4638 1.56347 19.3586 1.56347 19.2184C1.38812 17.8156 2.44021 9.22353 3.00132 5.5763Z" fill="#192F59"/>
</svg>
