<svg width="22" height="22" viewBox="0 0 22 22" fill="none" xmlns="http://www.w3.org/2000/svg">
<g id="Phone 3">
<g id="&#60;Group&#62;">
<g id="&#60;Group&#62;_2">
<path id="&#60;Path&#62;" d="M8.00745 10.4007C8.75785 11.9837 10.0327 13.2586 11.6158 14.009L13.0658 12.9173C13.1452 12.8386 13.245 12.7836 13.3539 12.7586C13.4629 12.7336 13.5767 12.7395 13.6825 12.7757C14.3764 13.0031 15.1022 13.1185 15.8325 13.1173C15.9916 13.1173 16.1442 13.1805 16.2567 13.2931C16.3692 13.4056 16.4325 13.5582 16.4325 13.7173V15.8173C16.4325 15.9764 16.3692 16.1291 16.2567 16.2416C16.1442 16.3541 15.9916 16.4173 15.8325 16.4173C14.4886 16.4173 13.1579 16.1526 11.9163 15.6384C10.6748 15.1241 9.54665 14.3703 8.59639 13.42C6.67727 11.5009 5.59912 8.89803 5.59912 6.18398C5.59912 6.02485 5.66234 5.87224 5.77486 5.75972C5.88738 5.6472 6.03999 5.58398 6.19912 5.58398H8.30745C8.38625 5.58398 8.46427 5.5995 8.53706 5.62966C8.60986 5.65981 8.676 5.70401 8.73172 5.75972C8.78743 5.81544 8.83163 5.88158 8.86178 5.95437C8.89194 6.02717 8.90745 6.10519 8.90745 6.18398C8.90572 6.9143 9.02107 7.64018 9.24912 8.33398C9.28427 8.44052 9.28884 8.55477 9.26233 8.66377C9.23581 8.77278 9.17927 8.87216 9.09912 8.95065L8.00745 10.4007Z" stroke="#50BD77" stroke-linecap="round" stroke-linejoin="round"/>
</g>
<path id="&#60;Path&#62;_2" d="M17.7907 17.7753C16.2226 19.3427 14.1595 20.318 11.9529 20.5348C9.74635 20.7516 7.53286 20.1967 5.68963 18.9644C3.84639 17.7322 2.48744 15.8989 1.84435 13.7771C1.20125 11.6552 1.3138 9.37596 2.1628 7.32776C3.01181 5.27956 4.54475 3.58911 6.50042 2.54446C8.45609 1.4998 10.7135 1.16558 12.8879 1.59874C15.0624 2.0319 17.0194 3.20563 18.4255 4.91995C19.8316 6.63427 20.5997 8.7831 20.599 11.0003V12.2503C20.599 12.9133 20.3356 13.5492 19.8668 14.0181C19.398 14.4869 18.7621 14.7503 18.099 14.7503H16.4324" stroke="#50BD77" stroke-linecap="round" stroke-linejoin="round"/>
</g>
</g>
</svg>
