<svg width="22" height="20" viewBox="0 0 22 20" fill="none" xmlns="http://www.w3.org/2000/svg">
<g id="Youtube 1">
<g id="&#60;Group&#62;">
<g id="&#60;Group&#62;_2">
<path id="&#60;Path&#62;" d="M8.98096 6.23828V13.8172L14.8756 10.0277L8.98096 6.23828Z" stroke="#50BD77" stroke-width="0.784434" stroke-linecap="round" stroke-linejoin="round"/>
</g>
<path id="&#60;Path&#62;_2" d="M3.61847 3.43533L5.19319 3.23322C7.14864 2.98996 9.11736 2.86903 11.0879 2.87112C13.0584 2.86903 15.0271 2.98996 16.9826 3.23322L18.5825 3.43533C19.1972 3.5117 19.7624 3.81122 20.1707 4.27697C20.579 4.74273 20.802 5.34225 20.7973 5.96162V14.13C20.802 14.7493 20.579 15.3489 20.1707 15.8146C19.7624 16.2804 19.1972 16.5799 18.5825 16.6563L16.9826 16.8584C15.0271 17.1016 13.0584 17.2226 11.0879 17.2205C9.11736 17.2226 7.14864 17.1016 5.19319 16.8584L3.59321 16.6563C2.97855 16.5799 2.41336 16.2804 2.00505 15.8146C1.59674 15.3489 1.37376 14.7493 1.37849 14.13V5.94478C1.37863 5.32444 1.60701 4.72583 2.0201 4.26304C2.4332 3.80025 3.00213 3.50563 3.61847 3.43533Z" stroke="#50BD77" stroke-width="0.784434" stroke-linecap="round" stroke-linejoin="round"/>
</g>
</g>
</svg>
